<svg width="1552" height="861" viewBox="0 0 1552 861" fill="none" xmlns="http://www.w3.org/2000/svg">
<rect width="1552" height="861" fill="#4A3270"/>
<path d="M507.578 267.884C500.901 267.884 493.109 270.471 486.199 274.983C481.935 277.767 478.348 281.066 475.604 284.494C479.259 286.95 482.358 290.698 484.656 295.565C486.428 299.319 487.616 303.565 488.221 308.072C493.484 307.11 499.068 304.852 504.178 301.515C517.173 293.028 524.036 279.783 519.163 272.593C516.387 268.495 510.713 267.884 507.578 267.884Z" fill="#B7B1FF"/>
<path d="M472.323 241.483C471.965 241.439 471.6 241.416 471.238 241.416C464.712 241.416 458.222 248.455 454.764 258.322C456.728 260.424 458.574 262.726 460.254 265.204C463.307 269.709 465.63 274.496 467.137 279.281C470.582 274.761 475.152 270.493 480.7 266.87C482.155 265.921 483.636 265.05 485.134 264.246C484.994 259.063 483.968 254.221 482.062 250.185C480.661 247.215 477.53 242.135 472.323 241.483Z" fill="#B7B1FF"/>
<path d="M451.127 331.266C449.9 327.503 448.027 323.702 445.572 320.08C439.001 310.381 429.364 303.865 421.592 303.865C419.48 303.865 417.637 304.37 416.11 305.366C408.786 310.149 409.9 324.968 418.545 337.727C420.168 340.123 421.987 342.303 423.911 344.255C427.361 345.405 430.818 347.197 434.13 349.528C438.053 340.68 444.153 334.061 451.127 331.266Z" fill="#B7B1FF"/>
<path d="M439.271 368.728C432.7 359.03 423.063 352.514 415.292 352.514C413.181 352.514 411.337 353.019 409.811 354.015C402.486 358.798 403.601 373.618 412.245 386.376C418.815 396.073 428.453 402.588 436.223 402.589C436.224 402.589 436.224 402.589 436.224 402.589C438.336 402.589 440.18 402.084 441.706 401.088C446.077 398.233 446.582 392.317 446.495 389.044C446.32 382.559 443.755 375.344 439.271 368.728Z" fill="#B7B1FF"/>
<path d="M523.45 321.894C524.925 326.999 524.276 332.891 521.473 338.999C521.294 339.389 521.103 339.779 520.907 340.168C521.449 343.476 522.413 346.869 523.806 350.221C529.478 363.874 539.417 371.018 546.304 371.018C547.508 371.018 548.653 370.804 549.709 370.381C557.855 367.12 559.757 352.378 553.864 338.191C548.193 324.538 538.255 317.395 531.368 317.395C530.164 317.395 529.018 317.609 527.963 318.031C525.971 318.829 524.518 320.262 523.45 321.894Z" fill="#B7B1FF"/>
<path d="M470.077 406.742H470.079C476.754 406.742 484.546 404.155 491.457 399.643C498.197 395.241 503.404 389.56 506.118 383.646C507.487 380.661 509.352 375.012 506.444 370.722C503.667 366.623 497.992 366.011 494.858 366.011C488.181 366.011 480.389 368.598 473.479 373.11C460.482 381.595 453.619 394.84 458.491 402.031C461.267 406.13 466.942 406.742 470.077 406.742Z" fill="#B7B1FF"/>
<path d="M467.982 364.996C469.441 364.044 470.929 363.17 472.432 362.365C472.288 357.184 471.248 352.346 469.344 348.313C467.942 345.342 464.812 340.262 459.605 339.611C459.246 339.567 458.881 339.544 458.519 339.544C451.993 339.544 445.503 346.583 442.044 356.449C444.009 358.552 445.856 360.853 447.536 363.332C450.587 367.832 452.911 372.615 454.418 377.396C457.865 372.88 462.438 368.616 467.982 364.996Z" fill="#B7B1FF"/>
<path d="M478.35 344.215C480.227 348.191 481.446 352.72 482.011 357.527C487.215 356.541 492.723 354.284 497.764 350.993C504.504 346.592 509.711 340.911 512.425 334.998C513.795 332.013 515.658 326.364 512.752 322.073C509.975 317.974 504.3 317.362 501.164 317.362C494.488 317.362 486.696 319.95 479.786 324.461C475.765 327.087 472.342 330.17 469.664 333.387C473.162 335.846 476.127 339.511 478.35 344.215Z" fill="#B7B1FF"/>
<path d="M460.729 328.794C464.174 324.262 468.729 319.98 474.29 316.349C475.743 315.4 477.224 314.53 478.721 313.728C478.582 308.544 477.558 303.7 475.652 299.665C474.25 296.695 471.119 291.614 465.912 290.964C465.553 290.919 465.188 290.896 464.826 290.896C458.3 290.896 451.817 297.941 448.358 307.807C450.321 309.908 452.166 312.207 453.844 314.684C456.903 319.199 459.224 323.998 460.729 328.794Z" fill="#B7B1FF"/>
<path d="M428.013 254.386C425.901 254.386 424.057 254.891 422.531 255.887C415.207 260.671 416.322 275.489 424.965 288.247C426.983 291.226 429.295 293.884 431.75 296.158C434.689 297.296 437.617 298.888 440.44 300.875C444.423 291.891 450.654 285.203 457.763 282.485C456.547 278.495 454.599 274.447 451.991 270.6C445.42 260.902 435.785 254.386 428.013 254.386Z" fill="#B7B1FF"/>
<path d="M560.885 329.883C561.662 331.371 562.388 332.914 563.052 334.513C565.566 340.565 566.907 346.613 567.174 352.25C571.158 349.128 575.819 346.454 580.919 344.413C583.713 343.295 586.563 342.412 589.415 341.747C592.396 331.045 590.678 321.21 584.512 318.134C583.253 317.507 581.833 317.188 580.292 317.188C573.937 317.188 566.544 322.182 560.885 329.883Z" fill="#B7B1FF"/>
<path d="M583.521 286.166C584.297 287.653 585.022 289.194 585.685 290.789C588.139 296.694 589.507 302.782 589.766 308.576C593.761 305.435 598.43 302.739 603.552 300.689C606.35 299.569 609.205 298.685 612.06 298.021C613.237 293.795 613.685 289.635 613.333 285.824C613.032 282.563 611.828 276.744 607.147 274.41C605.888 273.782 604.469 273.464 602.927 273.464C596.571 273.465 589.181 278.465 583.521 286.166Z" fill="#B7B1FF"/>
<path d="M602.834 263.726C602.536 259.295 601.419 254.61 599.506 250.004C593.836 236.351 583.896 229.208 577.01 229.208C575.805 229.208 574.66 229.422 573.605 229.845C565.459 233.105 563.556 247.846 569.447 262.035C571.967 268.098 575.33 272.847 578.891 276.282C585.964 268.507 594.683 263.761 602.834 263.726Z" fill="#B7B1FF"/>
<path d="M635.059 253.56C636.238 249.334 636.697 245.172 636.345 241.361C636.044 238.1 634.84 232.281 630.159 229.947C628.899 229.318 627.48 229 625.938 229C619.581 229 612.19 233.998 606.531 241.699C607.307 243.186 608.033 244.729 608.696 246.325C611.148 252.226 612.526 258.311 612.787 264.101C616.779 260.963 621.446 258.273 626.564 256.226C629.358 255.107 632.208 254.224 635.059 253.56Z" fill="#B7B1FF"/>
<path d="M596.922 382.94C611.375 377.154 620.78 365.511 617.458 357.515C615.555 352.932 609.28 350.086 601.084 350.086C595.817 350.086 590.141 351.244 584.667 353.435C577.17 356.435 570.918 360.988 567.062 366.256C565.115 368.914 562.147 374.087 564.129 378.859C566.033 383.442 572.308 386.289 580.506 386.289C585.774 386.289 591.449 385.131 596.922 382.94Z" fill="#B7B1FF"/>
<path d="M640.094 313.793C638.191 309.21 631.916 306.364 623.719 306.364C618.453 306.364 612.776 307.522 607.302 309.713C603.205 311.353 599.491 313.463 596.326 315.894C600.506 322.03 601.791 330.841 599.942 340.372C600.325 340.363 600.71 340.341 601.09 340.341C604.841 340.341 608.322 340.804 611.46 341.669C614.161 341.108 616.883 340.288 619.558 339.218C634.01 333.433 643.415 321.789 640.094 313.793Z" fill="#B7B1FF"/>
<path d="M579.764 307.466C579.398 303.251 578.305 298.825 576.496 294.468C570.826 280.815 560.887 273.672 554 273.672C552.796 273.672 551.65 273.886 550.595 274.309C545.733 276.255 544.042 281.955 543.466 285.18C542.326 291.569 543.381 299.139 546.437 306.499C548.921 312.477 552.225 317.186 555.73 320.611C562.77 312.622 571.532 307.673 579.764 307.466Z" fill="#B7B1FF"/>
<path d="M663.103 269.329C661.2 264.746 654.925 261.899 646.728 261.899C641.461 261.899 635.785 263.057 630.312 265.249C625.961 266.99 622.042 269.261 618.755 271.883C621.204 275.355 622.738 279.784 623.216 284.946C623.56 288.681 623.318 292.637 622.543 296.653C622.933 296.643 623.326 296.622 623.713 296.622C626.857 296.622 629.814 296.943 632.537 297.555C635.865 297.016 639.251 296.082 642.566 294.755C657.02 288.968 666.425 277.324 663.103 269.329Z" fill="#B7B1FF"/>
<path d="M498.478 445.851C492.603 431.71 482.289 424.312 475.136 424.312C473.875 424.312 472.673 424.536 471.567 424.979C466.484 427.013 464.722 432.947 464.122 436.304C462.941 442.92 464.033 450.757 467.195 458.372C470.477 466.272 475.144 472.056 479.873 475.63C485.421 475.641 490.273 476.891 494.129 479.233C502.588 475.82 504.581 460.544 498.478 445.851Z" fill="#B7B1FF"/>
<path d="M542.796 492.195C557.776 486.199 567.513 474.101 564.056 465.779C562.069 460.994 555.544 458.022 547.026 458.022C541.575 458.022 535.702 459.221 530.04 461.487C522.283 464.592 515.812 469.306 511.82 474.76C509.795 477.527 506.706 482.914 508.778 487.903C510.765 492.687 517.29 495.659 525.808 495.659C531.259 495.659 537.132 494.462 542.796 492.195Z" fill="#B7B1FF"/>
<path d="M438.044 497.586C441.608 492.857 446.377 488.39 452.173 484.605C453.702 483.607 455.259 482.692 456.836 481.851C456.493 469.294 451.085 459.101 443.468 458.15C443.092 458.103 442.709 458.079 442.33 458.079C435.52 458.079 428.749 465.421 425.166 475.7C427.21 477.88 429.13 480.269 430.876 482.845C434.072 487.561 436.496 492.578 438.044 497.586Z" fill="#B7B1FF"/>
<path d="M430.085 509.27C429.905 502.556 427.249 495.087 422.61 488.241C415.806 478.2 405.819 471.454 397.755 471.454C395.546 471.454 393.615 471.983 392.016 473.028C387.447 476.012 386.918 482.171 387.009 485.578C387.189 492.292 389.844 499.76 394.483 506.607C401.287 516.648 411.276 523.394 419.339 523.394C419.339 523.394 419.34 523.394 419.341 523.394C421.548 523.394 423.478 522.865 425.077 521.82C429.647 518.836 430.177 512.677 430.085 509.27Z" fill="#B7B1FF"/>
<path d="M491.552 503.773C492.978 500.666 494.915 494.784 491.876 490.299C488.973 486.013 483.065 485.373 479.8 485.373C472.885 485.373 464.818 488.051 457.669 492.719C444.197 501.515 437.1 515.269 442.171 522.753C445.074 527.036 450.983 527.677 454.247 527.677C454.248 527.677 454.249 527.677 454.25 527.677C461.163 527.677 469.228 525.001 476.38 520.332C483.353 515.777 488.742 509.896 491.552 503.773Z" fill="#B7B1FF"/>
<path d="M530.018 425.091C528.698 424.432 527.21 424.099 525.596 424.099C518.973 424.099 511.272 429.302 505.397 437.322C506.214 438.88 506.976 440.496 507.673 442.172C510.303 448.505 511.683 454.831 511.923 460.71C516.072 457.419 520.952 454.604 526.299 452.464C529.203 451.301 532.167 450.387 535.13 449.702C536.368 445.297 536.849 440.957 536.482 436.982C536.167 433.589 534.91 427.531 530.018 425.091Z" fill="#B7B1FF"/>
<path d="M444.72 448.485C448.587 448.968 452.084 450.575 455.101 453.059C453.606 446.668 453.327 440.335 454.347 434.623C455.729 426.881 459.333 420.975 464.623 417.609C464.667 417.086 464.707 416.573 464.748 416.055C458.407 415.006 453.35 412.039 450.225 407.429C450.129 407.287 450.046 407.14 449.954 406.996C449.569 407.367 449.165 407.719 448.75 408.058C448.554 411.049 448.322 414.145 448.044 417.363C447.261 426.427 446.094 436.809 444.384 448.454C444.495 448.465 444.609 448.471 444.72 448.485Z" fill="#016332"/>
<path d="M481.878 528.446C478.758 530.481 475.52 532.19 472.246 533.554C464.772 560.962 458.499 590.986 454.428 623.371C453.869 627.821 457.091 631.874 461.624 632.423C461.969 632.464 462.309 632.485 462.648 632.485C466.764 632.485 470.329 629.471 470.846 625.359C475.824 585.755 484.171 549.771 493.969 517.94C490.628 521.828 486.533 525.404 481.878 528.446Z" fill="#016332"/>
<path d="M433.905 528.147C433.771 527.948 433.653 527.744 433.528 527.545C432.628 528.429 431.647 529.233 430.572 529.933C429.341 530.737 428.033 531.39 426.656 531.894C419.716 557.394 410.717 585.703 399.049 616.673C397.464 620.88 399.653 625.55 403.937 627.108C404.884 627.452 405.852 627.615 406.806 627.615C410.168 627.615 413.33 625.586 414.564 622.307C426.536 590.536 435.748 561.485 442.847 535.297C439.108 533.731 436.056 531.322 433.905 528.147Z" fill="#016332"/>
<path d="M525.593 414.353C528.783 414.353 531.784 415.043 534.51 416.403C534.696 416.495 534.873 416.602 535.054 416.699C536.284 414.307 537.501 411.974 538.698 409.726C544.193 399.407 549.57 390.078 554.654 381.732C554.355 380.899 554.102 380.055 553.926 379.195C553.769 379.263 553.616 379.339 553.456 379.403C551.204 380.304 548.798 380.761 546.302 380.761C543.251 380.761 540.172 380.093 537.164 378.845C533.019 385.839 528.711 393.445 524.318 401.677C521.921 406.168 519.454 410.945 516.944 415.977C519.837 414.922 522.749 414.353 525.593 414.353Z" fill="#016332"/>
<path d="M597.684 596.025V584.668C600.7 586.754 603.775 588.454 606.909 589.768C610.082 591.041 612.745 591.678 614.9 591.678C617.133 591.678 619.052 591.139 620.658 590.056C622.264 588.976 623.067 587.679 623.067 586.175C623.067 584.629 622.538 583.354 621.481 582.351C620.462 581.307 618.229 579.82 614.782 577.889C607.888 574.103 603.364 570.875 601.209 568.211C599.094 565.505 598.036 562.571 598.036 559.403C598.036 555.309 599.642 551.968 602.854 549.378C606.106 546.791 610.277 545.497 615.37 545.497C620.658 545.497 626.084 546.963 631.646 549.9V560.331C625.3 556.546 620.11 554.653 616.075 554.653C613.999 554.653 612.314 555.095 611.022 555.985C609.768 556.833 609.141 557.973 609.141 559.403C609.141 560.64 609.709 561.818 610.845 562.939C612.021 564.058 614.058 565.41 616.956 566.995L620.776 569.137C629.785 574.16 634.29 579.722 634.29 585.825C634.29 590.192 632.547 593.785 629.06 596.603C625.613 599.386 621.167 600.775 615.722 600.775C612.51 600.775 609.651 600.448 607.144 599.79C604.637 599.095 601.484 597.841 597.684 596.025ZM639.049 555L659.144 535.529V546.539H676.243V556.041H659.144V582.176C659.144 588.279 661.71 591.331 666.842 591.331C670.681 591.331 674.735 590.056 679.005 587.507V597.357C674.892 599.635 670.406 600.775 665.549 600.775C660.652 600.775 656.579 599.365 653.327 596.547C652.309 595.696 651.467 594.749 650.801 593.708C650.135 592.625 649.567 591.233 649.097 589.534C648.666 587.798 648.45 584.514 648.45 579.684V556.041H639.049V555ZM719.782 546.539H731.828L693.576 627.025H681.649L700.041 588.433L679.122 546.539H691.286L705.856 576.613L719.782 546.539ZM739.701 518.899H750.396V599.849H739.701V518.899ZM811.975 574.121H773.957C774.231 579.221 775.955 583.277 779.129 586.291C782.339 589.302 786.472 590.809 791.526 590.809C798.578 590.809 805.079 588.646 811.033 584.321V594.633C807.742 596.796 804.472 598.342 801.223 599.271C798.01 600.196 794.228 600.659 789.881 600.659C783.927 600.659 779.108 599.443 775.426 597.01C771.743 594.577 768.786 591.311 766.554 587.216C764.361 583.084 763.263 578.313 763.263 572.905C763.263 564.793 765.594 558.207 770.257 553.146C774.917 548.046 780.97 545.497 788.413 545.497C795.579 545.497 801.301 547.969 805.57 552.914C809.839 557.857 811.975 564.482 811.975 572.789V574.121ZM774.192 567.805H801.397C801.123 563.595 799.851 560.349 797.579 558.071C795.305 555.792 792.251 554.653 788.413 554.653C784.574 554.653 781.418 555.792 778.951 558.071C776.524 560.349 774.938 563.595 774.192 567.805Z" fill="white"/>
<path d="M648.376 493.045H592.791V331.146H635.802C649.355 331.146 659.932 332.962 667.531 336.593C675.13 340.147 680.928 345.092 684.923 351.427C688.918 357.685 690.916 364.948 690.916 373.215C690.916 389.13 682.573 400.526 665.886 407.402C677.873 409.643 687.391 414.51 694.441 422.005C701.571 429.499 705.136 438.461 705.136 448.891C705.136 457.158 702.982 464.536 698.674 471.026C694.363 477.516 688.018 482.809 679.635 486.903C671.331 490.998 660.911 493.045 648.376 493.045ZM636.507 351.775H616.294V400.449H631.924C644.459 400.449 653.351 398.093 658.6 393.379C663.927 388.667 666.591 382.563 666.591 375.069C666.591 359.54 656.563 351.775 636.507 351.775ZM638.27 421.078H616.294V472.417H639.445C652.293 472.417 660.989 471.451 665.533 469.52C670.156 467.511 673.838 464.421 676.58 460.248C679.4 456.077 680.811 451.595 680.811 446.805C680.811 441.861 679.322 437.341 676.345 433.246C673.446 429.151 669.294 426.099 663.888 424.091C658.483 422.082 649.943 421.078 638.27 421.078ZM777.173 386.195C793.625 386.195 807.296 391.448 818.186 401.956C829.076 412.386 834.522 425.52 834.522 441.358C834.522 456.733 828.998 469.52 817.951 479.718C806.905 489.839 793 494.9 776.234 494.9C760.016 494.9 746.463 489.762 735.572 479.486C724.682 469.133 719.24 456.231 719.24 440.779C719.24 425.172 724.721 412.193 735.69 401.84C746.736 391.41 760.563 386.195 777.173 386.195ZM775.999 405.2C765.735 405.2 757.314 408.523 750.732 415.167C744.152 421.811 740.861 430.271 740.861 440.547C740.861 450.745 744.23 459.09 750.966 465.579C757.705 471.992 766.363 475.198 776.938 475.198C787.437 475.198 796.014 471.953 802.675 465.463C809.411 458.896 812.78 450.514 812.78 440.315C812.78 430.194 809.293 421.811 802.323 415.167C795.349 408.523 786.574 405.2 775.999 405.2ZM879.648 386.426V399.985C889.205 389.555 900.057 384.34 912.199 384.34C918.938 384.34 925.204 386.079 931.001 389.555C936.798 392.955 941.188 397.668 944.163 403.694C947.22 409.643 948.748 419.107 948.748 432.087V493.045H927.358V432.319C927.358 421.425 925.673 413.661 922.307 409.025C918.938 404.312 913.297 401.956 905.382 401.956C895.276 401.956 886.699 406.939 879.648 416.905V493.045H857.789V386.426H879.648ZM1045.11 493.045V479.486C1040.56 484.354 1035.36 488.14 1029.48 490.844C1023.68 493.548 1017.88 494.9 1012.09 494.9C1005.27 494.9 998.964 493.239 993.167 489.916C987.448 486.517 983.101 481.959 980.122 476.241C977.225 470.447 975.775 460.866 975.775 447.5V386.426H997.162V447.269C997.162 458.472 998.769 466.313 1001.98 470.794C1005.27 475.198 1010.99 477.4 1019.14 477.4C1029.32 477.4 1037.98 472.494 1045.11 462.682V386.426H1066.5V493.045H1045.11ZM1091.29 485.397V462.682C1097.33 466.854 1103.48 470.254 1109.74 472.88C1116.09 475.43 1121.42 476.705 1125.73 476.705C1130.19 476.705 1134.03 475.623 1137.24 473.46C1140.46 471.297 1142.06 468.709 1142.06 465.695C1142.06 462.605 1141 460.055 1138.89 458.046C1136.85 455.961 1132.38 452.986 1125.49 449.123C1111.7 441.551 1102.65 435.1 1098.34 429.769C1094.11 424.361 1092 418.489 1092 412.154C1092 403.964 1095.21 397.281 1101.63 392.105C1108.14 386.928 1116.48 384.34 1126.66 384.34C1137.24 384.34 1148.09 387.276 1159.22 393.148V414.008C1146.53 406.437 1136.14 402.651 1128.08 402.651C1123.92 402.651 1120.55 403.539 1117.97 405.316C1115.46 407.016 1114.21 409.295 1114.21 412.154C1114.21 414.626 1115.34 416.983 1117.62 419.223C1119.97 421.464 1124.04 424.168 1129.84 427.336L1137.48 431.624C1155.5 441.667 1164.5 452.793 1164.5 465C1164.5 473.73 1161.02 480.916 1154.05 486.556C1147.15 492.118 1138.26 494.9 1127.37 494.9C1120.95 494.9 1115.23 494.243 1110.21 492.929C1105.2 491.539 1098.89 489.028 1091.29 485.397Z" fill="white"/>
</svg>
