<svg width="518" height="524" viewBox="0 0 518 524" fill="none" xmlns="http://www.w3.org/2000/svg">
<g filter="url(#filter0_d)">
<path d="M252.5 514C391.952 514 505 400.952 505 261.5C505 122.048 391.952 9 252.5 9C113.048 9 0 122.048 0 261.5C0 400.952 113.048 514 252.5 514Z" fill="#424194"/>
<path d="M95.9606 183.684L78.751 170.467L191.508 24.2539L301.375 130.541L405.596 47.246L419.089 64.1803L299.998 159.453L193.849 56.7457L95.9606 183.684Z" fill="#CED5E0"/>
<path d="M442.631 390.75H374.756C373.104 390.75 371.865 389.511 371.865 387.859V141.83C371.865 140.178 373.104 138.938 374.756 138.938H442.631C444.283 138.938 445.522 140.178 445.522 141.83V387.859C445.522 389.373 444.283 390.75 442.631 390.75Z" fill="#54C0EB"/>
<path d="M334.692 390.75H266.817C265.165 390.75 263.926 389.511 263.926 387.859V214.11C263.926 212.458 265.165 211.219 266.817 211.219H334.692C336.344 211.219 337.584 212.458 337.584 214.11V387.859C337.446 389.373 336.207 390.75 334.692 390.75Z" fill="#54C0EB"/>
<path d="M226.616 390.75H158.741C157.089 390.75 155.85 389.511 155.85 387.859V126.135C155.85 124.482 157.089 123.243 158.741 123.243H226.616C228.268 123.243 229.507 124.482 229.507 126.135V387.859C229.507 389.373 228.268 390.75 226.616 390.75Z" fill="#54C0EB"/>
<path d="M118.678 390.75H50.8028C49.1507 390.75 47.9116 389.511 47.9116 387.859V258.855C47.9116 257.203 49.1507 255.964 50.8028 255.964H118.678C120.33 255.964 121.569 257.203 121.569 258.855V387.859C121.569 389.373 120.192 390.75 118.678 390.75Z" fill="#54C0EB"/>
<path d="M493.435 379.185H0V402.728H493.435V379.185Z" fill="#CED5E0"/>
<path d="M412.343 96.2586C434.698 96.2586 452.82 78.1364 452.82 55.7815C452.82 33.4267 434.698 15.3044 412.343 15.3044C389.988 15.3044 371.866 33.4267 371.866 55.7815C371.866 78.1364 389.988 96.2586 412.343 96.2586Z" fill="#E6E9EE"/>
<path d="M412.344 79.3248C425.346 79.3248 435.886 68.7844 435.886 55.782C435.886 42.7797 425.346 32.2393 412.344 32.2393C399.341 32.2393 388.801 42.7797 388.801 55.782C388.801 68.7844 399.341 79.3248 412.344 79.3248Z" fill="#FF7058"/>
<path d="M300.687 181.481C323.041 181.481 341.164 163.359 341.164 141.004C341.164 118.649 323.041 100.527 300.687 100.527C278.332 100.527 260.209 118.649 260.209 141.004C260.209 163.359 278.332 181.481 300.687 181.481Z" fill="#E6E9EE"/>
<path d="M300.687 164.547C313.689 164.547 324.23 154.006 324.23 141.004C324.23 128.001 313.689 117.461 300.687 117.461C287.685 117.461 277.144 128.001 277.144 141.004C277.144 154.006 287.685 164.547 300.687 164.547Z" fill="#FF7058"/>
<path d="M192.748 80.9768C215.103 80.9768 233.225 62.8546 233.225 40.4998C233.225 18.1449 215.103 0.0227051 192.748 0.0227051C170.393 0.0227051 152.271 18.1449 152.271 40.4998C152.271 62.8546 170.393 80.9768 192.748 80.9768Z" fill="#E6E9EE"/>
<path d="M192.748 64.0421C205.751 64.0421 216.291 53.5016 216.291 40.4993C216.291 27.497 205.751 16.9565 192.748 16.9565C179.746 16.9565 169.206 27.497 169.206 40.4993C169.206 53.5016 179.746 64.0421 192.748 64.0421Z" fill="#FF7058"/>
<path d="M84.6719 217.552C107.027 217.552 125.149 199.43 125.149 177.075C125.149 154.72 107.027 136.598 84.6719 136.598C62.317 136.598 44.1948 154.72 44.1948 177.075C44.1948 199.43 62.317 217.552 84.6719 217.552Z" fill="#E6E9EE"/>
<path d="M84.6722 200.618C97.6745 200.618 108.215 190.078 108.215 177.075C108.215 164.073 97.6745 153.532 84.6722 153.532C71.6699 153.532 61.1294 164.073 61.1294 177.075C61.1294 190.078 71.6699 200.618 84.6722 200.618Z" fill="#FF7058"/>
<path d="M43.3999 403.1C88.7999 470 165.5 514 252.5 514C339.5 514 416.2 470 461.6 403.1H43.3999Z" fill="#313068"/>
</g>
<defs>
<filter id="filter0_d" x="0" y="0.0227051" width="518" height="523.977" filterUnits="userSpaceOnUse" color-interpolation-filters="sRGB">
<feFlood flood-opacity="0" result="BackgroundImageFix"/>
<feColorMatrix in="SourceAlpha" type="matrix" values="0 0 0 0 0 0 0 0 0 0 0 0 0 0 0 0 0 0 127 0"/>
<feOffset dx="12" dy="9"/>
<feGaussianBlur stdDeviation="0.5"/>
<feColorMatrix type="matrix" values="0 0 0 0 0 0 0 0 0 0 0 0 0 0 0 0 0 0 0.07 0"/>
<feBlend mode="normal" in2="BackgroundImageFix" result="effect1_dropShadow"/>
<feBlend mode="normal" in="SourceGraphic" in2="effect1_dropShadow" result="shape"/>
</filter>
</defs>
</svg>
