<?xml version="1.0" encoding="iso-8859-1"?>
<!-- Generator: Adobe Illustrator 19.0.0, SVG Export Plug-In . SVG Version: 6.00 Build 0)  -->
<svg fill="white" width="100" height="100" version="1.1" id="Capa_1" xmlns="http://www.w3.org/2000/svg" xmlns:xlink="http://www.w3.org/1999/xlink" x="0px" y="0px"
	 viewBox="0 0 490 490" style="enable-background:new 0 0 490 490;" xml:space="preserve">
<g>
	<path d="M388.996,270.801V116.915h-34.632c0.151-2.358,0.359-4.701,0.359-7.096C354.722,49.265,305.502,0,245,0
		S135.278,49.265,135.278,109.819c0,2.395,0.207,4.738,0.359,7.096h-34.625V270.8C44.69,275.384,0.239,322.635,0.239,380.173
		C0.239,440.735,49.459,490,109.961,490s109.722-49.265,109.722-109.827c0-58.412-45.824-106.177-103.359-109.504V132.227h21.264
		c10.366,49.849,54.58,87.419,107.411,87.419s97.045-37.57,107.411-87.419h21.272v138.441
		c-57.533,3.324-103.359,51.09-103.359,109.504c0,60.562,49.22,109.827,109.715,109.827c60.502,0,109.722-49.265,109.722-109.827
		C489.761,322.637,445.314,275.388,388.996,270.801z M204.371,380.173c0,52.113-42.349,94.514-94.41,94.514
		s-94.41-42.401-94.41-94.514c0-52.113,42.349-94.514,94.41-94.514S204.371,328.06,204.371,380.173z M245,204.334
		c-52.061,0-94.41-42.401-94.41-94.514c0-52.113,42.349-94.507,94.41-94.507s94.41,42.394,94.41,94.507
		C339.41,161.933,297.061,204.334,245,204.334z M380.039,474.688c-52.053,0-94.402-42.401-94.402-94.514
		c0-52.113,42.349-94.514,94.402-94.514c52.061,0,94.41,42.401,94.41,94.514C474.448,432.286,432.1,474.688,380.039,474.688z"/>
	<ellipse cx="380.042" cy="339.976" rx="27.447" ry="27.474"/>
	<path d="M324.407,399.752c0,25.618,0,31.559,0,31.559s54.522,0,54.337,0l-26.52-57.548
		C352.224,373.763,324.407,374.134,324.407,399.752z"/>
	<path d="M407.86,373.763l-26.519,57.548c-0.186,0,54.337,0,54.337,0s0-5.94,0-31.559
		C435.677,374.134,407.86,373.763,407.86,373.763z"/>
	<polygon points="380.042,373.763 360.941,373.763 380.042,416.088 399.144,373.763 	"/>
	<ellipse cx="109.963" cy="339.977" rx="27.447" ry="27.474"/>
	<path d="M54.327,399.752c0,25.618,0,31.559,0,31.559s54.523,0,54.337,0l-26.519-57.548
		C82.145,373.763,54.327,374.134,54.327,399.752z"/>
	<path d="M165.598,431.31c0,0,0-5.94,0-31.559c0-25.618-27.818-25.989-27.818-25.989l-26.519,57.548
		C111.075,431.31,165.598,431.31,165.598,431.31z"/>
	<polygon points="109.963,373.763 90.861,373.763 109.963,416.088 129.064,373.763 	"/>
	<ellipse cx="245.002" cy="109.821" rx="17.822" ry="17.841"/>
	<path d="M288.952,84.119l14.024-17.158l-15.112-15.127l-17.828,14.602c-3.729-1.965-7.735-3.476-11.955-4.428l-2.347-23.497
		h-10.686h-0.09h-10.686l-2.348,23.497c-4.22,0.952-8.225,2.463-11.955,4.428L202.14,51.834l-15.112,15.127l14.024,17.158
		c-2.433,3.944-4.338,8.247-5.582,12.829l-21.752,2.177v21.394l21.783,2.18c1.252,4.567,3.132,8.875,5.561,12.812l-14.035,17.171
		l15.112,15.127l17.826-14.599c3.731,1.964,7.737,3.473,11.958,4.425l2.348,23.497h10.686h0.09h10.686l2.347-23.497
		c4.221-0.952,8.228-2.461,11.958-4.425l17.826,14.599l15.112-15.127l-14.035-17.171c2.429-3.937,4.309-8.245,5.561-12.812
		l21.783-2.18V99.125l-21.752-2.177C293.29,92.366,291.385,88.062,288.952,84.119z M245.002,142
		c-17.754,0-32.146-14.407-32.146-32.179c0-17.772,14.392-32.179,32.146-32.179c17.754,0,32.147,14.407,32.147,32.179
		C277.149,127.593,262.757,142,245.002,142z"/>
</g>
<g>
</g>
<g>
</g>
<g>
</g>
<g>
</g>
<g>
</g>
<g>
</g>
<g>
</g>
<g>
</g>
<g>
</g>
<g>
</g>
<g>
</g>
<g>
</g>
<g>
</g>
<g>
</g>
<g>
</g>
</svg>
