<svg width="503" height="522" viewBox="0 0 503 522" fill="none" xmlns="http://www.w3.org/2000/svg">
<g filter="url(#filter0_d)">
<path d="M245 512C380.31 512 490 402.31 490 267C490 131.69 380.31 22 245 22C109.69 22 0 131.69 0 267C0 402.31 109.69 512 245 512Z" fill="#424194"/>
<path d="M50.9141 416.511C95.7151 474.582 165.982 512 245 512C292.739 512 337.279 498.332 374.948 474.716V134.345H50.9141V416.511Z" fill="#D9EAFC"/>
<path d="M70.7561 134.345H50.9141V416.511C57.0581 424.475 63.6971 432.035 70.7561 439.179V134.345Z" fill="#C3DDF4"/>
<path d="M374.944 35.9021H50.9141V135.342H374.944V35.9021Z" fill="#02AF8E"/>
<path d="M70.7561 35.9021H50.9141V135.342H70.7561V35.9021Z" fill="#0F9390"/>
<path d="M365.391 0H60.4721C55.2151 0 50.9141 4.301 50.9141 9.558V36.902H374.948V9.558C374.948 4.301 370.647 0 365.391 0Z" fill="#1A2B63"/>
<path d="M336.98 295.832C336.98 297.797 335.372 299.405 333.408 299.405H190.505C188.54 299.405 186.933 297.797 186.933 295.832V200.088C186.933 198.123 188.54 196.515 190.505 196.515H333.408C335.373 196.515 336.98 198.122 336.98 200.088V295.832Z" fill="#52BBEF"/>
<path d="M206.775 295.832V200.088C206.775 198.123 208.382 196.515 210.347 196.515H190.505C188.54 196.515 186.933 198.122 186.933 200.088V295.832C186.933 297.797 188.54 299.405 190.505 299.405H210.347C208.382 299.404 206.775 297.796 206.775 295.832Z" fill="#1E99D6"/>
<path d="M302.711 252.456C301.444 250.954 299.372 250.954 298.106 252.456L279.533 274.492C278.266 275.994 276.195 275.994 274.929 274.492L239.87 232.901C238.603 231.399 236.532 231.399 235.266 232.901L186.934 290.24V295.831C186.934 297.796 188.541 299.404 190.506 299.404H333.409C335.374 299.404 336.981 297.796 336.981 295.831V293.111L302.711 252.456Z" fill="#02AF8E"/>
<path d="M315.33 227.298C321.249 227.298 326.048 222.499 326.048 216.58C326.048 210.661 321.249 205.862 315.33 205.862C309.41 205.862 304.612 210.661 304.612 216.58C304.612 222.499 309.41 227.298 315.33 227.298Z" fill="#FFD00D"/>
<path d="M331.984 329.464H194.797C190.655 329.464 187.297 326.106 187.297 321.964C187.297 317.822 190.655 314.464 194.797 314.464H331.985C336.127 314.464 339.485 317.822 339.485 321.964C339.485 326.106 336.126 329.464 331.984 329.464Z" fill="#1E99D6"/>
<path d="M331.984 355.098H194.797C190.655 355.098 187.297 351.74 187.297 347.598C187.297 343.456 190.655 340.098 194.797 340.098H331.985C336.127 340.098 339.485 343.456 339.485 347.598C339.484 351.74 336.126 355.098 331.984 355.098Z" fill="#1E99D6"/>
<path d="M331.984 380.732H194.797C190.655 380.732 187.297 377.374 187.297 373.232C187.297 369.09 190.655 365.732 194.797 365.732H331.985C336.127 365.732 339.485 369.09 339.485 373.232C339.484 377.375 336.126 380.732 331.984 380.732Z" fill="#1E99D6"/>
<path d="M331.984 406.367H194.797C190.655 406.367 187.297 403.009 187.297 398.867C187.297 394.725 190.655 391.367 194.797 391.367H331.985C336.127 391.367 339.485 394.725 339.485 398.867C339.485 403.009 336.126 406.367 331.984 406.367Z" fill="#1E99D6"/>
<path d="M263.665 432.001H194.797C190.655 432.001 187.297 428.643 187.297 424.501C187.297 420.359 190.655 417.001 194.797 417.001H263.665C267.807 417.001 271.165 420.359 271.165 424.501C271.165 428.643 267.807 432.001 263.665 432.001Z" fill="#1E99D6"/>
<path d="M263.665 184.001H194.797C190.655 184.001 187.297 180.643 187.297 176.501C187.297 172.359 190.655 169.001 194.797 169.001H263.665C267.807 169.001 271.165 172.359 271.165 176.501C271.165 180.643 267.807 184.001 263.665 184.001Z" fill="#1E99D6"/>
<path d="M86.709 379.863C86.709 377.113 88.959 374.863 91.709 374.863H158.17C160.92 374.863 163.17 377.113 163.17 379.863V426.669C163.17 429.419 160.92 431.669 158.17 431.669H91.709C88.959 431.669 86.709 429.419 86.709 426.669V379.863Z" fill="#EEF6FF"/>
<path d="M86.709 311.824C86.709 309.074 88.959 306.824 91.709 306.824H158.17C160.92 306.824 163.17 309.074 163.17 311.824V358.63C163.17 361.38 160.92 363.63 158.17 363.63H91.709C88.959 363.63 86.709 361.38 86.709 358.63V311.824Z" fill="#EEF6FF"/>
<path d="M86.709 243.785C86.709 241.035 88.959 238.785 91.709 238.785H158.17C160.92 238.785 163.17 241.035 163.17 243.785V290.591C163.17 293.341 160.92 295.591 158.17 295.591H91.709C88.959 295.591 86.709 293.341 86.709 290.591V243.785Z" fill="#FFDD8D"/>
<path d="M86.709 175.746C86.709 172.996 88.959 170.746 91.709 170.746H158.17C160.92 170.746 163.17 172.996 163.17 175.746V222.552C163.17 225.302 160.92 227.552 158.17 227.552H91.709C88.959 227.552 86.709 225.302 86.709 222.552V175.746Z" fill="#FFDD8D"/>
<path d="M106.551 426.669V379.863C106.551 377.113 108.801 374.863 111.551 374.863H91.709C88.959 374.863 86.709 377.113 86.709 379.863V426.669C86.709 429.419 88.959 431.669 91.709 431.669H111.551C108.801 431.669 106.551 429.419 106.551 426.669Z" fill="#C3DDF4"/>
<path d="M106.551 358.63V311.824C106.551 309.074 108.801 306.824 111.551 306.824H91.709C88.959 306.824 86.709 309.074 86.709 311.824V358.63C86.709 361.38 88.959 363.63 91.709 363.63H111.551C108.801 363.63 106.551 361.38 106.551 358.63Z" fill="#C3DDF4"/>
<path d="M106.551 290.591V243.785C106.551 241.035 108.801 238.785 111.551 238.785H91.709C88.959 238.785 86.709 241.035 86.709 243.785V290.591C86.709 293.341 88.959 295.591 91.709 295.591H111.551C108.801 295.591 106.551 293.341 106.551 290.591Z" fill="#FF9F60"/>
<path d="M106.551 222.552V175.746C106.551 172.996 108.801 170.746 111.551 170.746H91.709C88.959 170.746 86.709 172.996 86.709 175.746V222.552C86.709 225.302 88.959 227.552 91.709 227.552H111.551C108.801 227.552 106.551 225.302 106.551 222.552Z" fill="#FF9F60"/>
<path d="M297.966 105.576H127.896C123.754 105.576 120.396 102.218 120.396 98.0759C120.396 93.9339 123.754 90.5759 127.896 90.5759H297.966C302.108 90.5759 305.466 93.9339 305.466 98.0759C305.466 102.218 302.108 105.576 297.966 105.576Z" fill="white"/>
<path d="M255.189 77.345H170.673C166.531 77.345 163.173 73.987 163.173 69.845C163.173 65.703 166.531 62.345 170.673 62.345H255.189C259.331 62.345 262.689 65.703 262.689 69.845C262.689 73.987 259.331 77.345 255.189 77.345Z" fill="white"/>
<path d="M73.8509 26.1511C71.8059 26.1511 69.8139 25.3241 68.3689 23.8891C66.9329 22.4441 66.1079 20.4511 66.1079 18.4071C66.1079 16.3721 66.9329 14.3801 68.3689 12.9351C69.8139 11.4891 71.8069 10.6641 73.8509 10.6641C75.8839 10.6641 77.8869 11.4901 79.3219 12.9351C80.7679 14.3801 81.5939 16.3721 81.5939 18.4071C81.5939 20.4511 80.7679 22.4431 79.3219 23.8891C77.8869 25.3241 75.8839 26.1511 73.8509 26.1511Z" fill="#FE3745"/>
<path d="M99.242 26.151C97.208 26.151 95.205 25.324 93.769 23.879C92.325 22.444 91.498 20.452 91.498 18.408C91.498 16.373 92.324 14.381 93.769 12.936C95.215 11.49 97.207 10.665 99.242 10.665C101.286 10.665 103.278 11.491 104.724 12.936C106.159 14.381 106.985 16.373 106.985 18.408C106.985 20.442 106.159 22.444 104.724 23.879C103.278 25.324 101.286 26.151 99.242 26.151Z" fill="#FFD00D"/>
<path d="M124.645 26.1511C122.601 26.1511 120.608 25.3241 119.173 23.8891C117.728 22.4441 116.902 20.4511 116.902 18.4071C116.902 16.3721 117.728 14.3801 119.173 12.9351C120.608 11.4891 122.601 10.6641 124.645 10.6641C126.679 10.6641 128.682 11.4901 130.117 12.9351C131.562 14.3801 132.388 16.3721 132.388 18.4071C132.388 20.4511 131.562 22.4431 130.117 23.8891C128.671 25.3241 126.679 26.1511 124.645 26.1511Z" fill="#37C47A"/>
<path d="M393.248 382.582C393.248 393.933 402.535 403.22 413.886 403.22H415.95C427.301 403.22 436.588 393.932 436.588 382.582V369.169H393.248V382.582Z" fill="#F87EAB"/>
<path d="M434.335 50.9041L417.172 15.5581C415.933 13.0051 413.904 13.0051 412.665 15.5581L395.502 50.9041C394.263 53.4561 393.248 57.8671 393.248 60.7051V70.4271H436.588V60.7051C436.588 57.8671 435.575 53.4561 434.335 50.9041Z" fill="#FFE2B8"/>
<path d="M436.59 69.3999H393.25V370.21H436.59V69.3999Z" fill="#FFAF10"/>
<path d="M413.092 69.3999H393.25V370.21H413.092V69.3999Z" fill="#FF9518"/>
<path d="M412.665 15.5581L403.06 35.3371H426.776L417.172 15.5581C415.933 13.0041 413.905 13.0041 412.665 15.5581Z" fill="#293D7C"/>
</g>
<defs>
<filter id="filter0_d" x="0" y="0" width="503" height="522" filterUnits="userSpaceOnUse" color-interpolation-filters="sRGB">
<feFlood flood-opacity="0" result="BackgroundImageFix"/>
<feColorMatrix in="SourceAlpha" type="matrix" values="0 0 0 0 0 0 0 0 0 0 0 0 0 0 0 0 0 0 127 0"/>
<feOffset dx="12" dy="9"/>
<feGaussianBlur stdDeviation="0.5"/>
<feColorMatrix type="matrix" values="0 0 0 0 0 0 0 0 0 0 0 0 0 0 0 0 0 0 0.07 0"/>
<feBlend mode="normal" in2="BackgroundImageFix" result="effect1_dropShadow"/>
<feBlend mode="normal" in="SourceGraphic" in2="effect1_dropShadow" result="shape"/>
</filter>
</defs>
</svg>
