<svg width="38" height="38.4" viewBox="0 0 294 294" fill="none" xmlns="http://www.w3.org/2000/svg">
<path d="M147 294C228.186 294 294 228.186 294 147C294 65.8141 228.186 0 147 0C65.8141 0 0 65.8141 0 147C0 228.186 65.8141 294 147 294Z" fill="url(#paint0_linear)"/>
<path d="M185.292 54H109.707C78.99 54 54 78.99 54 109.707V185.292C54 216.008 78.99 241 109.708 241H185.293C216.009 241 241.001 216.009 241.001 185.292V109.707C241 78.99 216.009 54 185.292 54ZM222.188 185.293C222.188 205.669 205.669 222.188 185.293 222.188H109.708C89.3314 222.188 72.8127 205.669 72.8127 185.293V109.708C72.8127 89.3314 89.3314 72.812 109.708 72.812H185.293C205.669 72.812 222.188 89.3321 222.188 109.708V185.293Z" fill="white"/>
<path d="M147.499 99.1343C120.831 99.1343 99.1338 120.832 99.1338 147.5C99.1338 174.166 120.831 195.864 147.499 195.864C174.168 195.864 195.863 174.168 195.863 147.5C195.863 120.832 174.168 99.1343 147.499 99.1343ZM147.499 177.052C131.178 177.052 117.946 163.822 117.946 147.5C117.946 131.178 131.178 117.946 147.499 117.946C163.821 117.946 177.051 131.177 177.051 147.5C177.051 163.821 163.821 177.052 147.499 177.052Z" fill="white"/>
<defs>
<linearGradient id="paint0_linear" x1="239" y1="30.5" x2="72.5" y2="277.5" gradientUnits="userSpaceOnUse">
<stop stop-color="#A028AA"/>
<stop offset="0.546961" stop-color="#F34236"/>
<stop offset="1" stop-color="#FEB60B"/>
</linearGradient>
</defs>
</svg>
