<svg width="506" height="522" viewBox="0 0 506 522" fill="none" xmlns="http://www.w3.org/2000/svg">
<g filter="url(#filter0_d)">
<path d="M247.12 512C382.43 512 492.12 402.31 492.12 267C492.12 131.69 382.43 22 247.12 22C111.81 22 2.12012 131.69 2.12012 267C2.12012 402.31 111.81 512 247.12 512Z" fill="#424194"/>
<path d="M246.92 388.5H152.57V429.086H246.92V388.5Z" fill="#445EA0"/>
<path d="M291.039 449.3C291.039 452.05 288.789 454.3 286.039 454.3H113.446C110.696 454.3 108.446 452.05 108.446 449.3V433.091C108.446 430.341 110.696 428.091 113.446 428.091H286.04C288.79 428.091 291.04 430.341 291.04 433.091L291.039 449.3Z" fill="#293D7C"/>
<path d="M128.288 449.3V433.091C128.288 430.341 130.538 428.091 133.288 428.091H113.446C110.696 428.091 108.446 430.341 108.446 433.091V449.3C108.446 452.05 110.696 454.3 113.446 454.3H133.288C130.538 454.3 128.288 452.05 128.288 449.3Z" fill="#1A2B63"/>
<path d="M340.987 330.888H0V379.505C0 385.005 4.5 389.505 10 389.505H340.986V330.888H340.987Z" fill="#293D7C"/>
<path d="M19.843 379.505V330.888H0V379.505C0 385.005 4.5 389.505 10 389.505H29.842C24.343 389.505 19.843 385.005 19.843 379.505Z" fill="#1A2B63"/>
<path d="M389.882 105.259H349.906V214.514C344.726 214.534 340.517 218.766 340.517 223.968V312.681H47.467V105.259H9.603C4.322 105.259 0 109.579 0 114.861V331.888H340.986V223.968C340.986 218.754 345.228 214.512 350.442 214.512H399.483V114.86C399.484 109.579 395.163 105.259 389.882 105.259Z" fill="#445EA0"/>
<path d="M47.467 124.464H24.207C21.457 124.464 19.207 126.714 19.207 129.464V307.681C19.207 310.431 21.457 312.681 24.207 312.681H47.468L47.467 124.464Z" fill="#293D7C"/>
<path d="M375.279 124.464H349.907V214.539C350.086 214.529 350.262 214.512 350.443 214.512H380.279V129.464C380.279 126.714 378.029 124.464 375.279 124.464Z" fill="#293D7C"/>
<path d="M39.049 307.681V129.464C39.049 126.714 41.299 124.464 44.049 124.464H24.207C21.457 124.464 19.207 126.714 19.207 129.464V307.681C19.207 310.431 21.457 312.681 24.207 312.681H44.049C41.299 312.681 39.049 310.431 39.049 307.681Z" fill="#1A2B63"/>
<path d="M199.74 373.163C206.452 373.163 211.893 367.722 211.893 361.01C211.893 354.298 206.452 348.857 199.74 348.857C193.028 348.857 187.587 354.298 187.587 361.01C187.587 367.722 193.028 373.163 199.74 373.163Z" fill="#445EA0"/>
<path d="M157.257 65.513C157.257 63.066 159.261 61.062 161.71 61.062H276.517V5.266C276.517 2.369 274.148 0 271.252 0H52.2318C49.3358 0 46.9668 2.369 46.9668 5.266V312.681H157.257V65.513Z" fill="#C3DDF4"/>
<path d="M72.0738 0H52.2318C49.3358 0 46.9668 2.369 46.9668 5.266V312.681H66.8098V5.266C66.8098 2.369 69.1788 0 72.0738 0Z" fill="#AEC1ED"/>
<path d="M340.987 223.968C340.987 218.766 345.21 214.533 350.407 214.514V64.513C350.407 62.066 348.403 60.062 345.955 60.062H160.71C158.261 60.062 156.257 62.066 156.257 64.513V312.681H340.986V223.968H340.987Z" fill="white"/>
<path d="M180.553 60.062H160.71C158.261 60.062 156.257 62.066 156.257 64.513V312.681H176.099V64.513C176.1 62.065 178.104 60.062 180.553 60.062Z" fill="#D9EAFC"/>
<path d="M198.877 160.439C196.715 160.439 194.658 159.506 193.234 157.879L181.235 144.172C178.506 141.055 178.821 136.317 181.938 133.588C185.053 130.86 189.792 131.175 192.521 134.291L198.877 141.552L208.983 130.007C211.711 126.89 216.449 126.575 219.566 129.304C222.683 132.033 222.998 136.771 220.269 139.888L204.52 157.879C203.097 159.505 201.04 160.439 198.877 160.439Z" fill="#0F9390"/>
<path d="M319.787 141.591H239.46C235.318 141.591 231.96 138.234 231.96 134.091C231.96 129.948 235.318 126.591 239.46 126.591H319.787C323.929 126.591 327.287 129.948 327.287 134.091C327.287 138.233 323.929 141.591 319.787 141.591Z" fill="#52BBEF"/>
<path d="M319.787 162.153H239.46C235.318 162.153 231.96 158.796 231.96 154.653C231.96 150.51 235.318 147.153 239.46 147.153H319.787C323.929 147.153 327.287 150.51 327.287 154.653C327.287 158.796 323.929 162.153 319.787 162.153Z" fill="#52BBEF"/>
<path d="M198.877 222.124C196.715 222.124 194.658 221.191 193.234 219.565L181.235 205.859C178.506 202.742 178.821 198.004 181.938 195.276C185.055 192.547 189.793 192.863 192.521 195.978L198.877 203.239L208.983 191.694C211.711 188.578 216.449 188.263 219.566 190.991C222.683 193.72 222.998 198.458 220.269 201.575L204.52 219.565C203.097 221.191 201.04 222.124 198.877 222.124Z" fill="#0F9390"/>
<path d="M319.787 203.276H239.46C235.318 203.276 231.96 199.919 231.96 195.776C231.96 191.633 235.318 188.276 239.46 188.276H319.787C323.929 188.276 327.287 191.633 327.287 195.776C327.287 199.919 323.929 203.276 319.787 203.276Z" fill="#52BBEF"/>
<path d="M319.787 223.839H239.46C235.318 223.839 231.96 220.482 231.96 216.339C231.96 212.196 235.318 208.839 239.46 208.839H319.787C323.929 208.839 327.287 212.196 327.287 216.339C327.287 220.481 323.929 223.839 319.787 223.839Z" fill="#52BBEF"/>
<path d="M198.877 283.81C196.715 283.81 194.658 282.876 193.234 281.25L181.235 267.543C178.506 264.426 178.821 259.688 181.938 256.959C185.053 254.231 189.792 254.547 192.521 257.662L198.877 264.923L208.983 253.379C211.711 250.262 216.449 249.948 219.566 252.676C222.683 255.405 222.998 260.143 220.269 263.26L204.52 281.25C203.097 282.876 201.04 283.81 198.877 283.81Z" fill="#0F9390"/>
<path d="M319.787 264.962H239.46C235.318 264.962 231.96 261.605 231.96 257.462C231.96 253.319 235.318 249.962 239.46 249.962H319.787C323.929 249.962 327.287 253.319 327.287 257.462C327.287 261.604 323.929 264.962 319.787 264.962Z" fill="#52BBEF"/>
<path d="M290.26 285.524H239.459C235.317 285.524 231.959 282.167 231.959 278.024C231.959 273.881 235.317 270.524 239.459 270.524H290.26C294.402 270.524 297.76 273.881 297.76 278.024C297.76 282.167 294.402 285.524 290.26 285.524Z" fill="#52BBEF"/>
<path d="M134.603 77.8599H76.082C71.94 77.8599 68.582 74.5029 68.582 70.3599C68.582 66.2169 71.94 62.8599 76.082 62.8599H134.604C138.746 62.8599 142.104 66.2169 142.104 70.3599C142.103 74.5029 138.745 77.8599 134.603 77.8599Z" fill="#445EA0"/>
<path d="M134.603 98.7026H76.082C71.94 98.7026 68.582 95.3456 68.582 91.2026C68.582 87.0596 71.94 83.7026 76.082 83.7026H134.604C138.746 83.7026 142.104 87.0596 142.104 91.2026C142.104 95.3456 138.745 98.7026 134.603 98.7026Z" fill="#445EA0"/>
<path d="M134.603 119.546H76.082C71.94 119.546 68.582 116.189 68.582 112.046C68.582 107.903 71.94 104.546 76.082 104.546H134.604C138.746 104.546 142.104 107.903 142.104 112.046C142.104 116.189 138.745 119.546 134.603 119.546Z" fill="#445EA0"/>
<path d="M134.603 159.038H76.082C71.94 159.038 68.582 155.681 68.582 151.538C68.582 147.395 71.94 144.038 76.082 144.038H134.604C138.746 144.038 142.104 147.395 142.104 151.538C142.103 155.681 138.745 159.038 134.603 159.038Z" fill="#445EA0"/>
<path d="M134.603 179.882H76.082C71.94 179.882 68.582 176.525 68.582 172.382C68.582 168.239 71.94 164.882 76.082 164.882H134.604C138.746 164.882 142.104 168.239 142.104 172.382C142.103 176.524 138.745 179.882 134.603 179.882Z" fill="#445EA0"/>
<path d="M134.603 200.726H76.082C71.94 200.726 68.582 197.369 68.582 193.226C68.582 189.083 71.94 185.726 76.082 185.726H134.604C138.746 185.726 142.104 189.083 142.104 193.226C142.103 197.368 138.745 200.726 134.603 200.726Z" fill="#445EA0"/>
<path d="M134.603 240.218H76.082C71.94 240.218 68.582 236.861 68.582 232.718C68.582 228.575 71.94 225.218 76.082 225.218H134.604C138.746 225.218 142.104 228.575 142.104 232.718C142.103 236.86 138.745 240.218 134.603 240.218Z" fill="#445EA0"/>
<path d="M134.603 261.06H76.082C71.94 261.06 68.582 257.703 68.582 253.56C68.582 249.417 71.94 246.06 76.082 246.06H134.604C138.746 246.06 142.104 249.417 142.104 253.56C142.103 257.703 138.745 261.06 134.603 261.06Z" fill="#445EA0"/>
<path d="M134.603 281.903H76.082C71.94 281.903 68.582 278.546 68.582 274.403C68.582 270.26 71.94 266.903 76.082 266.903H134.604C138.746 266.903 142.104 270.26 142.104 274.403C142.103 278.546 138.745 281.903 134.603 281.903Z" fill="#445EA0"/>
<path d="M293.758 97.499H212.905C208.763 97.499 205.405 94.142 205.405 89.999C205.405 85.856 208.763 82.499 212.905 82.499H293.758C297.9 82.499 301.258 85.856 301.258 89.999C301.258 94.142 297.9 97.499 293.758 97.499Z" fill="#445EA0"/>
<path d="M464.928 443.844C464.928 449.595 460.223 454.3 454.472 454.3H350.443C344.692 454.3 339.987 449.595 339.987 443.844V223.968C339.987 218.217 344.692 213.512 350.443 213.512H454.472C460.223 213.512 464.928 218.217 464.928 223.968V443.844Z" fill="#AEC1ED"/>
<path d="M359.829 443.844V223.968C359.829 218.217 364.534 213.512 370.285 213.512H350.443C344.692 213.512 339.987 218.217 339.987 223.968V443.844C339.987 449.595 344.692 454.3 350.443 454.3H370.285C364.534 454.3 359.829 449.595 359.829 443.844Z" fill="#85A0DD"/>
<path d="M381.545 413.15V424.936C381.545 427.686 383.795 429.936 386.545 429.936H418.369C421.119 429.936 423.369 427.686 423.369 424.936V413.15H381.545Z" fill="#445EA0"/>
<path d="M464.93 247.39H339.99V414.15H464.93V247.39Z" fill="#91E0E8"/>
<path d="M359.832 247.39H339.99V414.15H359.832V247.39Z" fill="#5DC1D8"/>
<path d="M420.232 237.729H384.682C380.54 237.729 377.182 234.372 377.182 230.229C377.182 226.086 380.54 222.729 384.682 222.729H420.232C424.374 222.729 427.732 226.086 427.732 230.229C427.732 234.372 424.374 237.729 420.232 237.729Z" fill="#445EA0"/>
<path d="M449.069 302.603C449.069 305.353 446.819 307.603 444.069 307.603H361.011C358.261 307.603 356.011 305.353 356.011 302.603V267.645C356.011 264.895 358.261 262.645 361.011 262.645H444.069C446.819 262.645 449.069 264.895 449.069 267.645V302.603Z" fill="#EEF6FF"/>
<path d="M424.874 332.336H363.686C359.544 332.336 356.186 328.979 356.186 324.836C356.186 320.693 359.544 317.336 363.686 317.336H424.874C429.016 317.336 432.374 320.693 432.374 324.836C432.374 328.978 429.016 332.336 424.874 332.336Z" fill="#EEF6FF"/>
<path d="M424.874 354.451H363.686C359.544 354.451 356.186 351.094 356.186 346.951C356.186 342.808 359.544 339.451 363.686 339.451H424.874C429.016 339.451 432.374 342.808 432.374 346.951C432.374 351.094 429.016 354.451 424.874 354.451Z" fill="#EEF6FF"/>
<path d="M424.874 376.565H363.686C359.544 376.565 356.186 373.208 356.186 369.065C356.186 364.923 359.544 361.565 363.686 361.565H424.874C429.016 361.565 432.374 364.923 432.374 369.065C432.374 373.208 429.016 376.565 424.874 376.565Z" fill="#EEF6FF"/>
<path d="M375.854 302.603V267.645C375.854 264.895 378.104 262.645 380.854 262.645H361.012C358.262 262.645 356.012 264.895 356.012 267.645V302.603C356.012 305.353 358.262 307.603 361.012 307.603H380.854C378.104 307.603 375.854 305.353 375.854 302.603Z" fill="#D9EAFC"/>
<path d="M376.028 324.836C376.028 320.693 379.386 317.336 383.528 317.336H363.686C359.544 317.336 356.186 320.693 356.186 324.836C356.186 328.979 359.544 332.336 363.686 332.336H383.528C379.386 332.336 376.028 328.978 376.028 324.836Z" fill="#D9EAFC"/>
<path d="M376.028 346.951C376.028 342.808 379.386 339.451 383.528 339.451H363.686C359.544 339.451 356.186 342.808 356.186 346.951C356.186 351.094 359.544 354.451 363.686 354.451H383.528C379.386 354.451 376.028 351.094 376.028 346.951Z" fill="#D9EAFC"/>
<path d="M376.028 369.065C376.028 364.923 379.386 361.565 383.528 361.565H363.686C359.544 361.565 356.186 364.923 356.186 369.065C356.186 373.208 359.544 376.565 363.686 376.565H383.528C379.386 376.565 376.028 373.208 376.028 369.065Z" fill="#D9EAFC"/>
<path d="M259.12 41C259.12 43.75 256.87 46 254.12 46H73.1201C70.3701 46 68.1201 43.75 68.1201 41V27C68.1201 24.25 70.3701 22 73.1201 22H254.12C256.87 22 259.12 24.25 259.12 27V41Z" fill="white"/>
</g>
<defs>
<filter id="filter0_d" x="0" y="0" width="505.12" height="522" filterUnits="userSpaceOnUse" color-interpolation-filters="sRGB">
<feFlood flood-opacity="0" result="BackgroundImageFix"/>
<feColorMatrix in="SourceAlpha" type="matrix" values="0 0 0 0 0 0 0 0 0 0 0 0 0 0 0 0 0 0 127 0"/>
<feOffset dx="12" dy="9"/>
<feGaussianBlur stdDeviation="0.5"/>
<feColorMatrix type="matrix" values="0 0 0 0 0 0 0 0 0 0 0 0 0 0 0 0 0 0 0.07 0"/>
<feBlend mode="normal" in2="BackgroundImageFix" result="effect1_dropShadow"/>
<feBlend mode="normal" in="SourceGraphic" in2="effect1_dropShadow" result="shape"/>
</filter>
</defs>
</svg>
