<svg width="160" height="81.89" viewBox="0 0 106 37" fill="none" xmlns="http://www.w3.org/2000/svg">
<path d="M58.7515 8.72743C57.7484 8.03606 56.5468 7.69153 55.3298 7.74633C53.6433 7.74633 53.2379 8.18417 53.2379 8.66256C53.2379 9.14094 53.6919 9.28689 54.3649 9.36798L56.9595 9.66798C58.8001 9.8869 59.9434 10.6653 59.9434 12.2626C59.9434 14.2005 58.0542 15.0681 55.4676 15.0681C53.8626 15.1388 52.283 14.6486 51 13.6816L51.9162 12.1734C53.0064 12.9721 54.3272 13.3934 55.6784 13.3734C57.0487 13.3734 58.0542 13.0329 58.0542 12.295C58.0542 11.8248 57.8028 11.5896 57.0731 11.4842L54.1703 11.1842C52.4108 10.9815 51.3324 10.2923 51.3324 8.68688C51.3324 6.86253 53.1406 6.01928 55.346 6.01928C56.8991 5.94278 58.4319 6.39748 59.692 7.30849L58.7515 8.72743Z" fill="black"/>
<path d="M66.0485 15.0673C65.4282 15.1058 64.8066 15.0177 64.2214 14.8084C63.6362 14.599 63.0998 14.2728 62.6447 13.8496C62.1896 13.4263 61.8253 12.9149 61.5742 12.3464C61.323 11.778 61.1901 11.1643 61.1836 10.5429C61.313 9.35045 61.8782 8.24785 62.7709 7.44678C63.6636 6.64571 64.8207 6.20264 66.0201 6.20264C67.2196 6.20264 68.3767 6.64571 69.2694 7.44678C70.1621 8.24785 70.7273 9.35045 70.8567 10.5429C70.8498 11.1593 70.7186 11.7679 70.4709 12.3324C70.2232 12.8969 69.8642 13.4056 69.4153 13.8281C68.9663 14.2505 68.4367 14.578 67.8582 14.7909C67.2797 15.0039 66.6642 15.0978 66.0485 15.0673V15.0673ZM66.0485 13.397C66.4299 13.4189 66.8116 13.3606 67.169 13.2258C67.5264 13.0911 67.8516 12.8829 68.1236 12.6147C68.3956 12.3466 68.6083 12.0244 68.7481 11.6689C68.8879 11.3134 68.9516 10.9326 68.9351 10.551C68.9351 9.78542 68.6309 9.05122 68.0896 8.50989C67.5483 7.96856 66.8141 7.66445 66.0485 7.66445C65.283 7.66445 64.5488 7.96856 64.0074 8.50989C63.4661 9.05122 63.162 9.78542 63.162 10.551C63.1455 10.9326 63.2092 11.3134 63.349 11.6689C63.4887 12.0244 63.7015 12.3466 63.9735 12.6147C64.2455 12.8829 64.5707 13.0911 64.9281 13.2258C65.2855 13.3606 65.6672 13.4189 66.0485 13.397V13.397Z" fill="black"/>
<path d="M79.8497 9.19679C79.5374 8.7237 79.1065 8.34074 78.6 8.08609C78.0935 7.83143 77.5292 7.71397 76.9632 7.74541C76.584 7.71309 76.2023 7.76302 75.8443 7.89177C75.4862 8.02053 75.1601 8.22508 74.8884 8.49144C74.6166 8.7578 74.4056 9.0797 74.2697 9.43513C74.1338 9.79056 74.0762 10.1711 74.101 10.5509C74.0842 10.9275 74.147 11.3035 74.2853 11.6543C74.4236 12.005 74.6343 12.3227 74.9035 12.5867C75.1728 12.8506 75.4947 13.0548 75.8482 13.186C76.2016 13.3172 76.5788 13.3725 76.955 13.3482C77.5211 13.3796 78.0854 13.2622 78.5919 13.0075C79.0984 12.7529 79.5292 12.3699 79.8416 11.8968L81.3578 12.7725C80.915 13.5248 80.2718 14.1392 79.5001 14.5473C78.7284 14.9553 77.8585 15.1409 76.9875 15.0834C74.2226 15.0834 72.1631 13.3482 72.1631 10.559C72.1631 7.76974 74.2793 6.01025 76.9956 6.01025C77.8666 5.9527 78.7365 6.13829 79.5082 6.54634C80.2799 6.95438 80.9231 7.56882 81.3659 8.3211L79.8497 9.19679Z" fill="black"/>
<path d="M84.6904 6.21313V14.8484H82.7363V6.21313H84.6904Z" fill="black"/>
<path d="M92.8703 6.21313L96.5353 14.8484H94.4758L93.9001 13.5349H88.5811L88.0216 14.8484H85.9297L89.6919 6.21313H92.8703ZM89.3108 11.8321H93.146L91.5892 7.9483H90.9162L89.3108 11.8321Z" fill="black"/>
<path d="M99.7389 6.21313V13.0808H105.682V14.8484H97.793V6.21313H99.7389Z" fill="black"/>
<path d="M58.7119 23.1267C58.3968 22.6486 57.9607 22.2625 57.448 22.0076C56.9353 21.7527 56.3643 21.638 55.7929 21.6753C55.4152 21.6443 55.0351 21.695 54.6787 21.8238C54.3222 21.9527 53.9976 22.1567 53.7269 22.422C53.4562 22.6873 53.2457 23.0077 53.1097 23.3616C52.9738 23.7154 52.9155 24.0943 52.9388 24.4726C52.9233 24.8486 52.987 25.2237 53.1258 25.5735C53.2646 25.9233 53.4754 26.24 53.7446 26.503C54.0137 26.7661 54.3352 26.9695 54.6881 27.1003C55.0409 27.231 55.4174 27.2861 55.7929 27.2619C56.359 27.2933 56.9233 27.1758 57.4298 26.9212C57.9363 26.6665 58.3671 26.2836 58.6795 25.8105L60.1957 26.6862C59.7529 27.4385 59.1097 28.0529 58.338 28.4609C57.5663 28.869 56.6964 29.0546 55.8254 28.997C53.0605 28.997 51.001 27.2619 51.001 24.4726C51.001 21.6834 53.1091 19.9482 55.8254 19.9482C56.6964 19.8907 57.5663 20.0763 58.338 20.4843C59.1097 20.8924 59.7529 21.5068 60.1957 22.2591L58.7119 23.1267Z" fill="black"/>
<path d="M64.1113 20.1428V28.7781H62.1572V20.1428H64.1113Z" fill="black"/>
<path d="M71.3283 20.1429C71.7878 20.1138 72.2484 20.18 72.6811 20.3374C73.1139 20.4948 73.5094 20.7399 73.8429 21.0574C74.1764 21.3749 74.4406 21.7579 74.619 22.1824C74.7975 22.6068 74.8862 23.0636 74.8797 23.524C74.8977 24.1108 74.7507 24.6909 74.4554 25.1983C74.1601 25.7057 73.7284 26.1201 73.2094 26.3944L74.5392 28.7701H72.4148L71.4013 26.8484H68.158V28.7701H66.2363V20.1429H71.3283ZM68.1904 25.0727H71.2472C71.4634 25.1 71.683 25.0798 71.8906 25.0136C72.0983 24.9474 72.289 24.8367 72.4495 24.6893C72.61 24.5419 72.7365 24.3613 72.8201 24.1601C72.9037 23.9588 72.9425 23.7418 72.9337 23.524C72.9451 23.3025 72.9087 23.0811 72.8271 22.8748C72.7454 22.6685 72.6204 22.4822 72.4605 22.3284C72.3006 22.1746 72.1095 22.057 71.9002 21.9835C71.6908 21.91 71.4682 21.8824 71.2472 21.9024H68.1904V25.0727Z" fill="black"/>
<path d="M84.2361 23.1269C83.9238 22.6538 83.4929 22.2708 82.9864 22.0162C82.48 21.7615 81.9156 21.644 81.3496 21.6755C80.9718 21.6445 80.5918 21.6952 80.2353 21.824C79.8788 21.9529 79.5542 22.1569 79.2835 22.4222C79.0128 22.6875 78.8023 23.0079 78.6664 23.3618C78.5304 23.7156 78.4721 24.0945 78.4955 24.4728C78.4788 24.8495 78.5416 25.2255 78.6799 25.5762C78.8181 25.927 79.0288 26.2447 79.2981 26.5086C79.5673 26.7725 79.8892 26.9768 80.2427 27.108C80.5962 27.2392 80.9733 27.2945 81.3496 27.2702C81.9156 27.3016 82.48 27.1841 82.9864 26.9295C83.4929 26.6748 83.9238 26.2919 84.2361 25.8188L85.7523 26.6945C85.3095 27.4468 84.6664 28.0612 83.8947 28.4692C83.123 28.8773 82.2531 29.0629 81.382 29.0053C78.6171 29.0053 76.5576 27.2702 76.5576 24.4809C76.5576 21.6917 78.6658 19.9565 81.382 19.9565C82.2531 19.899 83.123 20.0846 83.8947 20.4926C84.6664 20.9007 85.3095 21.5151 85.7523 22.2674L84.2361 23.1269Z" fill="black"/>
<path d="M89.6357 20.1428V27.0105H95.5791V28.77H87.6816V20.1428H89.6357Z" fill="black"/>
<path d="M105.188 20.1428V21.9023H99.3014V23.524H104.596V25.2915H99.3014V27.0105H105.407V28.8024H97.3555V20.1428H105.188Z" fill="black"/>
<path d="M18.2861 9.58914C18.3723 10.3552 18.6735 11.0813 19.1549 11.6833C19.4888 12.0851 19.8711 12.4441 20.293 12.7522C21.8916 12.6392 23.6031 12.5784 25.4189 12.5784C32.0651 12.5784 38.7982 13.4473 43.0032 14.8985C43.4202 15.0414 43.877 15.0127 44.2729 14.8188C44.6688 14.6249 44.9715 14.2816 45.1143 13.8644C45.2572 13.4473 45.2285 12.9905 45.0346 12.5945C44.8408 12.1985 44.4975 11.8958 44.0805 11.7529C39.4933 10.1887 32.5169 9.25024 25.4276 9.25024C22.9776 9.25893 20.571 9.3719 18.2861 9.58914Z" fill="url(#paint0_linear)"/>
<path d="M18.2861 9.58914C18.3723 10.3552 18.6735 11.0813 19.1549 11.6833C19.4888 12.0851 19.8711 12.4441 20.293 12.7522C21.8916 12.6392 23.6031 12.5784 25.4189 12.5784C32.0651 12.5784 38.7982 13.4473 43.0032 14.8985C43.4202 15.0414 43.877 15.0127 44.2729 14.8188C44.6688 14.6249 44.9715 14.2816 45.1143 13.8644C45.2572 13.4473 45.2285 12.9905 45.0346 12.5945C44.8408 12.1985 44.4975 11.8958 44.0805 11.7529C39.4933 10.1887 32.5169 9.25024 25.4276 9.25024C22.9776 9.25893 20.571 9.3719 18.2861 9.58914Z" fill="url(#paint1_linear)"/>
<path d="M44.2561 21.8079C44.0603 21.7116 43.8474 21.6552 43.6297 21.6418C43.412 21.6283 43.1938 21.6582 42.9877 21.7296C38.7914 23.1634 32.0496 24.0498 25.4034 24.0498C11.1118 24.0498 3.31877 20.2785 3.31877 18.3407C3.31877 17.0285 6.87212 14.8648 13.5705 13.6396C13.0778 12.6318 12.7605 11.5475 12.6322 10.4331C11.11 10.7176 9.6047 11.086 8.12318 11.5367C1.40744 13.6222 0 16.3855 0 18.332C0 20.2785 1.40744 23.0505 8.12318 25.136C13.7459 26.7079 19.5659 27.4601 25.4034 27.3692C32.4927 27.3692 39.4691 26.4307 44.0563 24.8666C44.3691 24.7622 44.6438 24.567 44.8452 24.3058C45.0466 24.0446 45.1657 23.7292 45.1871 23.4001C45.2086 23.0709 45.1314 22.7428 44.9656 22.4577C44.7998 22.1725 44.5528 21.9433 44.2561 21.7992V21.8079Z" fill="url(#paint2_linear)"/>
<path d="M44.2561 21.8079C44.0603 21.7116 43.8474 21.6552 43.6297 21.6418C43.412 21.6283 43.1938 21.6582 42.9877 21.7296C38.7914 23.1634 32.0496 24.0498 25.4034 24.0498C11.1118 24.0498 3.31877 20.2785 3.31877 18.3407C3.31877 17.0285 6.87212 14.8648 13.5705 13.6396C13.0778 12.6318 12.7605 11.5475 12.6322 10.4331C11.11 10.7176 9.6047 11.086 8.12318 11.5367C1.40744 13.6222 0 16.3855 0 18.332C0 20.2785 1.40744 23.0505 8.12318 25.136C13.7459 26.7079 19.5659 27.4601 25.4034 27.3692C32.4927 27.3692 39.4691 26.4307 44.0563 24.8666C44.3691 24.7622 44.6438 24.567 44.8452 24.3058C45.0466 24.0446 45.1657 23.7292 45.1871 23.4001C45.2086 23.0709 45.1314 22.7428 44.9656 22.4577C44.7998 22.1725 44.5528 21.9433 44.2561 21.7992V21.8079Z" fill="url(#paint3_linear)"/>
<path d="M32.5882 28.1598C32.3582 29.4779 31.6303 30.657 30.5553 31.4532C29.0436 32.5916 26.8977 33.1911 24.161 33.1911C21.302 33.2187 18.485 32.5031 15.9857 31.1143L15.586 30.871L15.1343 30.619L14.7694 30.4192C14.5883 30.312 14.392 30.2329 14.1873 30.1845C13.8053 30.0958 13.4042 30.1483 13.0579 30.3323C12.858 30.4548 12.6887 30.6212 12.5626 30.8189C12.441 31.004 12.3596 31.2125 12.3237 31.4311C12.2878 31.6496 12.2981 31.8733 12.3541 32.0876C12.5366 32.7827 13.1621 33.4084 14.3263 34.0427C17.3177 35.6565 20.676 36.4678 24.0741 36.3976C27.8794 36.3976 30.8593 35.5287 32.9271 33.7907C33.8167 33.0491 34.5516 32.1393 35.0898 31.1135C35.6279 30.0877 35.9587 28.966 36.0634 27.8123C34.934 27.9252 33.7698 28.0556 32.5882 28.1598Z" fill="url(#paint4_linear)"/>
<path d="M32.5882 28.1598C32.3582 29.4779 31.6303 30.657 30.5553 31.4532C29.0436 32.5916 26.8977 33.1911 24.161 33.1911C21.302 33.2187 18.485 32.5031 15.9857 31.1143L15.586 30.871L15.1343 30.619L14.7694 30.4192C14.5883 30.312 14.392 30.2329 14.1873 30.1845C13.8053 30.0958 13.4042 30.1483 13.0579 30.3323C12.858 30.4548 12.6887 30.6212 12.5626 30.8189C12.441 31.004 12.3596 31.2125 12.3237 31.4311C12.2878 31.6496 12.2981 31.8733 12.3541 32.0876C12.5366 32.7827 13.1621 33.4084 14.3263 34.0427C17.3177 35.6565 20.676 36.4678 24.0741 36.3976C27.8794 36.3976 30.8593 35.5287 32.9271 33.7907C33.8167 33.0491 34.5516 32.1393 35.0898 31.1135C35.6279 30.0877 35.9587 28.966 36.0634 27.8123C34.934 27.9252 33.7698 28.0556 32.5882 28.1598Z" fill="url(#paint5_linear)"/>
<path d="M13.675 10.2852C13.8015 11.2748 14.0953 12.2357 14.5438 13.1267C14.7293 13.5023 14.9443 13.8626 15.1867 14.2043C16.1497 15.5977 17.4785 16.6982 19.0267 17.3847C20.4429 17.9929 21.998 18.6099 23.6661 19.2356L28.262 20.9735C29.3045 21.3583 30.2503 21.9663 31.0334 22.7549C32.4321 22.6506 33.8048 22.5029 35.108 22.3291C34.9301 21.9898 34.7268 21.6645 34.4999 21.3558C33.5118 19.9945 32.1767 18.9231 30.6338 18.2536C29.2263 17.6454 27.6625 17.0284 25.9944 16.4027L21.3985 14.6648C20.1697 14.2141 19.0818 13.4467 18.2448 12.4403C17.4121 11.4202 16.9769 10.1329 17.0198 8.81668C16.9946 8.0577 17.1445 7.3031 17.4578 6.6114C17.7712 5.91971 18.2397 5.30951 18.8269 4.82813C20.0693 3.77668 21.9632 3.23792 24.448 3.23792C26.8809 3.23775 29.2735 3.85994 31.3983 5.04537L32.1107 5.42771L32.6841 5.67971C32.9974 5.84007 33.3581 5.88177 33.6998 5.79714C34.0414 5.71251 34.341 5.50724 34.5433 5.21916L34.5867 5.14965C34.9777 4.49792 35.0559 3.47254 33.188 2.30813C30.5497 0.724877 27.515 -0.0738796 24.4393 0.005374C20.9641 0.005374 18.2535 0.874339 16.403 2.46454C15.4858 3.26429 14.757 4.25717 14.2688 5.37194C13.7807 6.48671 13.5452 7.69573 13.5794 8.91226C13.5804 9.36548 13.6095 9.81821 13.6663 10.2678L13.675 10.2852Z" fill="url(#paint6_linear)"/>
<path d="M13.675 10.2852C13.8015 11.2748 14.0953 12.2357 14.5438 13.1267C14.7293 13.5023 14.9443 13.8626 15.1867 14.2043C16.1497 15.5977 17.4785 16.6982 19.0267 17.3847C20.4429 17.9929 21.998 18.6099 23.6661 19.2356L28.262 20.9735C29.3045 21.3583 30.2503 21.9663 31.0334 22.7549C32.4321 22.6506 33.8048 22.5029 35.108 22.3291C34.9301 21.9898 34.7268 21.6645 34.4999 21.3558C33.5118 19.9945 32.1767 18.9231 30.6338 18.2536C29.2263 17.6454 27.6625 17.0284 25.9944 16.4027L21.3985 14.6648C20.1697 14.2141 19.0818 13.4467 18.2448 12.4403C17.4121 11.4202 16.9769 10.1329 17.0198 8.81668C16.9946 8.0577 17.1445 7.3031 17.4578 6.6114C17.7712 5.91971 18.2397 5.30951 18.8269 4.82813C20.0693 3.77668 21.9632 3.23792 24.448 3.23792C26.8809 3.23775 29.2735 3.85994 31.3983 5.04537L32.1107 5.42771L32.6841 5.67971C32.9974 5.84007 33.3581 5.88177 33.6998 5.79714C34.0414 5.71251 34.341 5.50724 34.5433 5.21916L34.5867 5.14965C34.9777 4.49792 35.0559 3.47254 33.188 2.30813C30.5497 0.724877 27.515 -0.0738796 24.4393 0.005374C20.9641 0.005374 18.2535 0.874339 16.403 2.46454C15.4858 3.26429 14.757 4.25717 14.2688 5.37194C13.7807 6.48671 13.5452 7.69573 13.5794 8.91226C13.5804 9.36548 13.6095 9.81821 13.6663 10.2678L13.675 10.2852Z" fill="url(#paint7_linear)"/>
<defs>
<linearGradient id="paint0_linear" x1="12764.4" y1="1890.97" x2="12210.2" y2="-497.645" gradientUnits="userSpaceOnUse">
<stop stop-color="#00BCDF"/>
<stop offset="0.37" stop-color="#0071BC"/>
<stop offset="0.76" stop-color="#9E005D"/>
<stop offset="1" stop-color="#ED1E79"/>
</linearGradient>
<linearGradient id="paint1_linear" x1="31.7451" y1="9.25024" x2="31.7451" y2="14.9882" gradientUnits="userSpaceOnUse">
<stop stop-color="#00BCDF"/>
<stop offset="0.524862" stop-color="#0A6AB6"/>
<stop offset="1" stop-color="#6E227A"/>
</linearGradient>
<linearGradient id="paint2_linear" x1="21398.7" y1="5566.88" x2="18798.2" y2="-804.777" gradientUnits="userSpaceOnUse">
<stop stop-color="#00BCDF"/>
<stop offset="0.37" stop-color="#0071BC"/>
<stop offset="0.76" stop-color="#9E005D"/>
<stop offset="1" stop-color="#ED1E79"/>
</linearGradient>
<linearGradient id="paint3_linear" x1="22.5953" y1="10.4331" x2="22.5953" y2="27.3766" gradientUnits="userSpaceOnUse">
<stop stop-color="#00BCDF"/>
<stop offset="0.524862" stop-color="#0A6AB6"/>
<stop offset="1" stop-color="#6E227A"/>
</linearGradient>
<linearGradient id="paint4_linear" x1="11263.4" y1="2844.68" x2="9979.43" y2="-418.24" gradientUnits="userSpaceOnUse">
<stop stop-color="#00BCDF"/>
<stop offset="0.37" stop-color="#0071BC"/>
<stop offset="0.76" stop-color="#9E005D"/>
<stop offset="1" stop-color="#ED1E79"/>
</linearGradient>
<linearGradient id="paint5_linear" x1="24.1831" y1="27.8123" x2="24.1831" y2="36.4018" gradientUnits="userSpaceOnUse">
<stop stop-color="#00BCDF"/>
<stop offset="0.524862" stop-color="#0A6AB6"/>
<stop offset="1" stop-color="#6E227A"/>
</linearGradient>
<linearGradient id="paint6_linear" x1="10209.3" y1="7462.23" x2="5266.7" y2="3165.73" gradientUnits="userSpaceOnUse">
<stop stop-color="#00BCDF"/>
<stop offset="0.37" stop-color="#0071BC"/>
<stop offset="0.76" stop-color="#9E005D"/>
<stop offset="1" stop-color="#ED1E79"/>
</linearGradient>
<linearGradient id="paint7_linear" x1="24.3421" y1="0" x2="24.3421" y2="22.7549" gradientUnits="userSpaceOnUse">
<stop stop-color="#00BCDF"/>
<stop offset="0.524862" stop-color="#0A6AB6"/>
<stop offset="1" stop-color="#6E227A"/>
</linearGradient>
</defs>
</svg>
