<svg width="510" height="510" viewBox="0 0 510 510" fill="none" xmlns="http://www.w3.org/2000/svg">
<g opacity="0.2">
<path opacity="0.2" d="M359.947 116.728L343.359 127.867L198.22 225.293L175.22 240.723L206.851 155.472L229.876 140.042L281.976 105.083L298.564 93.9204L359.947 116.728Z" fill="#EEEDF3"/>
</g>
<g opacity="0.2">
<path opacity="0.2" d="M393.001 128.976L376.39 140.114L181.175 271.149V271.173L158.175 286.603L169.313 256.611V256.587L192.338 241.157V241.109L354.764 132.11L371.375 120.971L393.001 128.976Z" fill="#EEEDF3"/>
</g>
<path d="M195 510C269.006 510 329 502.389 329 493C329 483.611 269.006 476 195 476C120.994 476 61 483.611 61 493C61 502.389 120.994 510 195 510Z" fill="#250075"/>
<path d="M229.71 51.4391C219.27 55.7788 179.08 72.5349 156.658 115.86C151.836 125.07 129.463 168.394 146.002 206.68C167.869 257.31 234.556 245.038 265.175 292.703C291.502 333.689 236.967 374.024 260.353 422.894C272.601 448.402 300.833 469.691 326.943 471.644C408.482 477.767 554.899 302.106 495.372 164.344C452.12 64.0243 313.731 16.408 229.71 51.4391Z" fill="url(#paint0_linear)"/>
<path d="M373.925 318.396L429.714 274.035L307.142 293.564L373.925 318.396Z" fill="#FF7373"/>
<path d="M265.288 172.678C270.11 168.556 274.16 148.328 263.576 153.391C252.992 158.454 261.044 172.823 261.044 172.823L265.288 172.678Z" fill="#010080"/>
<path d="M268.156 216.606C271.391 217.541 274.812 217.63 278.092 216.866C281.371 216.102 284.4 214.51 286.889 212.242C289.156 210 283.176 206.721 281.199 203.949C280.346 202.363 280.081 200.527 280.452 198.765C281.02 195.059 281.949 191.417 283.225 187.892L263.937 181.961C263.937 181.961 263.358 191.918 262.9 195.583C262.833 196.165 262.678 196.734 262.442 197.27C261.43 199.488 258.946 200.163 254.824 202.719C249.905 205.853 258.561 214.099 268.156 216.606Z" fill="#F8B7B0"/>
<path d="M262.997 195.583C262.997 195.824 262.998 196.065 262.877 196.282C264.409 198.418 266.618 199.973 269.145 200.694C273.289 200.885 277.371 199.633 280.694 197.15C281.339 194.013 282.185 190.921 283.225 187.892L263.938 181.961C263.938 181.961 263.456 191.894 262.997 195.583Z" fill="#E49F98"/>
<path d="M290.192 176.126C288.022 185.529 286.817 190.061 282.164 193.461C278.621 196.373 274.137 197.891 269.554 197.728C265.263 197.173 259.742 189.603 259.139 185.432C258.29 176.878 258.918 168.242 260.995 159.9C262.171 156.813 264.302 154.182 267.077 152.391C269.853 150.6 273.128 149.742 276.426 149.943C283.152 150.787 295.424 153.005 290.192 176.126Z" fill="#F8B7B0"/>
<path d="M257.283 173.691C257.621 177.284 259.405 180.032 261.285 179.839C263.166 179.646 264.396 176.633 264.058 173.064C263.72 169.496 261.936 166.724 260.056 166.892C258.175 167.061 256.946 170.123 257.283 173.691Z" fill="#F8B7B0"/>
<path d="M347.308 265.982L303.019 277.555L291.35 244.139C291.35 244.139 282.14 300.145 280.356 306.607C278.572 313.068 276.981 313.285 274.208 312.779L229.533 304.895C226.471 304.364 224.88 300.724 226.423 295.01C227.677 290.357 237.393 252.481 239.129 235.074C235.106 244.286 230.341 253.155 224.88 261.594L182.857 245.658L187.511 232.783L216.779 240.836C216.779 240.836 226.664 220.439 237.634 208.385C240.913 204.768 250.316 200.115 255.957 199.175C257.382 198.899 258.824 198.721 260.273 198.644C260.502 200.998 261.492 203.213 263.093 204.953C264.694 206.693 266.819 207.864 269.145 208.288C273.051 208.963 280.911 207.685 282.02 203.635C283.609 204.265 285.122 205.074 286.528 206.046C292.146 209.783 295.714 211.037 298.197 215.955C302.199 223.863 314.423 259.159 314.423 259.159L347.766 251.709L347.308 265.982Z" fill="url(#paint1_linear)"/>
<path d="M247.664 480.363C250.708 484.777 254.867 488.305 259.719 490.586C266.253 494.009 279.947 496.999 271.774 498.952C263.601 500.905 258.176 500.639 245.856 496.541C242.623 495.179 239.099 494.656 235.61 495.022C230.04 495.263 225.966 496.734 228.594 486.005C231.222 475.276 244.844 473.95 247.664 480.363Z" fill="#4003A9"/>
<path d="M152.142 435.351C151.708 437.473 146.091 442.343 140.449 447.068C134.807 451.794 128.153 454.301 132.637 456.712C140.401 460.907 144.234 457.243 155.421 450.637C160.243 448.081 159.953 449.021 165.065 446.996C168.609 445.598 171.598 443.741 170.007 436.677C167.644 425.876 153.54 428.48 152.142 435.351Z" fill="#4003A9"/>
<path d="M279.85 310.44C279.85 310.44 273.654 353.524 269.459 379.369C268.976 382.286 268.542 384.962 268.133 387.277C267.554 390.652 267.072 393.28 266.71 394.871C266.083 397.716 264.926 403.165 263.528 409.916C263.021 412.327 262.491 414.979 261.912 417.727C257.307 440.245 251.328 470.43 251.039 474.312C250.833 477.25 250.833 480.198 251.039 483.136C251.049 483.269 251.024 483.401 250.966 483.521C250.908 483.64 250.819 483.742 250.708 483.816C250.598 483.889 250.47 483.932 250.337 483.94C250.205 483.948 250.072 483.92 249.954 483.86L243.83 481.039C243.644 480.966 243.438 480.966 243.252 481.039C241.275 481.786 229.847 486.029 228.183 487.982C226.52 489.935 228.906 482.678 229.533 474.674C230.015 468.719 237.176 432.82 241.781 410.277C242.36 407.432 242.89 404.805 243.372 402.466C244.312 397.885 245.012 394.437 245.349 392.822C245.994 388.332 246.365 383.807 246.458 379.273C246.579 376.669 246.675 373.872 246.772 370.979C247.23 355.838 247.302 338.262 247.326 334.815C247.321 334.648 247.262 334.487 247.157 334.356C247.053 334.226 246.909 334.133 246.747 334.091L236.766 331.439C236.686 331.404 236.6 331.386 236.513 331.386C236.426 331.386 236.34 331.404 236.26 331.439C233.704 332.693 210.776 343.928 199.782 353.379C197.509 355.082 195.647 357.274 194.333 359.792C194.227 360.043 194.139 360.301 194.068 360.564C191.874 369.412 189.753 376.572 187.92 381.732C187.269 383.612 186.643 385.252 186.04 386.554C185.75 387.205 185.389 388.048 185.003 388.965C180.953 398.753 171.936 422.887 170.344 427.54C169.332 430.457 170.344 432.53 170.344 434.773C170.344 438.244 164.751 439.811 161.834 438.413C159.664 437.376 155.3 434.435 152.745 434.941C152.618 434.977 152.484 434.979 152.356 434.948C152.228 434.917 152.11 434.854 152.013 434.765C151.917 434.675 151.844 434.563 151.804 434.437C151.763 434.312 151.755 434.179 151.78 434.049C153.42 427.226 159.447 402.369 164.896 381.563C165.595 378.935 166.27 376.355 166.945 373.896C168.767 366.5 170.988 359.208 173.599 352.053C174.931 349.64 176.55 347.398 178.421 345.375C191.633 329.752 224.591 300.507 224.591 300.507C224.591 300.507 225.772 296.915 227.749 297.204C232.065 297.831 232.402 298.602 254.27 302.966C277.68 307.812 280.525 305.425 279.85 310.44Z" fill="url(#paint2_linear)"/>
<path d="M288.601 159.972C275.558 158.453 266.421 156.477 262.081 150.449C257.741 144.422 261.719 143.771 265.022 145.844C265.249 145.135 265.647 144.493 266.182 143.975C266.717 143.457 267.372 143.08 268.088 142.877C268.805 142.674 269.56 142.652 270.287 142.812C271.014 142.972 271.69 143.31 272.255 143.795C274.101 142.592 276.348 142.17 278.504 142.622C280.66 143.074 282.548 144.363 283.755 146.206C283.755 146.206 292.7 143.53 293.399 150.497C293.375 150.594 300.102 161.298 288.601 159.972Z" fill="#010080"/>
<path d="M294.606 157.08C298.174 162.263 297.185 182.901 288.192 175.355C279.2 167.808 289.422 157.441 289.422 157.441L294.606 157.08Z" fill="#010080"/>
<path d="M287.371 175.427C285.611 178.561 285.515 181.84 287.154 182.66C288.794 183.479 291.566 181.792 293.326 178.657C295.086 175.523 295.183 172.244 293.543 171.425C291.904 170.605 289.131 172.293 287.371 175.427Z" fill="#F8B7B0"/>
<path d="M279.632 310.054L225 300.193C224.914 300.177 224.833 300.143 224.762 300.093C224.69 300.042 224.631 299.977 224.587 299.901C224.544 299.826 224.517 299.742 224.509 299.655C224.501 299.568 224.513 299.48 224.542 299.398L226.447 293.925C226.5 293.789 226.599 293.677 226.727 293.606C226.855 293.536 227.003 293.512 227.146 293.539L280.886 302.942C280.968 302.953 281.047 302.981 281.117 303.025C281.188 303.068 281.249 303.125 281.297 303.193C281.344 303.261 281.377 303.338 281.394 303.419C281.41 303.5 281.41 303.584 281.392 303.665L280.356 309.548C280.326 309.711 280.234 309.855 280.098 309.95C279.963 310.045 279.795 310.082 279.632 310.054Z" fill="#010080"/>
<path d="M286.527 206.046C284.588 208.52 282.024 210.431 279.1 211.584C276.176 212.737 272.997 213.089 269.891 212.604C266.543 211.924 263.456 210.308 260.989 207.943C258.523 205.579 256.777 202.564 255.956 199.247C257.381 198.971 258.823 198.794 260.272 198.717C260.501 201.07 261.491 203.285 263.092 205.025C264.693 206.765 266.818 207.936 269.144 208.36C273.05 209.035 280.909 207.758 282.018 203.707C283.604 204.315 285.117 205.099 286.527 206.046Z" fill="#EEFAFF"/>
<path d="M297.836 157.055C298.006 156.718 298.107 156.351 298.135 155.974C298.162 155.598 298.115 155.22 297.997 154.861C297.878 154.503 297.691 154.172 297.444 153.886C297.197 153.601 296.896 153.367 296.558 153.198L293.979 158.333C294.315 158.506 294.683 158.611 295.06 158.64C295.437 158.67 295.816 158.623 296.176 158.504C296.535 158.385 296.867 158.196 297.152 157.947C297.437 157.698 297.67 157.395 297.836 157.055Z" fill="#010080"/>
<path d="M266.928 157.538C269.219 156.797 271.122 155.178 272.221 153.035C273.319 150.893 273.522 148.402 272.786 146.11L255.476 151.679C256.221 153.972 257.845 155.876 259.992 156.974C262.138 158.072 264.632 158.274 266.928 157.538Z" fill="#010080"/>
<path d="M274.233 159.394C275.428 158.321 276.15 156.818 276.241 155.214C276.331 153.61 275.782 152.036 274.715 150.835L265.674 158.888C266.744 160.087 268.245 160.813 269.849 160.908C271.453 161.003 273.029 160.459 274.233 159.394Z" fill="#010080"/>
<path d="M297.304 160.696C298.054 160.55 298.716 160.113 299.145 159.481C299.574 158.848 299.736 158.072 299.594 157.321L293.929 158.43C294.001 158.801 294.145 159.154 294.354 159.468C294.563 159.783 294.832 160.053 295.146 160.264C295.459 160.475 295.811 160.621 296.182 160.695C296.552 160.769 296.934 160.77 297.304 160.696Z" fill="#010080"/>
<g style="mix-blend-mode:multiply">
<g style="mix-blend-mode:multiply">
<g style="mix-blend-mode:multiply">
<path d="M241.569 410.43L261.749 417.928C262.328 415.179 262.858 412.576 263.364 410.116L243.16 402.618C242.678 404.957 242.148 407.585 241.569 410.43Z" fill="#E0E0E2"/>
</g>
</g>
<g style="mix-blend-mode:multiply">
<g style="mix-blend-mode:multiply">
<path d="M164.637 381.884L184.792 389.358C185.178 388.37 185.54 387.526 185.829 386.947C186.432 385.621 187.058 383.982 187.709 382.125L166.686 374.314C166.011 376.677 165.336 379.256 164.637 381.884Z" fill="#E0E0E2"/>
</g>
</g>
</g>
<path d="M209.6 380.51C208.589 380.135 207.662 379.563 206.872 378.829C206.082 378.095 205.445 377.212 204.997 376.231C204.55 375.25 204.3 374.19 204.262 373.112C204.224 372.034 204.4 370.96 204.778 369.95C205.153 368.939 205.725 368.012 206.459 367.223C207.193 366.433 208.076 365.796 209.057 365.348C210.038 364.9 211.098 364.65 212.176 364.612C213.253 364.575 214.328 364.75 215.338 365.128C216.349 365.504 217.276 366.075 218.065 366.809C218.855 367.544 219.492 368.427 219.94 369.408C220.388 370.388 220.638 371.448 220.676 372.526C220.713 373.604 220.538 374.678 220.16 375.688C219.391 377.722 217.85 379.369 215.872 380.272C213.894 381.175 211.64 381.261 209.6 380.51Z" fill="#C8C7D9"/>
<path d="M175.846 239.036C178.308 239.362 180.813 238.994 183.078 237.975C184.694 237.131 186.237 232.189 186.743 228.645C187.249 225.1 182.693 225.534 182.693 225.534C184.204 224.987 185.774 224.615 187.37 224.425C190.287 224.016 191.42 220.713 187.225 220.761C183.03 220.809 178.932 222.834 175.026 230.79C175.026 230.79 171.048 238.192 175.026 241.398L175.846 239.036Z" fill="#F8B7B0"/>
<path d="M366.842 245.569C366.842 242.748 362.021 238.336 360.67 240.048C359.32 241.76 355.656 248.366 356.282 251.524C356.691 253.5 357.45 255.386 358.525 257.094L357.584 259.504C357.584 259.504 366.746 257.72 366.842 245.569Z" fill="#F8B7B0"/>
<g style="mix-blend-mode:multiply" opacity="0.1">
<g style="mix-blend-mode:multiply" opacity="0.1">
<path d="M291.524 37.8905L109.112 52.983C107.01 53.1729 105.069 54.1877 103.713 55.8053C102.358 57.4228 101.698 59.5115 101.879 61.6142L106.291 114.968C106.481 117.066 107.492 119.003 109.105 120.358C110.717 121.713 112.799 122.375 114.898 122.201L132.884 120.73L141.611 120.007C143.347 121.888 147.735 126.637 149.543 128.349C149.946 128.717 150.42 128.998 150.936 129.175C151.452 129.351 151.999 129.419 152.542 129.373C153.085 129.328 153.614 129.171 154.093 128.912C154.573 128.652 154.994 128.297 155.33 127.867C156.824 125.89 160.393 120.465 161.767 118.223L206.128 114.558L297.335 107.012C299.434 106.816 301.371 105.8 302.725 104.184C304.08 102.567 304.742 100.482 304.567 98.3812L300.155 45.0269C299.936 42.9449 298.909 41.0318 297.296 39.6978C295.682 38.3638 293.61 37.715 291.524 37.8905Z" fill="#3F3F3F"/>
</g>
</g>
<g style="mix-blend-mode:multiply" opacity="0.1">
<g style="mix-blend-mode:multiply" opacity="0.1">
<path d="M357.049 31.8102L350.172 89.3115C349.878 91.7706 351.633 94.0025 354.092 94.2966L411.594 101.174C414.053 101.468 416.285 99.7126 416.579 97.2535L423.456 39.7522C423.75 37.2931 421.995 35.0612 419.536 34.7671L362.034 27.8901C359.575 27.596 357.343 29.3511 357.049 31.8102Z" fill="#3F3F3F"/>
</g>
</g>
<g style="mix-blend-mode:multiply" opacity="0.1">
<g style="mix-blend-mode:multiply" opacity="0.1">
<path d="M168.759 155.328C168.348 154.02 167.683 152.807 166.802 151.758C165.92 150.708 164.841 149.843 163.625 149.211C162.409 148.579 161.08 148.194 159.714 148.077C158.349 147.96 156.974 148.113 155.668 148.529L88.6676 169.769C87.3605 170.18 86.1473 170.846 85.0977 171.727C84.0481 172.608 83.1827 173.688 82.5511 174.904C81.9195 176.12 81.5341 177.449 81.417 178.814C81.2999 180.18 81.4534 181.555 81.8688 182.861L95.7076 226.523C96.119 227.83 96.7843 229.043 97.6654 230.093C98.5465 231.142 99.6261 232.008 100.842 232.639C102.058 233.271 103.387 233.656 104.753 233.773C106.118 233.891 107.493 233.737 108.799 233.322L115.357 231.248C115.357 231.248 127.58 239.735 131.848 242.242C132.594 242.667 133.42 242.933 134.274 243.024C135.128 243.115 135.992 243.028 136.811 242.77C137.63 242.513 138.387 242.088 139.035 241.525C139.682 240.961 140.207 240.269 140.575 239.494C142.601 234.961 147.808 220.978 147.808 220.978L175.968 212.081C178.582 211.224 180.753 209.373 182.012 206.927C183.271 204.482 183.516 201.639 182.695 199.014L168.759 155.328Z" fill="#3F3F3F"/>
</g>
</g>
<g style="mix-blend-mode:multiply" opacity="0.1">
<g style="mix-blend-mode:multiply" opacity="0.1">
<path d="M393.821 175.097C393.676 174.478 393.35 173.916 392.885 173.482C392.419 173.049 391.835 172.763 391.207 172.662C390.579 172.562 389.935 172.65 389.357 172.916C388.78 173.182 388.294 173.614 387.963 174.157L381.911 184.018L378.512 169.745C378.174 168.366 377.307 167.175 376.097 166.43C374.888 165.686 373.434 165.447 372.05 165.767L332.776 175.121C331.396 175.459 330.205 176.326 329.461 177.536C328.716 178.745 328.478 180.199 328.798 181.583L338.152 220.857C338.49 222.237 339.357 223.428 340.567 224.172C341.776 224.917 343.23 225.155 344.614 224.835L383.888 215.481C385.273 215.143 386.468 214.272 387.213 213.058C387.958 211.843 388.193 210.383 387.866 208.995L384.467 194.747L394.303 200.798C394.843 201.138 395.473 201.308 396.11 201.288C396.748 201.268 397.365 201.058 397.883 200.685C398.4 200.312 398.795 199.794 399.017 199.195C399.238 198.597 399.276 197.946 399.125 197.326L393.821 175.097Z" fill="#3F3F3F"/>
</g>
</g>
<g style="mix-blend-mode:multiply" opacity="0.1">
<g style="mix-blend-mode:multiply" opacity="0.1">
<path d="M39.628 109.254C39.1758 108.301 38.4509 107.504 37.5452 106.963C36.6395 106.422 35.5936 106.163 34.5402 106.217C33.4868 106.271 32.4732 106.637 31.6278 107.268C30.7824 107.898 30.1432 108.766 29.7912 109.76L17.1338 145.587C16.7972 146.571 16.7556 147.631 17.0141 148.638C17.2727 149.644 17.82 150.554 18.5888 151.253C19.3576 151.953 20.3142 152.412 21.3408 152.575C22.3674 152.738 23.4192 152.597 24.3666 152.169L48.6208 140.596C49.2576 140.284 49.8259 139.848 50.2926 139.313C50.7594 138.779 51.1153 138.157 51.3396 137.484C51.564 136.811 51.6523 136.101 51.5994 135.393C51.5466 134.686 51.3536 133.996 51.0318 133.364L39.628 109.254Z" fill="#3F3F3F"/>
</g>
</g>
<g style="mix-blend-mode:multiply" opacity="0.1">
<g style="mix-blend-mode:multiply" opacity="0.1">
<path d="M52.3585 11.5144C49.4117 12.4459 46.8073 14.2305 44.8749 16.6423C42.9426 19.0542 41.7689 21.9851 41.5025 25.0641C41.2361 28.1431 41.8888 31.232 43.3783 33.9399C44.8677 36.6479 47.1268 38.8532 49.8698 40.2771C52.6128 41.7009 55.7165 42.2791 58.7882 41.9387C61.8599 41.5983 64.7617 40.3544 67.1263 38.3645C69.491 36.3747 71.2124 33.7281 72.0727 30.7598C72.933 27.7914 72.8936 24.6345 71.9595 21.6886C70.7023 17.745 67.9338 14.4603 64.2602 12.5534C60.5865 10.6465 56.307 10.2729 52.3585 11.5144Z" fill="#3F3F3F"/>
</g>
</g>
<g style="mix-blend-mode:multiply" opacity="0.1">
<g style="mix-blend-mode:multiply" opacity="0.1">
<path d="M481.459 406.886C479.802 405.646 477.816 404.925 475.75 404.814C473.684 404.703 471.631 405.207 469.852 406.262C468.072 407.317 466.645 408.876 465.752 410.742C464.858 412.608 464.537 414.697 464.83 416.745C465.123 418.793 466.017 420.708 467.398 422.248C468.779 423.789 470.586 424.885 472.59 425.398C474.594 425.912 476.706 425.82 478.657 425.134C480.609 424.448 482.314 423.199 483.556 421.545C484.382 420.445 484.983 419.193 485.324 417.861C485.665 416.528 485.741 415.142 485.546 413.78C485.351 412.419 484.89 411.109 484.189 409.926C483.487 408.743 482.56 407.71 481.459 406.886Z" fill="#3F3F3F"/>
</g>
</g>
<g style="mix-blend-mode:multiply" opacity="0.1">
<g style="mix-blend-mode:multiply" opacity="0.1">
<path d="M473.873 136.094C481.098 127.907 480.318 115.414 472.132 108.189C463.945 100.964 451.452 101.744 444.227 109.93C437.002 118.117 437.782 130.61 445.968 137.835C454.155 145.06 466.648 144.28 473.873 136.094Z" fill="#3F3F3F"/>
</g>
</g>
<g style="mix-blend-mode:multiply" opacity="0.1">
<g style="mix-blend-mode:multiply" opacity="0.1">
<path d="M137.826 266.521C132.767 268.121 128.296 271.184 124.976 275.322C121.657 279.461 119.637 284.49 119.173 289.776C118.708 295.061 119.819 300.365 122.366 305.02C124.913 309.674 128.781 313.47 133.483 315.928C138.185 318.387 143.509 319.397 148.785 318.833C154.06 318.269 159.05 316.154 163.125 312.757C167.201 309.359 170.178 304.831 171.683 299.743C173.187 294.655 173.151 289.236 171.579 284.169C170.527 280.79 168.819 277.652 166.552 274.935C164.284 272.218 161.503 269.975 158.367 268.335C155.231 266.696 151.802 265.691 148.277 265.38C144.752 265.069 141.201 265.456 137.826 266.521Z" fill="#3F3F3F"/>
</g>
</g>
<g filter="url(#filter0_d)">
<path d="M429.711 274.051L307.141 293.574L318.161 362.764L440.732 343.241L429.711 274.051Z" fill="#FF3131"/>
<path d="M373.783 318.361L429.572 274L307 293.529L373.783 318.361Z" fill="#FF7373"/>
<path d="M396.468 130.029L393.165 128.799L371.467 120.771L360.039 116.527L298.656 93.7439L246.339 74.3116C244.161 73.5165 241.757 73.6153 239.652 74.5865C237.547 75.5577 235.912 77.3224 235.104 79.4951L206.968 155.416L175.384 240.547L169.478 256.387L158.339 286.403L133.82 352.415C133.542 353.192 133.372 354.003 133.313 354.826C133.178 356.702 133.658 358.571 134.681 360.15C135.703 361.729 137.212 362.932 138.979 363.577L166.85 373.92L187.873 381.732L243.325 402.321L263.529 409.819L288.94 419.391C291.111 420.195 293.512 420.106 295.618 419.144C297.724 418.181 299.363 416.423 300.175 414.255L399.844 146.254L401.7 141.288C402.1 140.205 402.281 139.054 402.234 137.902C402.187 136.749 401.913 135.616 401.426 134.57C400.94 133.523 400.252 132.584 399.401 131.804C398.55 131.025 397.553 130.421 396.468 130.029ZM382.196 147.05L380.074 152.74L294.389 383.588C293.93 384.751 293.037 385.69 291.899 386.207C290.761 386.724 289.467 386.779 288.289 386.361L269.46 379.369L246.724 370.931L199.735 353.475L178.229 345.495L161.16 339.13C160.285 338.809 159.525 338.233 158.98 337.477C158.434 336.721 158.127 335.819 158.098 334.887C158.056 334.264 158.146 333.64 158.363 333.055L181.412 270.997L192.502 240.956L198.385 225.116L230.041 139.889L246.122 96.4923C246.581 95.3354 247.469 94.4007 248.602 93.884C249.734 93.3672 251.022 93.3084 252.197 93.7198L282.141 104.786L343.524 127.569L354.928 131.813L376.626 139.841L379.471 140.902C380.06 141.118 380.6 141.45 381.058 141.879C381.516 142.308 381.883 142.825 382.137 143.398C382.391 143.972 382.527 144.591 382.537 145.218C382.547 145.846 382.431 146.468 382.196 147.05Z" fill="#EEEDF3"/>
<path d="M294.707 24.8716L99.0101 41.0491C97.8869 41.1402 96.7927 41.4523 95.7904 41.9674C94.7881 42.4825 93.8973 43.1904 93.1693 44.0506C92.4413 44.9108 91.8903 45.9063 91.548 46.9799C91.2057 48.0536 91.0788 49.1843 91.1745 50.3071L95.9964 107.567C96.0876 108.69 96.3996 109.784 96.9147 110.787C97.4298 111.789 98.1377 112.68 98.9979 113.408C99.8581 114.136 100.854 114.687 101.927 115.029C103.001 115.371 104.132 115.498 105.254 115.402L124.542 113.811L133.921 113.04C135.753 115.041 140.454 120.152 142.407 121.984C142.836 122.381 143.343 122.685 143.895 122.876C144.448 123.067 145.034 123.14 145.617 123.093C146.199 123.045 146.765 122.877 147.279 122.599C147.794 122.321 148.244 121.939 148.603 121.478C150.243 119.332 154.028 113.522 155.523 111.256L202.994 107.398L300.831 99.2253C301.954 99.1341 303.048 98.8221 304.05 98.307C305.053 97.7919 305.943 97.084 306.671 96.2238C307.399 95.3636 307.95 94.3681 308.293 93.2944C308.635 92.2208 308.762 91.0901 308.666 89.9672L303.844 32.7072C303.653 30.4636 302.589 28.3849 300.879 26.9191C299.17 25.4534 296.953 24.718 294.707 24.8716Z" fill="url(#paint3_linear)"/>
<path d="M365.005 18.3836L357.633 80.0262C357.317 82.6705 359.204 85.0704 361.848 85.3866L423.491 92.7589C426.135 93.0751 428.535 91.1879 428.851 88.5437L436.224 26.9011C436.54 24.2568 434.653 21.8569 432.008 21.5407L370.366 14.1684C367.722 13.8522 365.322 15.7394 365.005 18.3836Z" fill="#F8AA00"/>
<path d="M144.119 138.571L72.1761 161.355C69.3563 162.257 67.0101 164.241 65.6537 166.873C64.2973 169.504 64.0417 172.567 64.9433 175.387L79.7706 222.231C80.6775 225.053 82.667 227.399 85.3023 228.755C87.9376 230.112 91.0034 230.366 93.8265 229.464L100.842 227.246C100.842 227.246 113.958 236.36 118.539 239.06C119.339 239.516 120.226 239.802 121.143 239.9C122.059 239.997 122.986 239.903 123.865 239.625C124.744 239.346 125.555 238.888 126.248 238.281C126.942 237.673 127.502 236.929 127.893 236.094C130.087 231.272 135.56 216.252 135.56 216.252L165.769 206.608C168.585 205.701 170.927 203.716 172.283 201.086C173.638 198.456 173.897 195.397 173.002 192.577L158.199 145.973C157.77 144.556 157.064 143.239 156.121 142.097C155.179 140.956 154.019 140.013 152.708 139.325C151.398 138.636 149.964 138.214 148.489 138.085C147.015 137.956 145.529 138.121 144.119 138.571Z" fill="url(#paint4_linear)"/>
<path d="M392.64 163.525L386.13 174.085L382.49 158.775C382.314 158.039 381.995 157.345 381.551 156.732C381.107 156.119 380.547 155.6 379.902 155.203C379.257 154.807 378.541 154.542 377.793 154.422C377.046 154.303 376.282 154.332 375.546 154.508L333.427 164.538C331.944 164.898 330.663 165.83 329.863 167.131C329.064 168.431 328.811 169.995 329.16 171.481L339.189 213.6C339.365 214.337 339.684 215.031 340.128 215.644C340.572 216.257 341.132 216.776 341.777 217.172C342.422 217.569 343.138 217.834 343.886 217.953C344.633 218.073 345.397 218.044 346.133 217.868L388.252 207.838C388.988 207.663 389.683 207.344 390.295 206.9C390.908 206.456 391.428 205.895 391.824 205.25C392.22 204.606 392.486 203.889 392.605 203.142C392.724 202.394 392.695 201.631 392.519 200.895L388.879 185.585L399.439 192.095C400.018 192.449 400.689 192.624 401.367 192.599C402.045 192.574 402.701 192.349 403.252 191.952C403.803 191.556 404.225 191.005 404.464 190.37C404.704 189.735 404.75 189.043 404.598 188.382L398.908 164.513C398.744 163.857 398.39 163.264 397.891 162.807C397.392 162.351 396.769 162.051 396.101 161.946C395.433 161.84 394.748 161.934 394.133 162.215C393.518 162.495 392.998 162.951 392.64 163.525Z" fill="#FF3158"/>
<path d="M36.8802 127.433L24.4638 101.419C23.9761 100.401 23.1979 99.5508 22.2275 98.9749C21.2571 98.399 20.1379 98.1234 19.011 98.1827C17.8842 98.242 16.8 98.6336 15.8954 99.3082C14.9908 99.9828 14.3063 100.91 13.928 101.973L0.330257 140.404C-0.0491123 141.47 -0.102958 142.626 0.175526 143.723C0.454009 144.821 1.05225 145.811 1.89438 146.568C2.73651 147.325 3.78454 147.814 4.90542 147.974C6.0263 148.135 7.16949 147.958 8.18994 147.468L34.18 135.051C34.8598 134.731 35.4695 134.279 35.9738 133.722C36.4781 133.165 36.867 132.513 37.1181 131.805C37.3692 131.096 37.4774 130.345 37.4366 129.595C37.3958 128.844 37.2066 128.11 36.8802 127.433Z" fill="#FF7D43"/>
<path d="M63.6182 11.7071C64.6165 14.8662 64.6559 18.2504 63.7314 21.4319C62.8069 24.6134 60.9599 27.4494 58.424 29.5815C55.8882 31.7136 52.7771 33.0461 49.4842 33.4105C46.1912 33.775 42.864 33.155 39.9233 31.6291C36.9825 30.1031 34.5601 27.7396 32.9623 24.8373C31.3644 21.935 30.6628 18.6241 30.9462 15.3232C31.2295 12.0222 32.485 8.87934 34.554 6.29175C36.6231 3.70417 39.4129 1.78804 42.5706 0.785521C44.6697 0.119115 46.8796 -0.126951 49.0738 0.0613833C51.2681 0.249718 53.4037 0.868778 55.3585 1.88313C57.3133 2.89749 59.049 4.28722 60.4662 5.97291C61.8835 7.6586 62.9546 9.60715 63.6182 11.7071Z" fill="#FF3131"/>
<path d="M493.417 429.163C492.082 430.938 490.25 432.278 488.154 433.013C486.058 433.748 483.791 433.845 481.64 433.292C479.488 432.739 477.549 431.56 476.067 429.905C474.586 428.251 473.628 426.194 473.314 423.995C473.001 421.796 473.347 419.553 474.308 417.55C475.269 415.548 476.802 413.875 478.713 412.743C480.624 411.611 482.828 411.072 485.046 411.192C487.264 411.312 489.397 412.088 491.174 413.42C493.556 415.212 495.13 417.877 495.55 420.828C495.97 423.779 495.203 426.777 493.417 429.163Z" fill="#FF3131"/>
<path d="M476.006 131.794C487.618 130.222 495.757 119.534 494.185 107.923C492.613 96.3112 481.925 88.1726 470.314 89.7446C458.702 91.3166 450.563 102.004 452.135 113.615C453.707 125.227 464.395 133.366 476.006 131.794Z" fill="url(#paint5_linear)"/>
<path d="M139.418 323.288C154.694 318.992 163.594 303.126 159.298 287.851C155.002 272.576 139.136 263.675 123.861 267.972C108.585 272.268 99.6847 288.134 103.981 303.409C108.277 318.684 124.143 327.585 139.418 323.288Z" fill="url(#paint6_linear)"/>
</g>
<path d="M138.839 76.9475C139.751 75.9901 140.45 74.8508 140.89 73.6043C141.331 72.3578 141.503 71.0323 141.395 69.7146L141.009 65.0856C140.866 62.5701 139.743 60.2107 137.883 58.512C136.022 56.8133 133.57 55.9104 131.052 55.9963C129.786 56.0663 128.548 56.3888 127.409 56.9448C126.269 57.5009 125.253 58.2793 124.42 59.2342C123.586 60.1891 122.952 61.3011 122.555 62.5048C122.158 63.7085 122.006 64.9794 122.107 66.2429L122.541 71.2818C122.644 72.6065 123.028 73.894 123.668 75.0582C124.309 76.2224 125.19 77.2365 126.254 78.0325C123.196 79.3462 120.512 81.4004 118.446 84.0099C116.379 86.6194 114.994 89.7022 114.416 92.9803C114.327 93.5924 114.377 94.2168 114.563 94.8067C114.749 95.3967 115.066 95.9369 115.49 96.3869C115.915 96.8369 116.435 97.1849 117.014 97.405C117.592 97.625 118.212 97.7114 118.828 97.6576L149.399 95.1261C150.015 95.0798 150.613 94.8941 151.146 94.583C151.68 94.2719 152.136 93.8435 152.48 93.3302C152.824 92.8169 153.046 92.2322 153.131 91.6202C153.215 91.0082 153.159 90.3851 152.967 89.7979C151.868 86.6493 150 83.8249 147.533 81.581C145.066 79.337 142.078 77.7443 138.839 76.9475Z" fill="white"/>
<path d="M217.799 48.7641L178.79 51.9466C177.26 52.0815 175.846 52.8167 174.857 53.9913C173.867 55.166 173.383 56.6845 173.51 58.2151L175.077 77.3821C175.206 78.9163 175.939 80.3366 177.114 81.3311C178.289 82.3256 179.811 82.813 181.346 82.6862L185.155 82.3728C185.155 82.3728 190.724 88.4966 192.725 90.3771C193.078 90.7023 193.494 90.9509 193.947 91.1074C194.4 91.2639 194.881 91.3248 195.359 91.2863C195.837 91.2478 196.301 91.1107 196.724 90.8837C197.146 90.6567 197.517 90.3447 197.812 89.9673C199.476 87.7733 203.96 80.8057 203.96 80.8057L220.331 79.4555C221.089 79.3947 221.829 79.1848 222.506 78.8379C223.183 78.4909 223.786 78.0138 224.278 77.4338C224.771 76.8537 225.144 76.1822 225.377 75.4576C225.61 74.733 225.698 73.9697 225.635 73.2112L224.068 53.9236C223.903 52.4155 223.155 51.0315 221.984 50.0674C220.813 49.1033 219.311 48.6356 217.799 48.7641Z" fill="white"/>
<path d="M183.128 61.7348C182.812 61.749 182.495 61.7008 182.197 61.5928C181.899 61.4848 181.626 61.3191 181.392 61.1053C181.158 60.8915 180.968 60.6337 180.834 60.3467C180.7 60.0596 180.623 59.7489 180.609 59.4323C180.595 59.1157 180.643 58.7994 180.751 58.5014C180.859 58.2035 181.025 57.9297 181.238 57.6958C181.452 57.4618 181.71 57.2722 181.997 57.1379C182.284 57.0036 182.595 56.9271 182.911 56.9129L214.543 54.3573C214.86 54.3319 215.178 54.3692 215.48 54.467C215.783 54.5647 216.063 54.7211 216.304 54.927C216.546 55.133 216.745 55.3846 216.889 55.6674C217.034 55.9502 217.121 56.2587 217.147 56.5753C217.172 56.8919 217.135 57.2105 217.037 57.5127C216.939 57.8149 216.783 58.0949 216.577 58.3366C216.371 58.5784 216.119 58.7773 215.837 58.9218C215.554 59.0664 215.245 59.1538 214.929 59.1792L183.321 61.8071L183.128 61.7348Z" fill="#E2E2E2"/>
<path d="M183.804 70.0281C183.165 70.0537 182.541 69.8242 182.071 69.3902C181.601 68.9561 181.322 68.353 181.297 67.7136C181.271 67.0742 181.501 66.4508 181.935 65.9806C182.369 65.5103 182.972 65.2318 183.611 65.2062L215.219 62.6024C215.535 62.5755 215.854 62.6112 216.157 62.7075C216.46 62.8038 216.741 62.9588 216.984 63.1636C217.227 63.3685 217.427 63.6192 217.573 63.9014C217.719 64.1836 217.808 64.4918 217.835 64.8084C217.862 65.125 217.826 65.4438 217.73 65.7466C217.633 66.0494 217.478 66.3303 217.274 66.5732C217.069 66.8161 216.818 67.0163 216.536 67.1624C216.254 67.3084 215.945 67.3974 215.629 67.4243L183.997 70.0522L183.804 70.0281Z" fill="#E2E2E2"/>
<path d="M184.503 78.3218C183.864 78.3506 183.239 78.1242 182.767 77.6924C182.294 77.2606 182.013 76.6588 181.984 76.0193C181.955 75.3799 182.182 74.7552 182.613 74.2828C183.045 73.8103 183.647 73.5287 184.286 73.4999L198.559 72.3427C198.876 72.3173 199.194 72.3546 199.497 72.4524C199.799 72.5501 200.079 72.7064 200.321 72.9124C200.562 73.1184 200.761 73.3699 200.906 73.6528C201.05 73.9356 201.138 74.2441 201.163 74.5607C201.188 74.8773 201.151 75.1958 201.053 75.498C200.956 75.8002 200.799 76.0802 200.593 76.322C200.387 76.5638 200.136 76.7627 199.853 76.9072C199.57 77.0518 199.262 77.1392 198.945 77.1646L184.696 78.3459L184.503 78.3218Z" fill="#E2E2E2"/>
<path d="M290.969 75.4044C290.656 71.6388 289.143 68.073 286.654 65.2302L286.316 61.1315C286.037 57.8117 284.599 54.696 282.254 52.3292C279.909 49.9624 276.807 48.4954 273.49 48.1848V46.9793C273.439 46.3239 273.129 45.7156 272.63 45.2884C272.13 44.8611 271.481 44.6498 270.826 44.7009C270.171 44.7521 269.562 45.0615 269.135 45.5611C268.708 46.0608 268.496 46.7096 268.548 47.365V48.5946C265.334 49.4478 262.522 51.4017 260.601 54.1156C258.68 56.8296 257.772 60.1316 258.036 63.4461L258.397 67.5688C256.415 70.7863 255.519 74.556 255.842 78.3216L255.987 80.1057C256.023 80.543 256.232 80.9481 256.566 81.2326C256.9 81.5171 257.333 81.658 257.771 81.6246L264.762 81.046C264.72 81.314 264.76 81.5883 264.876 81.8335C264.992 82.0786 265.179 82.2831 265.413 82.4202C267.997 84.0112 271.02 84.7375 274.045 84.4936C277.06 84.2483 279.917 83.0396 282.194 81.046C282.399 80.8632 282.547 80.6246 282.62 80.3593C282.693 80.094 282.687 79.8133 282.603 79.5512L289.619 78.9726C290.057 78.9357 290.462 78.7275 290.746 78.3933C291.031 78.0591 291.172 77.6261 291.138 77.1885L290.969 75.4044Z" fill="white"/>
<path d="M260.954 79.3104C261.078 80.7843 260.762 82.2618 260.045 83.556C259.329 84.8501 258.245 85.9026 256.93 86.5803C255.615 87.2579 254.129 87.5302 252.66 87.3626C251.19 87.1951 249.803 86.5953 248.675 85.6391C247.546 84.6829 246.727 83.4134 246.32 81.9912C245.914 80.5691 245.938 79.0582 246.391 77.6501C246.843 76.2419 247.703 74.9996 248.862 74.0806C250.021 73.1615 251.427 72.6071 252.901 72.4874C254.873 72.3273 256.828 72.9555 258.338 74.2345C259.847 75.5135 260.788 77.3389 260.954 79.3104Z" fill="#FF3131"/>
<path d="M371.05 23.8895L364.805 76.1002C364.614 77.6999 365.756 79.1519 367.356 79.3433L419.566 85.5875C421.166 85.7788 422.618 84.637 422.809 83.0373L429.054 30.8265C429.245 29.2268 428.103 27.7749 426.503 27.5835L374.293 21.3393C372.693 21.148 371.241 22.2897 371.05 23.8895Z" fill="#FFBB33"/>
<path d="M398.379 58.2385L391.965 63.3015C391.395 63.7444 390.672 63.9445 389.955 63.8588C389.237 63.7731 388.583 63.4083 388.132 62.8434C387.913 62.5618 387.64 62.3264 387.33 62.1507C387.019 61.9751 386.677 61.8628 386.323 61.8202C385.969 61.7776 385.61 61.8056 385.266 61.9026C384.923 61.9996 384.602 62.1637 384.323 62.3853L374.824 69.8593C374.398 70.1879 374.079 70.6363 373.91 71.147C373.74 71.6577 373.727 72.2074 373.872 72.7256C374.018 73.2437 374.314 73.7067 374.724 74.0552C375.134 74.4036 375.639 74.6216 376.174 74.6812L377.283 74.8258L399.681 77.502L412.266 78.9968C412.796 79.0554 413.331 78.9558 413.805 78.7106C414.278 78.4653 414.668 78.0854 414.926 77.6187C415.184 77.152 415.298 76.6194 415.253 76.088C415.209 75.5567 415.008 75.0504 414.677 74.633L402.091 58.6966C401.648 58.1607 401.016 57.8147 400.326 57.7295C399.636 57.6444 398.939 57.8265 398.379 58.2385Z" fill="#ED9E00"/>
<path d="M386.853 47.4614C386.746 48.4113 386.358 49.3077 385.74 50.0368C385.121 50.7658 384.3 51.2947 383.381 51.5561C382.461 51.8176 381.485 51.7998 380.576 51.5051C379.666 51.2104 378.865 50.6521 378.274 49.901C377.682 49.1499 377.327 48.24 377.254 47.2868C377.181 46.3337 377.393 45.3803 377.863 44.5478C378.333 43.7153 379.04 43.0413 379.894 42.6114C380.747 42.1815 381.71 42.015 382.658 42.1332C383.918 42.2902 385.065 42.9377 385.851 43.9353C386.636 44.9328 386.996 46.1999 386.853 47.4614Z" fill="#ED9E00"/>
<path d="M144.36 162.849L86.0149 181.317C85.5572 181.479 85.0717 181.546 84.5874 181.516C84.1031 181.486 83.6299 181.358 83.1958 181.141C82.7617 180.924 82.3757 180.622 82.0609 180.253C81.746 179.884 81.5087 179.455 81.363 178.992C81.2173 178.529 81.1664 178.042 81.2131 177.559C81.2597 177.076 81.4031 176.607 81.6347 176.18C81.8663 175.754 82.1813 175.379 82.5611 175.076C82.9408 174.774 83.3775 174.552 83.845 174.422L142.166 155.954C142.619 155.81 143.095 155.756 143.569 155.797C144.042 155.837 144.503 155.97 144.925 156.188C145.347 156.406 145.722 156.706 146.028 157.069C146.335 157.432 146.567 157.852 146.711 158.305C146.855 158.757 146.908 159.234 146.868 159.708C146.828 160.181 146.695 160.642 146.476 161.064C146.258 161.486 145.959 161.861 145.596 162.167C145.233 162.473 144.813 162.705 144.36 162.849Z" fill="#FFB6EA"/>
<path d="M149.569 179.317L91.2482 197.784C90.7954 197.928 90.3187 197.982 89.8453 197.942C89.3719 197.902 88.911 197.769 88.489 197.55C88.067 197.332 87.6922 197.033 87.3858 196.67C87.0795 196.306 86.8476 195.886 86.7035 195.434C86.5595 194.981 86.506 194.504 86.5462 194.031C86.5863 193.557 86.7194 193.097 86.9377 192.675C87.1559 192.253 87.4552 191.878 87.8184 191.571C88.1815 191.265 88.6015 191.033 89.0542 190.889L147.375 172.494C147.828 172.349 148.305 172.296 148.778 172.336C149.251 172.376 149.712 172.509 150.134 172.728C150.556 172.946 150.931 173.245 151.237 173.608C151.544 173.972 151.776 174.391 151.92 174.844C152.064 175.297 152.117 175.774 152.077 176.247C152.037 176.72 151.904 177.181 151.686 177.603C151.467 178.025 151.168 178.4 150.805 178.707C150.442 179.013 150.022 179.245 149.569 179.389V179.317Z" fill="#FFB6EA"/>
<path d="M122.758 205.909L96.4543 214.251C96.0015 214.395 95.5248 214.449 95.0514 214.408C94.578 214.368 94.1171 214.235 93.6951 214.017C93.2731 213.799 92.8981 213.499 92.5918 213.136C92.2854 212.773 92.0536 212.353 91.9096 211.9C91.7655 211.448 91.712 210.971 91.7522 210.497C91.7924 210.024 91.9254 209.563 92.1437 209.141C92.362 208.719 92.6613 208.344 93.0244 208.038C93.3876 207.732 93.8075 207.5 94.2603 207.356L120.564 199.014C121.478 198.723 122.471 198.807 123.323 199.248C124.175 199.689 124.817 200.45 125.108 201.365C125.399 202.279 125.315 203.271 124.874 204.124C124.433 204.976 123.672 205.618 122.758 205.909Z" fill="#FFB6EA"/>
<path d="M353.341 174.832L368.723 184.307L359.248 199.689" fill="white"/>
<path d="M28.8998 123.165L25.8861 118.344L26.079 117.789C26.1328 117.631 26.1549 117.463 26.144 117.297C26.1332 117.13 26.0896 116.967 26.0157 116.817C25.9418 116.667 25.8391 116.533 25.7135 116.422C25.5878 116.312 25.4416 116.228 25.2833 116.174C25.125 116.12 24.9577 116.098 24.7908 116.109C24.624 116.119 24.4609 116.163 24.3109 116.237C24.1609 116.311 24.027 116.414 23.9167 116.539C23.8064 116.665 23.7219 116.811 23.668 116.969L19.4489 128.855C18.5462 127.976 17.4591 127.309 16.2664 126.902C13.0598 125.769 9.8774 126.541 9.03356 128.614C8.18973 130.688 10.3113 133.316 13.5179 134.449C16.7245 135.582 19.8346 134.834 20.6061 132.809L23.5475 124.516L25.3075 127.288C25.4582 127.52 25.6703 127.705 25.9201 127.824C26.1699 127.942 26.4476 127.989 26.7224 127.959C26.9972 127.929 27.2583 127.823 27.4767 127.654C27.6951 127.484 27.8623 127.258 27.9595 126.999L28.8757 124.443C28.9739 124.245 29.027 124.028 29.0312 123.807C29.0353 123.586 28.9904 123.367 28.8998 123.165Z" fill="white"/>
<path d="M54.1665 8.69375C53.466 8.28937 52.691 8.03073 51.8881 7.93333C51.0851 7.83594 50.2708 7.90181 49.4939 8.12699C48.7171 8.35216 47.9937 8.732 47.3673 9.24369C46.7409 9.75539 46.2244 10.3883 45.8487 11.1046C45.1279 10.7375 44.3406 10.5192 43.5336 10.4627C42.7267 10.4062 41.9166 10.5128 41.1517 10.776C40.3868 11.0392 39.6827 11.4537 39.0813 11.9948C38.48 12.5359 37.9937 13.1925 37.6515 13.9255C37.031 15.3492 36.9747 16.9556 37.494 18.4193C38.0132 19.883 39.0692 21.0948 40.4482 21.8093L48.8142 26.149C49.3674 26.4183 50.0026 26.466 50.5898 26.2822C51.1769 26.0984 51.6716 25.6971 51.9726 25.1605L56.3364 16.7704C57.0659 15.3999 57.2477 13.8034 56.8449 12.304C56.442 10.8045 55.4847 9.51413 54.1665 8.69375Z" fill="white"/>
<path d="M491.296 422.822C488.314 420.354 485.216 418.029 482.014 415.854C480.991 416.07 480.09 416.671 479.497 417.533C478.905 418.395 478.666 419.451 478.831 420.483L479.723 426.752C479.783 427.16 480.001 427.528 480.331 427.777C480.66 428.025 481.074 428.133 481.483 428.078L487.776 427.186C488.81 427.047 489.751 426.518 490.406 425.706C491.061 424.894 491.379 423.862 491.296 422.822Z" fill="white"/>
<path d="M480.929 99.7548C480.518 99.3036 479.951 99.0253 479.342 98.9761C478.734 98.9269 478.129 99.1104 477.65 99.4896C475.723 101.389 473.607 103.085 471.334 104.553L469.308 103.733C469.269 103.718 469.227 103.711 469.185 103.712C469.142 103.714 469.101 103.724 469.062 103.742C469.024 103.76 468.99 103.785 468.962 103.817C468.934 103.849 468.912 103.886 468.899 103.926L464.559 114.51C464.533 114.593 464.539 114.683 464.574 114.763C464.61 114.843 464.673 114.907 464.752 114.944L466.247 115.571C466.371 116.591 466.765 117.56 467.387 118.378C468.01 119.196 468.84 119.833 469.791 120.224L470.683 120.585L476.493 122.996L477.795 123.527C478.366 123.732 478.993 123.715 479.552 123.478C480.111 123.241 480.559 122.802 480.809 122.249C481.043 121.669 481.043 121.021 480.809 120.441L481.749 120.827C482.19 120.957 482.658 120.959 483.1 120.832C483.541 120.705 483.937 120.454 484.241 120.11C484.545 119.765 484.745 119.341 484.816 118.887C484.887 118.433 484.826 117.969 484.642 117.548C485.114 117.556 485.578 117.426 485.977 117.173C486.375 116.92 486.691 116.556 486.884 116.125C487.09 115.554 487.072 114.927 486.835 114.368C486.598 113.81 486.16 113.361 485.607 113.111C486.187 112.878 486.653 112.429 486.908 111.858C487.114 111.287 487.096 110.659 486.859 110.101C486.622 109.542 486.184 109.093 485.631 108.844L477.433 105.493C479.41 103.781 482.376 101.418 480.929 99.7548Z" fill="white"/>
<path d="M463.49 101.527L459.079 112.356C458.903 112.788 459.111 113.28 459.542 113.456L462.244 114.556C462.676 114.732 463.168 114.524 463.344 114.093L467.754 103.263C467.93 102.832 467.723 102.34 467.291 102.164L464.589 101.063C464.158 100.888 463.665 101.095 463.49 101.527Z" fill="white"/>
<path d="M132.378 279.347C131.557 279.199 130.71 279.382 130.024 279.857C129.337 280.331 128.866 281.058 128.714 281.878C128.369 285.551 127.617 289.173 126.471 292.679L123.675 293.547C123.561 293.581 123.464 293.658 123.406 293.761C123.347 293.865 123.332 293.987 123.361 294.102L128.015 308.953C128.031 309.009 128.059 309.061 128.096 309.107C128.133 309.152 128.178 309.189 128.23 309.216C128.282 309.243 128.339 309.259 128.397 309.264C128.455 309.268 128.514 309.261 128.569 309.243L130.667 308.592C131.677 309.558 132.928 310.235 134.289 310.553C135.65 310.872 137.072 310.819 138.406 310.4L139.635 310.014L147.784 307.483L149.592 306.904C150.194 306.722 150.728 306.364 151.123 305.875C151.519 305.386 151.758 304.789 151.81 304.163C151.862 303.536 151.724 302.908 151.415 302.361C151.105 301.814 150.638 301.372 150.075 301.094L151.401 300.684C152.194 300.434 152.855 299.88 153.239 299.143C153.623 298.406 153.699 297.547 153.45 296.754C152.93 296.551 152.473 296.213 152.127 295.775C151.781 295.337 151.559 294.814 151.483 294.261C151.406 293.708 151.479 293.145 151.694 292.629C151.908 292.114 152.257 291.665 152.703 291.329C152.582 290.934 152.384 290.568 152.121 290.249C151.857 289.931 151.534 289.668 151.169 289.476C150.803 289.283 150.404 289.164 149.993 289.127C149.582 289.089 149.167 289.133 148.773 289.256C149.077 288.707 149.21 288.08 149.154 287.454C149.098 286.829 148.856 286.236 148.458 285.75C148.061 285.264 147.527 284.909 146.925 284.73C146.324 284.551 145.682 284.557 145.084 284.747L133.608 288.34C134.283 284.868 135.344 279.829 132.378 279.347Z" fill="white"/>
<path d="M120.373 293.596L116.553 294.79C115.956 294.976 115.623 295.612 115.81 296.209L120.555 311.397C120.741 311.995 121.377 312.328 121.974 312.141L125.794 310.948C126.392 310.761 126.725 310.125 126.538 309.528L121.793 294.34C121.606 293.742 120.971 293.409 120.373 293.596Z" fill="white"/>
<defs>
<filter id="filter0_d" x="0" y="0" width="508.663" height="443.646" filterUnits="userSpaceOnUse" color-interpolation-filters="sRGB">
<feFlood flood-opacity="0" result="BackgroundImageFix"/>
<feColorMatrix in="SourceAlpha" type="matrix" values="0 0 0 0 0 0 0 0 0 0 0 0 0 0 0 0 0 0 127 0"/>
<feOffset dx="12" dy="9"/>
<feGaussianBlur stdDeviation="0.5"/>
<feColorMatrix type="matrix" values="0 0 0 0 0 0 0 0 0 0 0 0 0 0 0 0 0 0 0.07 0"/>
<feBlend mode="normal" in2="BackgroundImageFix" result="effect1_dropShadow"/>
<feBlend mode="normal" in="SourceGraphic" in2="effect1_dropShadow" result="shape"/>
</filter>
<linearGradient id="paint0_linear" x1="324.619" y1="40" x2="324.619" y2="471.799" gradientUnits="userSpaceOnUse">
<stop stop-color="#00BCDF"/>
<stop offset="0.524862" stop-color="#0A6AB6"/>
<stop offset="1" stop-color="#6E227A"/>
</linearGradient>
<linearGradient id="paint1_linear" x1="287.131" y1="314.225" x2="242.914" y2="181.213" gradientUnits="userSpaceOnUse">
<stop stop-color="#3301A0"/>
<stop offset="1" stop-color="#6A01A0"/>
</linearGradient>
<linearGradient id="paint2_linear" x1="211.909" y1="490.924" x2="217.937" y2="306.486" gradientUnits="userSpaceOnUse">
<stop stop-color="#F7631E"/>
<stop offset="1" stop-color="#FEBC66"/>
</linearGradient>
<linearGradient id="paint3_linear" x1="257" y1="170.179" x2="120.178" y2="-69.7099" gradientUnits="userSpaceOnUse">
<stop stop-color="#00FFFF"/>
<stop offset="1" stop-color="#9E005D"/>
</linearGradient>
<linearGradient id="paint4_linear" x1="188.963" y1="194.939" x2="86.0873" y2="183.68" gradientUnits="userSpaceOnUse">
<stop stop-color="#00FFFF"/>
<stop offset="0.69" stop-color="#9E005D"/>
<stop offset="1" stop-color="#ED1E79"/>
</linearGradient>
<linearGradient id="paint5_linear" x1="19156.7" y1="9122.57" x2="21384.5" y2="5558.23" gradientUnits="userSpaceOnUse">
<stop stop-color="#00FFFF"/>
<stop offset="0.69" stop-color="#9E005D"/>
<stop offset="1" stop-color="#ED1E79"/>
</linearGradient>
<linearGradient id="paint6_linear" x1="16105.3" y1="17907.1" x2="21616.9" y2="12233.1" gradientUnits="userSpaceOnUse">
<stop stop-color="#00FFFF"/>
<stop offset="0.69" stop-color="#9E005D"/>
<stop offset="1" stop-color="#ED1E79"/>
</linearGradient>
</defs>
</svg>
