<svg width="560" height="510" viewBox="0 0 560 510" fill="none" xmlns="http://www.w3.org/2000/svg">
<path d="M507.831 262.182C507.831 262.182 524.008 141.216 435.731 102.802C375.747 76.7052 347.786 98.7413 325.616 92.9494C303.513 87.0908 283.075 50.2085 243.73 25.5759C165.771 -23.2233 52.5939 -3.11774 24.6992 93.8814C-11.2511 218.975 78.6912 315.908 192.334 301.461C321.755 284.95 327.414 196.872 370.554 216.645C413.694 236.484 430.005 256.59 430.005 256.59L507.831 262.182Z" fill="url(#paint0_linear)" fill-opacity="0.9"/>
<ellipse cx="372.154" cy="490.5" rx="109" ry="19.5" fill="#250075"/>
<g filter="url(#filter0_d)">
<path d="M56.7886 117.382C49.2657 112.456 46.4696 113.055 41.5431 120.511C46.4696 113.055 45.937 110.259 38.4141 105.332C45.937 110.259 48.7331 109.659 53.6596 102.203C48.7331 109.659 49.3323 112.456 56.7886 117.382Z" fill="#19207C"/>
<path d="M18.9737 170.043C11.2511 174.57 10.5188 177.299 14.9793 185.089C10.4522 177.299 7.72265 176.567 0 181.094C7.72265 176.567 8.45497 173.838 3.99447 166.048C8.45497 173.838 11.1845 174.57 18.9737 170.043Z" fill="#64B5F6"/>
<path d="M105.588 263.713C99.929 270.704 100.195 273.5 107.186 279.159C100.262 273.5 97.3992 273.766 91.7404 280.756C97.3992 273.766 97.1329 270.97 90.1426 265.311C97.1329 270.97 99.929 270.637 105.588 263.713Z" fill="#19207C"/>
<path d="M245.261 230.959C236.273 230.826 234.209 232.823 234.076 241.744C234.276 232.756 232.279 230.693 223.291 230.56C232.279 230.693 234.342 228.695 234.476 219.774C234.342 228.762 236.273 230.826 245.261 230.959Z" fill="#293593"/>
<path d="M406.171 110.725C397.649 107.929 395.119 109.194 392.257 117.715C395.119 109.194 393.855 106.664 385.333 103.868C393.855 106.664 396.384 105.399 399.247 96.8774C396.384 105.332 397.649 107.929 406.171 110.725Z" fill="white"/>
<path d="M231.28 84.8945C231.28 98.4091 220.295 109.394 206.781 109.394C193.266 109.394 182.281 98.4091 182.281 84.8945C182.281 71.3798 193.266 60.395 206.781 60.395C220.295 60.395 231.28 71.3798 231.28 84.8945Z" fill="#E3F2FE"/>
<path d="M206.78 60.3945C220.295 60.3945 231.28 71.3793 231.28 84.894C231.28 98.4086 220.295 109.393 206.78 109.393C193.266 109.393 182.281 98.4086 182.281 84.894C182.281 71.3793 193.266 60.3945 206.78 60.3945ZM206.78 58.2642C204.983 58.2642 203.185 58.4639 201.388 58.7968C199.657 59.1296 197.992 59.6622 196.395 60.328C194.797 60.9937 193.266 61.7926 191.868 62.7912C190.469 63.7233 189.138 64.855 187.94 66.0534C186.741 67.2517 185.609 68.5832 184.677 69.9813C183.745 71.3793 182.88 72.9106 182.214 74.5084C181.548 76.1061 181.016 77.8371 180.683 79.5014C180.35 81.2324 180.15 83.0965 180.15 84.894C180.15 86.6915 180.35 88.489 180.683 90.2865C181.016 92.0175 181.548 93.6818 182.214 95.2796C182.88 96.8774 183.679 98.4086 184.677 99.8067C185.609 101.205 186.741 102.536 187.94 103.735C189.138 104.933 190.469 106.065 191.868 106.997C193.266 107.929 194.797 108.794 196.395 109.46C197.992 110.126 199.657 110.658 201.388 110.991C203.119 111.324 204.983 111.524 206.78 111.524C208.578 111.524 210.375 111.324 212.173 110.991C213.904 110.658 215.568 110.126 217.166 109.46C218.764 108.794 220.295 107.995 221.693 106.997C223.091 106.065 224.422 104.933 225.621 103.735C226.819 102.536 227.951 101.205 228.883 99.8067C229.815 98.4086 230.68 96.8774 231.346 95.2796C232.012 93.6818 232.545 91.9509 232.877 90.2865C233.21 88.5556 233.41 86.6915 233.41 84.894C233.41 83.0965 233.21 81.299 232.877 79.5014C232.545 77.7705 232.012 76.1061 231.346 74.5084C230.68 72.9106 229.882 71.3793 228.883 69.9813C227.951 68.5832 226.819 67.2517 225.621 66.0534C224.422 64.855 223.091 63.7233 221.693 62.7912C220.295 61.8592 218.764 60.9937 217.166 60.328C215.568 59.6622 213.837 59.1296 212.173 58.7968C210.375 58.4639 208.578 58.2642 206.78 58.2642Z" fill="#19207C"/>
<path d="M207.21 85.275L206.287 85.8076L213.244 97.8572L214.167 97.3246L207.21 85.275Z" fill="#64B5F6"/>
<path d="M206.846 83.5631C206.78 83.5631 206.78 83.5631 206.846 83.5631L198.724 75.1081C198.525 74.8418 198.125 74.6421 197.792 74.6421C197.127 74.6421 196.527 75.1747 196.527 75.907C196.527 76.2399 196.66 76.5728 196.927 76.8391L205.115 85.294L205.182 85.3606C205.382 85.5603 205.715 85.6935 206.047 85.6935C206.713 85.6935 207.246 85.1609 207.246 84.4285C207.179 84.0957 207.046 83.7628 206.846 83.5631Z" fill="#64B5F6"/>
<path d="M219.03 82.4308C219.03 82.4308 218.964 82.4308 219.03 82.4308L208.445 83.7622C208.112 83.7622 207.779 83.8954 207.579 84.2283C207.18 84.6943 207.313 85.4266 207.779 85.8261C208.045 86.0258 208.378 86.0924 208.644 86.0258L219.296 84.6943H219.363C219.629 84.6277 219.896 84.4946 220.029 84.2948C220.428 83.8288 220.295 83.0965 219.829 82.697C219.563 82.4308 219.296 82.3642 219.03 82.4308Z" fill="#64B5F6"/>
<path d="M209.045 85.2274C209.045 86.2926 208.179 87.0915 207.181 87.0915C206.115 87.0915 205.316 86.226 205.316 85.2274C205.316 84.1622 206.182 83.3633 207.181 83.3633C208.179 83.3633 209.045 84.2288 209.045 85.2274Z" fill="#E3E4E3"/>
<path d="M207.18 83.3634C208.245 83.3634 209.044 84.2289 209.044 85.2275C209.044 86.2927 208.179 87.0916 207.18 87.0916C206.115 87.0916 205.316 86.2261 205.316 85.2275C205.316 84.2289 206.115 83.3634 207.18 83.3634ZM207.18 81.9653C205.383 81.9653 203.918 83.43 203.918 85.2275C203.918 87.025 205.383 88.4896 207.18 88.4896C208.978 88.4896 210.442 87.025 210.442 85.2275C210.442 83.43 208.978 81.9653 207.18 81.9653Z" fill="#64B5F6"/>
<path d="M207.18 67.5183C206.847 67.5183 206.581 67.252 206.581 66.9191V63.191C206.581 62.8581 206.847 62.5918 207.18 62.5918C207.513 62.5918 207.779 62.8581 207.779 63.191V66.9191C207.846 67.252 207.513 67.5183 207.18 67.5183Z" fill="#64B5F6"/>
<path d="M219.429 72.9106C219.163 72.6443 219.163 72.2449 219.429 72.0452L222.026 69.4487C222.292 69.1824 222.691 69.1824 222.891 69.4487C223.157 69.715 223.157 70.1145 222.891 70.3142L220.295 72.9106C220.095 73.1769 219.696 73.1769 219.429 72.9106Z" fill="#64B5F6"/>
<path d="M224.289 85.2276C224.289 84.8947 224.555 84.6284 224.888 84.6284H228.616C228.949 84.6284 229.216 84.8947 229.216 85.2276C229.216 85.5605 228.949 85.8268 228.616 85.8268H224.888C224.555 85.8933 224.289 85.627 224.289 85.2276Z" fill="#64B5F6"/>
<path d="M219.163 97.1445C219.429 96.8782 219.828 96.8782 220.028 97.1445L222.624 99.741C222.891 100.007 222.891 100.407 222.624 100.606C222.358 100.873 221.959 100.873 221.759 100.606L219.163 98.01C218.896 97.8103 218.896 97.4108 219.163 97.1445Z" fill="#64B5F6"/>
<path d="M207.246 102.337C207.579 102.337 207.845 102.603 207.845 102.936V106.664C207.845 106.997 207.579 107.263 207.246 107.263C206.913 107.263 206.647 106.997 206.647 106.664V102.936C206.58 102.67 206.847 102.337 207.246 102.337Z" fill="#64B5F6"/>
<path d="M194.864 97.6098C195.13 97.8761 195.13 98.2755 194.864 98.4752L192.267 101.138C192.001 101.405 191.602 101.405 191.402 101.138C191.136 100.872 191.136 100.472 191.402 100.273L193.998 97.6098C194.265 97.41 194.664 97.41 194.864 97.6098Z" fill="#64B5F6"/>
<path d="M194.597 72.7773C194.331 73.0436 193.932 73.0436 193.732 72.7773L191.069 70.1809C190.803 69.9146 190.803 69.5152 191.069 69.3154C191.335 69.0491 191.735 69.0491 191.934 69.3154L194.597 71.9119C194.864 72.1116 194.864 72.511 194.597 72.7773Z" fill="#64B5F6"/>
<path d="M207.246 60.395V109.394C207.246 109.394 207.246 109.394 207.179 109.394H207.113C206.98 109.394 206.913 109.394 206.78 109.394C206.58 109.394 206.38 109.394 206.114 109.394C192.866 109.061 182.214 98.2094 182.214 84.8945C182.214 71.5795 192.866 60.7279 206.114 60.395C206.314 60.395 206.514 60.395 206.78 60.395C206.913 60.395 207.046 60.395 207.246 60.395Z" fill="white"/>
<path d="M206.78 58.2642C204.983 58.2642 203.185 58.4639 201.388 58.7968C199.657 59.1296 197.992 59.6622 196.395 60.328C194.797 60.9937 193.266 61.7926 191.868 62.7912C190.469 63.7233 189.138 64.855 187.94 66.0534C186.741 67.2517 185.609 68.5832 184.677 69.9813C183.745 71.3793 182.88 72.9106 182.214 74.5084C181.548 76.1061 181.016 77.8371 180.683 79.5014C180.35 81.2324 180.15 83.0965 180.15 84.894C180.15 86.6915 180.35 88.489 180.683 90.2865C181.016 92.0175 181.548 93.6818 182.214 95.2796C182.88 96.8774 183.679 98.4086 184.677 99.8067C185.609 101.205 186.741 102.536 187.94 103.735C189.138 104.933 190.469 106.065 191.868 106.997C193.266 107.929 194.797 108.794 196.395 109.46C197.992 110.126 199.723 110.658 201.388 110.991C203.119 111.324 204.983 111.524 206.78 111.524C206.98 111.524 207.113 111.524 207.313 111.524V109.393H207.246C207.246 109.393 207.246 109.393 207.18 109.393H207.113C206.98 109.393 206.913 109.393 206.78 109.393C206.58 109.393 206.381 109.393 206.114 109.393C192.866 109.061 182.214 98.2089 182.214 84.894C182.214 71.5791 192.866 60.7274 206.114 60.3945C206.314 60.3945 206.514 60.3945 206.78 60.3945C206.913 60.3945 207.113 60.3945 207.246 60.3945C207.246 60.3945 207.246 60.3945 207.313 60.3945V58.2642C207.113 58.2642 206.913 58.2642 206.78 58.2642Z" fill="#64B5F6"/>
<path d="M207.247 85.4937V87.6906L206.98 87.158L206.248 85.8265L207.18 85.2939L207.247 85.4937Z" fill="#64B5F6"/>
<path d="M206.78 83.5631L198.658 75.1081C198.458 74.8418 198.059 74.6421 197.726 74.6421C197.06 74.6421 196.461 75.1747 196.461 75.907C196.461 76.2399 196.594 76.5728 196.86 76.8391L205.049 85.294L205.116 85.3606C205.315 85.5603 205.648 85.6935 205.981 85.6935C206.647 85.6935 207.179 85.1609 207.179 84.4285C207.113 84.0957 206.98 83.7628 206.78 83.5631Z" fill="#64B5F6"/>
<path d="M207.246 83.3633V87.0915C207.246 87.0915 207.18 87.0915 207.113 87.0915C207.047 87.0915 207.047 87.0915 206.98 87.0915C206.048 87.0249 205.316 86.2926 205.249 85.4271C205.249 85.3605 205.249 85.2939 205.249 85.2274C205.249 84.3619 205.848 83.6296 206.647 83.4299C206.78 83.3633 206.913 83.3633 207.113 83.3633C207.18 83.3633 207.246 83.3633 207.246 83.3633Z" fill="white"/>
<path d="M206.647 83.43C206.78 83.3634 206.913 83.3634 207.113 83.3634C207.179 83.3634 207.246 83.3634 207.246 83.3634V81.9653C207.179 81.9653 207.113 81.9653 207.113 81.9653C206.58 81.9653 206.048 82.0985 205.582 82.2982C204.849 82.6977 204.25 83.3634 203.984 84.1623C203.851 84.4952 203.851 84.828 203.851 85.1609C203.851 86.9584 205.315 88.4231 207.113 88.4231C207.179 88.4231 207.246 88.4231 207.246 88.4231V87.025C207.179 87.025 207.113 87.025 207.113 87.025C207.046 87.025 207.046 87.025 206.98 87.025C206.048 86.9584 205.315 86.2261 205.249 85.3606C205.249 85.2941 205.249 85.2275 205.249 85.1609C205.249 84.362 205.848 83.6297 206.647 83.43Z" fill="#64B5F6"/>
<path d="M207.247 62.5918V67.5183H207.18C206.847 67.5183 206.581 67.252 206.581 66.9191V63.191C206.581 62.8581 206.847 62.5918 207.18 62.5918H207.247Z" fill="#64B5F6"/>
<path d="M207.312 102.403V107.33H207.246C206.913 107.33 206.646 107.064 206.646 106.731V103.002C206.646 102.67 206.913 102.403 207.246 102.403C207.246 102.403 207.246 102.403 207.312 102.403Z" fill="#64B5F6"/>
<path d="M194.864 97.6768C195.13 97.9431 195.13 98.3425 194.864 98.5422L192.267 101.205C192.001 101.472 191.602 101.472 191.402 101.205C191.136 100.939 191.136 100.539 191.402 100.34L193.998 97.6768C194.198 97.4105 194.597 97.4105 194.864 97.6768Z" fill="#64B5F6"/>
<path d="M194.597 72.7773C194.331 73.0436 193.932 73.0436 193.732 72.7773L191.069 70.1809C190.803 69.9146 190.803 69.5152 191.069 69.3154C191.335 69.0491 191.735 69.0491 191.934 69.3154L194.597 71.9119C194.797 72.1782 194.797 72.5776 194.597 72.7773Z" fill="#64B5F6"/>
<path d="M246.059 105.798V108.328C246.059 108.861 242.265 109.327 237.138 109.46C236.206 109.46 235.274 109.527 234.342 109.527C227.884 109.527 222.625 108.994 222.625 108.395V105.865H246.059V105.798Z" fill="#FDC665"/>
<path d="M222.625 105.798V108.328C222.625 108.927 227.884 109.46 234.342 109.46C240.8 109.46 246.059 108.927 246.059 108.328V105.798H222.625Z" fill="#FFD741"/>
<path d="M246.059 105.932C246.059 106.531 240.8 107.063 234.342 107.063C227.884 107.063 222.625 106.531 222.625 105.932C222.625 105.332 227.884 104.8 234.342 104.8C240.8 104.8 246.059 105.266 246.059 105.932Z" fill="#F8BD36"/>
<path d="M246.059 105.798C246.059 106.397 240.8 106.93 234.342 106.93C227.884 106.93 222.625 106.397 222.625 105.798C222.625 105.199 227.884 104.667 234.342 104.667C240.8 104.667 246.059 105.133 246.059 105.798Z" fill="#F8BD36"/>
<path opacity="0.41" d="M244.928 105.731C244.928 106.197 240.201 106.597 234.342 106.597C228.484 106.597 223.757 106.197 223.757 105.731C223.757 105.265 228.484 104.866 234.342 104.866C240.201 104.866 244.928 105.265 244.928 105.731Z" stroke="white" stroke-width="0.2154" stroke-miterlimit="10"/>
<path d="M244.927 102.802V105.332C244.927 105.865 241.133 106.331 236.006 106.464C235.074 106.464 234.142 106.53 233.21 106.53C226.753 106.53 221.493 105.998 221.493 105.399V102.869H244.927V102.802Z" fill="#FDC665"/>
<path d="M221.493 102.802V105.332C221.493 105.931 226.753 106.464 233.21 106.464C239.668 106.464 244.927 105.931 244.927 105.332V102.802H221.493Z" fill="#FFD741"/>
<path opacity="0.11" d="M244.927 102.935C244.927 103.535 239.668 104.067 233.21 104.067C226.753 104.067 221.493 103.535 221.493 102.935C221.493 102.336 226.753 101.804 233.21 101.804C239.668 101.804 244.927 102.336 244.927 102.935Z" fill="white"/>
<path d="M244.927 102.802C244.927 103.401 239.668 103.934 233.21 103.934C226.753 103.934 221.493 103.401 221.493 102.802C221.493 102.203 226.753 101.67 233.21 101.67C239.668 101.67 244.927 102.203 244.927 102.802Z" fill="#FDC665"/>
<path d="M243.796 102.802C243.796 103.269 239.069 103.668 233.21 103.668C227.352 103.668 222.625 103.269 222.625 102.802C222.625 102.336 227.352 101.937 233.21 101.937C239.069 101.937 243.796 102.27 243.796 102.802Z" fill="#F8BD36"/>
<path d="M250.254 99.8066V102.336C250.254 102.869 246.459 103.335 241.333 103.468C240.401 103.468 239.469 103.468 238.536 103.468C232.079 103.468 226.819 102.936 226.819 102.336V99.8066H250.254Z" fill="#FDC665"/>
<path d="M226.819 99.8066V102.336C226.819 102.936 232.079 103.468 238.536 103.468C244.994 103.468 250.254 102.936 250.254 102.336V99.8066H226.819Z" fill="#FFD741"/>
<path opacity="0.11" d="M250.254 99.9396C250.254 100.539 244.994 101.071 238.536 101.071C232.079 101.071 226.819 100.539 226.819 99.9396C226.819 99.3405 232.079 98.8079 238.536 98.8079C244.994 98.7413 250.254 99.2739 250.254 99.9396Z" fill="white"/>
<path d="M250.254 99.8068C250.254 100.406 244.994 100.939 238.536 100.939C232.079 100.939 226.819 100.406 226.819 99.8068C226.819 99.2077 232.079 98.6751 238.536 98.6751C244.994 98.6085 250.254 99.1411 250.254 99.8068Z" fill="#F8BD36"/>
<path opacity="0.41" d="M249.122 99.7395C249.122 100.206 244.395 100.605 238.537 100.605C232.678 100.605 227.951 100.206 227.951 99.7395C227.951 99.2735 232.678 98.874 238.537 98.874C244.395 98.874 249.122 99.2735 249.122 99.7395Z" stroke="white" stroke-width="0.2154" stroke-miterlimit="10"/>
<path d="M243.796 96.9438V99.4737C243.796 100.006 240.001 100.472 234.875 100.605C233.943 100.605 233.01 100.672 232.078 100.672C225.621 100.672 220.361 100.139 220.361 99.5403V96.9438H243.796Z" fill="#FDC665"/>
<path d="M220.361 96.9438V99.4737C220.361 100.073 225.621 100.605 232.078 100.605C238.536 100.605 243.796 100.073 243.796 99.4737V96.9438H220.361Z" fill="#FFD741"/>
<path opacity="0.11" d="M243.796 97.0771C243.796 97.6762 238.536 98.2088 232.078 98.2088C225.621 98.2088 220.361 97.6762 220.361 97.0771C220.361 96.4779 225.621 95.9453 232.078 95.9453C238.536 95.9453 243.796 96.4779 243.796 97.0771Z" fill="white"/>
<path d="M243.796 96.9438C243.796 97.5429 238.536 98.0755 232.078 98.0755C225.621 98.0755 220.361 97.5429 220.361 96.9438C220.361 96.3446 225.621 95.812 232.078 95.812C238.536 95.812 243.796 96.3446 243.796 96.9438Z" fill="#F8BD36"/>
<path opacity="0.41" d="M242.664 96.9441C242.664 97.4101 237.937 97.8096 232.079 97.8096C226.22 97.8096 221.493 97.4101 221.493 96.9441C221.493 96.4781 226.22 96.0786 232.079 96.0786C237.937 96.0786 242.664 96.4781 242.664 96.9441Z" stroke="white" stroke-width="0.2154" stroke-miterlimit="10"/>
<path d="M246.059 93.8149V96.3448C246.059 96.8774 242.265 97.3434 237.138 97.4765C236.206 97.4765 235.274 97.4765 234.342 97.4765C227.884 97.4765 222.625 96.9439 222.625 96.3448V93.8149H246.059Z" fill="#FDC665"/>
<path d="M222.625 93.8149V96.3448C222.625 96.9439 227.884 97.4765 234.342 97.4765C240.8 97.4765 246.059 96.9439 246.059 96.3448V93.8149H222.625Z" fill="#FFD741"/>
<path d="M246.059 93.9482C246.059 94.5473 240.8 95.0799 234.342 95.0799C227.884 95.0799 222.625 94.5473 222.625 93.9482C222.625 93.349 227.884 92.8164 234.342 92.8164C240.8 92.8164 246.059 93.349 246.059 93.9482Z" fill="#F8BD36"/>
<path opacity="0.41" d="M246.059 93.8149C246.059 94.414 240.8 94.9466 234.342 94.9466C227.884 94.9466 222.625 94.414 222.625 93.8149C222.625 93.2157 227.884 92.6831 234.342 92.6831C240.8 92.6831 246.059 93.2157 246.059 93.8149Z" stroke="white" stroke-width="0.2154" stroke-miterlimit="10"/>
<path d="M244.928 93.8147C244.928 94.2807 240.201 94.6802 234.342 94.6802C228.484 94.6802 223.757 94.2807 223.757 93.8147C223.757 93.3487 228.484 92.9492 234.342 92.9492C240.201 92.9492 244.928 93.3487 244.928 93.8147Z" fill="#F8BD36"/>
<path d="M242.664 90.9521V93.482C242.664 94.0146 238.869 94.4806 233.743 94.6137C232.811 94.6137 231.879 94.6803 230.947 94.6803C224.489 94.6803 219.229 94.1477 219.229 93.5486V90.9521H242.664Z" fill="#FDC665"/>
<path d="M219.229 90.9521V93.482C219.229 94.0812 224.489 94.6137 230.947 94.6137C237.404 94.6137 242.664 94.0812 242.664 93.482V90.9521H219.229Z" fill="#FFD741"/>
<path opacity="0.11" d="M242.664 91.0854C242.664 91.6845 237.404 92.2171 230.947 92.2171C224.489 92.2171 219.229 91.6845 219.229 91.0854C219.229 90.4862 224.489 89.9536 230.947 89.9536C237.471 89.9536 242.664 90.4862 242.664 91.0854Z" fill="white"/>
<path d="M242.664 90.9521C242.664 91.5512 237.404 92.0838 230.947 92.0838C224.489 92.0838 219.229 91.5512 219.229 90.9521C219.229 90.3529 224.489 89.8203 230.947 89.8203C237.471 89.8203 242.664 90.3529 242.664 90.9521Z" fill="#F8BD36"/>
<path opacity="0.41" d="M241.532 90.9524C241.532 91.4184 236.805 91.8179 230.947 91.8179C225.088 91.8179 220.361 91.4184 220.361 90.9524C220.361 90.4864 225.088 90.0869 230.947 90.0869C236.805 90.0869 241.532 90.4864 241.532 90.9524Z" stroke="white" stroke-width="0.2154" stroke-miterlimit="10"/>
<path opacity="0.07" d="M230.081 107.795C230.081 114.519 224.622 119.979 217.898 119.979C211.174 119.979 205.715 114.519 205.715 107.795C205.715 101.071 211.174 95.6123 217.898 95.6123C224.622 95.6123 230.081 101.071 230.081 107.795Z" fill="#231F20"/>
<path d="M229.682 107.795C229.682 114.519 224.223 119.979 217.499 119.979C210.775 119.979 205.315 114.519 205.315 107.795C205.315 101.071 210.775 95.6123 217.499 95.6123C224.223 95.6123 229.682 101.071 229.682 107.795Z" fill="#FFD741"/>
<path d="M228.55 108.128C228.55 114.852 223.091 120.312 216.367 120.312C209.643 120.312 204.184 114.852 204.184 108.128C204.184 101.404 209.643 95.9453 216.367 95.9453C223.091 95.9453 228.55 101.404 228.55 108.128Z" fill="#F8BD36"/>
<path d="M216.3 96.5439C209.909 96.5439 204.716 101.737 204.716 108.128C204.716 114.519 209.909 119.712 216.3 119.712C222.691 119.712 227.884 114.519 227.884 108.128C227.884 101.737 222.691 96.5439 216.3 96.5439ZM216.3 119.312C210.108 119.312 205.115 114.319 205.115 108.128C205.115 101.936 210.108 96.9434 216.3 96.9434C222.491 96.9434 227.484 101.936 227.484 108.128C227.484 114.319 222.491 119.312 216.3 119.312Z" fill="#FCED99"/>
<path d="M224.689 108.128C224.689 112.722 220.96 116.45 216.367 116.45C211.773 116.45 208.045 112.722 208.045 108.128C208.045 103.535 211.773 99.8066 216.367 99.8066C220.96 99.8066 224.689 103.535 224.689 108.128Z" fill="#FFD741"/>
<path d="M224.489 108.128C224.489 112.456 220.96 115.984 216.633 115.984C212.306 115.984 208.777 112.456 208.777 108.128C208.777 103.801 212.306 100.272 216.633 100.272C220.96 100.272 224.489 103.801 224.489 108.128Z" fill="white"/>
<path d="M215.634 112.256C214.702 112.189 213.837 111.923 213.038 111.523L213.105 109.459C213.571 109.726 214.103 109.992 214.636 110.125C215.168 110.325 215.701 110.391 216.101 110.458C216.433 110.458 216.7 110.458 216.899 110.391C217.099 110.325 217.166 110.192 217.166 109.992C217.166 109.859 217.099 109.726 217.033 109.659C216.899 109.526 216.7 109.459 216.433 109.326C216.167 109.193 215.768 109.06 215.302 108.86C214.769 108.661 214.37 108.394 214.037 108.128C213.704 107.862 213.504 107.595 213.371 107.262C213.238 106.93 213.171 106.597 213.171 106.131C213.171 105.465 213.438 104.932 213.904 104.533C214.37 104.133 215.035 103.934 215.967 103.934L216.034 102.536L217.365 102.602L217.299 104C218.164 104.067 218.963 104.333 219.762 104.733L218.963 106.464C218.098 105.998 217.299 105.798 216.633 105.798C216.3 105.798 216.034 105.798 215.901 105.864C215.768 105.931 215.701 106.064 215.701 106.197C215.701 106.33 215.768 106.464 215.834 106.53C215.901 106.597 216.101 106.73 216.3 106.863C216.567 106.996 216.899 107.129 217.299 107.262C218.164 107.595 218.764 107.995 219.163 108.394C219.496 108.794 219.696 109.326 219.696 109.925C219.696 110.658 219.429 111.19 218.963 111.59C218.497 111.989 217.831 112.256 216.966 112.322L216.899 113.986L215.568 113.92L215.634 112.256Z" fill="#FFD741"/>
<path d="M213.172 139.019C212.906 139.152 212.64 139.285 212.373 139.352C212.041 139.418 211.974 139.951 212.24 140.151C212.64 140.55 212.906 141.083 213.039 141.615C213.239 142.68 212.839 143.479 212.041 144.145C211.708 144.411 211.375 144.611 210.975 144.811C210.576 145.011 210.509 145.543 210.842 145.809C211.575 146.475 211.841 147.341 211.441 148.339C211.108 149.138 210.576 149.737 209.844 150.203C209.71 150.27 209.644 150.27 209.511 150.337C209.244 150.403 209.111 150.536 209.111 150.803C209.111 151.002 209.178 151.202 209.311 151.335C209.71 151.668 210.043 152.134 210.11 152.667C210.176 153.066 210.11 153.466 209.91 153.865C209.644 154.464 209.244 154.93 208.712 155.33C208.512 155.529 207.913 155.796 207.447 155.995C207.181 156.129 206.448 156.262 206.182 156.328C194.997 158.592 187.142 155.663 186.143 155.263C185.943 155.196 185.211 154.73 185.078 154.73L184.812 154.664V137.887C185.211 137.621 185.677 137.288 186.076 137.022C186.143 137.022 186.143 136.955 186.21 136.955C186.21 136.955 186.21 136.955 186.276 136.888C188.473 134.092 189.938 131.096 191.602 127.967C192.734 125.837 193 121.31 193 119.646C193 118.98 193.533 117.848 194.864 117.848C195.197 117.848 195.929 117.848 196.329 118.048C196.862 118.248 197.261 118.913 197.66 119.712C198.26 120.844 198.592 122.109 198.992 123.374C199.125 123.84 199.258 124.306 199.325 124.772C199.391 125.105 199.391 125.504 199.325 125.837C199.325 126.237 199.258 126.636 199.258 127.035C199.192 127.834 199.058 128.633 198.925 129.432C198.792 130.298 198.592 131.096 198.459 131.962C198.459 132.029 198.459 132.095 198.459 132.162C198.193 133.227 199.258 133.893 199.924 134.159C200.124 134.225 200.789 134.292 200.989 134.292C204.584 134.292 210.576 134.292 211.308 134.292C211.774 134.292 212.307 134.292 212.773 134.292C213.572 134.359 214.437 134.825 214.703 135.89C214.77 137.155 214.171 138.353 213.172 139.019Z" fill="#E3F2FE"/>
<path d="M184.811 155.796C184.811 156.661 184.146 157.393 183.28 157.393H177.555C176.689 157.393 176.023 156.661 176.023 155.796V136.622C176.023 135.757 176.689 135.024 177.555 135.024H183.28C184.146 135.024 184.811 135.757 184.811 136.622V155.796Z" fill="#80D7FE"/>
<path d="M179.286 150.003C179.219 150.003 179.152 150.003 179.152 150.07V150.536C179.152 150.536 179.219 150.603 179.286 150.603C179.352 150.603 179.419 150.603 179.419 150.536V150.07C179.419 150.07 179.352 150.003 179.286 150.003Z" fill="#DDE4E8"/>
<path d="M179.286 148.805C179.219 148.805 179.152 148.805 179.152 148.872V149.338C179.152 149.338 179.219 149.404 179.286 149.404C179.352 149.404 179.419 149.404 179.419 149.338V148.872C179.419 148.805 179.352 148.805 179.286 148.805Z" fill="#DDE4E8"/>
<path d="M179.286 147.54C179.219 147.54 179.152 147.54 179.152 147.607V148.073C179.152 148.073 179.219 148.139 179.286 148.139C179.352 148.139 179.419 148.139 179.419 148.073V147.607C179.419 147.54 179.352 147.54 179.286 147.54Z" fill="#DDE4E8"/>
<path d="M179.286 146.275C179.219 146.275 179.152 146.275 179.152 146.342V146.808C179.152 146.808 179.219 146.875 179.286 146.875C179.352 146.875 179.419 146.875 179.419 146.808V146.342C179.419 146.275 179.352 146.275 179.286 146.275Z" fill="#DDE4E8"/>
<path d="M179.286 153.731C179.219 153.731 179.152 153.731 179.152 153.798V154.264C179.152 154.264 179.219 154.331 179.286 154.331C179.352 154.331 179.419 154.331 179.419 154.264V153.798C179.419 153.798 179.352 153.731 179.286 153.731Z" fill="#DDE4E8"/>
<path d="M179.286 151.269C179.219 151.269 179.152 151.269 179.152 151.335V151.801C179.152 151.801 179.219 151.868 179.286 151.868C179.352 151.868 179.419 151.868 179.419 151.801V151.335C179.419 151.269 179.352 151.269 179.286 151.269Z" fill="#DDE4E8"/>
<path d="M179.286 152.533C179.219 152.533 179.152 152.533 179.152 152.6V153.066C179.152 153.066 179.219 153.132 179.286 153.132C179.352 153.132 179.419 153.132 179.419 153.066V152.6C179.419 152.533 179.352 152.533 179.286 152.533Z" fill="#DDE4E8"/>
<path d="M179.286 138.819C179.219 138.819 179.152 138.819 179.152 138.885V139.351C179.152 139.351 179.219 139.418 179.286 139.418C179.352 139.418 179.419 139.418 179.419 139.351V138.885C179.419 138.819 179.352 138.819 179.286 138.819Z" fill="#DDE4E8"/>
<path d="M179.286 137.554C179.219 137.554 179.152 137.554 179.152 137.62V138.086C179.152 138.086 179.219 138.153 179.286 138.153C179.352 138.153 179.419 138.153 179.419 138.086V137.62C179.419 137.62 179.352 137.554 179.286 137.554Z" fill="#DDE4E8"/>
<path d="M179.286 136.356C179.219 136.356 179.152 136.356 179.152 136.423V136.889C179.152 136.889 179.219 136.955 179.286 136.955C179.352 136.955 179.419 136.955 179.419 136.889V136.423C179.419 136.356 179.352 136.356 179.286 136.356Z" fill="#DDE4E8"/>
<path d="M179.286 140.083C179.219 140.083 179.152 140.083 179.152 140.15V140.616C179.152 140.616 179.219 140.683 179.286 140.683C179.352 140.683 179.419 140.683 179.419 140.616V140.15C179.419 140.083 179.352 140.083 179.286 140.083Z" fill="#DDE4E8"/>
<path d="M179.286 142.547C179.219 142.547 179.152 142.547 179.152 142.613V143.079C179.152 143.079 179.219 143.146 179.286 143.146C179.352 143.146 179.419 143.146 179.419 143.079V142.613C179.419 142.547 179.352 142.547 179.286 142.547Z" fill="#DDE4E8"/>
<path d="M179.286 141.282C179.219 141.282 179.152 141.282 179.152 141.349V141.815C179.152 141.815 179.219 141.881 179.286 141.881C179.352 141.881 179.419 141.881 179.419 141.815V141.349C179.419 141.349 179.352 141.282 179.286 141.282Z" fill="#DDE4E8"/>
<path d="M179.286 143.812C179.219 143.812 179.152 143.812 179.152 143.879V144.345C179.152 144.345 179.219 144.411 179.286 144.411C179.352 144.411 179.419 144.411 179.419 144.345V143.879C179.419 143.812 179.352 143.812 179.286 143.812Z" fill="#DDE4E8"/>
<path d="M179.286 145.01C179.219 145.01 179.152 145.01 179.152 145.077V145.543C179.152 145.543 179.219 145.609 179.286 145.609C179.352 145.609 179.419 145.609 179.419 145.543V145.077C179.419 145.077 179.352 145.01 179.286 145.01Z" fill="#DDE4E8"/>
<path d="M180.551 154.598C180.551 155.33 179.952 155.929 179.219 155.929C178.487 155.929 177.888 155.33 177.888 154.598C177.888 153.865 178.487 153.266 179.219 153.266C180.018 153.266 180.551 153.865 180.551 154.598Z" fill="#DDE4E8"/>
<path d="M213.172 138.952C212.906 139.086 212.64 139.219 212.374 139.285C212.041 139.352 211.974 139.884 212.24 140.084C212.64 140.484 212.906 141.016 213.039 141.549C213.239 142.614 212.84 143.413 212.041 144.079C211.708 144.345 211.375 144.545 210.975 144.744C210.842 144.811 210.776 144.878 210.709 144.944H184.745V137.821C185.145 137.554 185.544 137.222 185.943 136.955C186.01 136.955 186.01 136.889 186.077 136.889C186.077 136.889 186.077 136.889 186.143 136.822C188.34 134.026 189.805 131.03 191.469 127.901C192.601 125.771 192.867 121.244 192.867 119.579C192.867 118.914 193.4 117.782 194.731 117.782C195.064 117.782 195.797 117.782 196.196 117.981C196.729 118.181 197.128 118.847 197.527 119.646C198.127 120.778 198.459 122.043 198.859 123.307C198.992 123.773 199.125 124.239 199.192 124.705C199.258 125.038 199.258 125.438 199.192 125.771C199.192 126.17 199.125 126.57 199.125 126.969C199.059 127.768 198.926 128.567 198.792 129.366C198.659 130.231 198.459 131.03 198.326 131.896C198.326 131.962 198.326 132.029 198.326 132.095C198.06 133.16 199.125 133.826 199.791 134.093C199.991 134.159 200.656 134.226 200.856 134.226C204.451 134.226 210.443 134.226 211.175 134.226C211.641 134.226 212.174 134.226 212.64 134.226C213.439 134.292 214.304 134.758 214.571 135.823C214.77 137.022 214.171 138.287 213.172 138.952Z" fill="#F6F4F4"/>
<path d="M184.745 136.556V145.011H175.957V136.556C175.957 135.691 176.556 135.025 177.422 135.025H183.147C184.079 135.025 184.745 135.691 184.745 136.556Z" fill="#64B5F6"/>
<path d="M179.286 138.752C179.219 138.752 179.152 138.752 179.152 138.819V139.285C179.152 139.285 179.219 139.352 179.286 139.352C179.352 139.352 179.419 139.352 179.419 139.285V138.819C179.419 138.752 179.352 138.752 179.286 138.752Z" fill="#CFD4D7"/>
<path d="M179.286 137.488C179.219 137.488 179.152 137.488 179.152 137.555V138.021C179.152 138.021 179.219 138.087 179.286 138.087C179.352 138.087 179.419 138.087 179.419 138.021V137.555C179.419 137.488 179.352 137.488 179.286 137.488Z" fill="#CFD4D7"/>
<path d="M179.286 136.223C179.219 136.223 179.152 136.223 179.152 136.29V136.756C179.152 136.756 179.219 136.822 179.286 136.822C179.352 136.822 179.419 136.822 179.419 136.756V136.29C179.419 136.29 179.352 136.223 179.286 136.223Z" fill="#CFD4D7"/>
<path d="M179.286 139.951C179.219 139.951 179.152 139.951 179.152 140.017V140.483C179.152 140.483 179.219 140.55 179.286 140.55C179.352 140.55 179.419 140.55 179.419 140.483V140.017C179.419 140.017 179.352 139.951 179.286 139.951Z" fill="#CFD4D7"/>
<path d="M179.286 142.481C179.219 142.481 179.152 142.481 179.152 142.548V143.014C179.152 143.014 179.219 143.081 179.286 143.081C179.352 143.081 179.419 143.081 179.419 143.014V142.548C179.419 142.481 179.352 142.481 179.286 142.481Z" fill="#CFD4D7"/>
<path d="M179.286 141.216C179.219 141.216 179.152 141.216 179.152 141.282V141.748C179.152 141.748 179.219 141.815 179.286 141.815C179.352 141.815 179.419 141.815 179.419 141.748V141.282C179.419 141.216 179.352 141.216 179.286 141.216Z" fill="#CFD4D7"/>
<path d="M179.286 143.679C179.219 143.679 179.152 143.679 179.152 143.746V144.212C179.152 144.212 179.219 144.278 179.286 144.278C179.352 144.278 179.419 144.278 179.419 144.212V143.746C179.419 143.746 179.352 143.679 179.286 143.679Z" fill="#CFD4D7"/>
<path d="M179.419 145.011H179.152C179.152 145.011 179.219 144.944 179.286 144.944C179.353 144.944 179.419 144.944 179.419 145.011Z" fill="#CFD4D7"/>
<path d="M156.517 67.518L99.5293 58.4639L127.69 95.6125L138.609 80.8329L141.871 85.1603L138.808 71.6456L156.517 67.518Z" fill="#64B5F6"/>
<path d="M138.409 71.5125L99.5293 58.4639L138.609 80.8329L141.871 85.1603L138.808 71.6456L138.409 71.5125Z" fill="#E3F2FE"/>
<path d="M138.608 80.8325L137.477 82.4303L141.87 85.1599L138.608 80.8325Z" fill="#19207C"/>
<path d="M373.948 129.499V160.855C373.948 162.52 372.684 163.918 371.019 163.918H335.801C334.137 163.918 332.539 162.52 332.539 160.855V129.432C332.539 127.768 334.137 126.303 335.801 126.303H371.019C372.684 126.37 373.948 127.834 373.948 129.499Z" fill="#F6F4F4"/>
<path opacity="0.07" d="M376.279 125.105V131.097C376.279 132.428 375.413 133.56 374.281 133.959C374.215 133.959 374.082 134.026 374.015 134.026V135.424H332.872V134.026C331.54 133.693 330.608 132.495 330.608 131.097V125.105C330.608 123.441 332.006 122.042 333.671 122.042H373.216C374.88 122.042 376.279 123.374 376.279 125.105Z" fill="#231F20"/>
<path d="M376.279 125.105V131.097C376.279 132.428 375.413 133.56 374.281 133.959C374.215 133.959 374.082 134.026 374.015 134.026C373.749 134.093 373.482 134.093 373.216 134.093H333.671C333.471 134.093 333.338 134.093 333.138 134.026C333.072 134.026 332.939 133.959 332.872 133.959C331.54 133.627 330.608 132.428 330.608 131.03V125.038C330.608 123.374 332.006 121.976 333.671 121.976H373.216C374.88 122.043 376.279 123.374 376.279 125.105Z" fill="#F6F4F4"/>
<path d="M356.04 122.042H351.113V163.652H356.04V122.042Z" fill="#80D7FE"/>
<path d="M356.04 134.092H351.113V163.917H356.04V134.092Z" fill="#64B5F6"/>
<path d="M373.948 140.55H332.539V145.476H373.948V140.55Z" fill="#64B5F6"/>
<path d="M373.948 140.55H332.539V145.476H373.948V140.55Z" fill="#64B5F6"/>
<path d="M351.779 119.979L343.457 114.054C343.457 114.054 338.531 110.059 337.333 114.852C337.333 114.852 335.735 117.582 336.401 122.042H352.645C352.645 122.042 351.713 121.31 351.779 119.979Z" fill="#64B5F6"/>
<path d="M341.526 112.922L346.586 107.063L351.779 118.98L352.045 120.578L350.514 119.712L341.526 112.922Z" fill="#80D7FE"/>
<path d="M355.906 119.979L364.228 114.054C364.228 114.054 369.155 110.059 370.353 114.852C370.353 114.852 371.951 117.582 371.285 122.042H355.041C355.041 122.042 355.973 121.31 355.906 119.979Z" fill="#64B5F6"/>
<path d="M366.159 112.922L361.1 107.063L355.907 118.98L355.641 120.578L357.172 119.712L366.159 112.922Z" fill="#80D7FE"/>
<path d="M347.252 122.042H347.585C347.585 121.843 347.451 121.709 347.252 121.709H346.852H346.719H342.858C342.658 121.709 342.458 121.909 342.458 122.109L341.193 131.23C341.193 131.496 341.393 131.563 341.593 131.496L343.124 130.83C343.324 130.764 343.723 130.764 343.923 130.83L345.654 131.496C345.854 131.563 346.053 131.496 346.053 131.23L347.252 122.042Z" fill="#80D7FE"/>
<path d="M359.435 122.042H359.103C359.103 121.843 359.236 121.709 359.435 121.709H359.835H359.968H363.829C364.029 121.709 364.229 121.909 364.229 122.109L365.76 128.633C365.76 128.833 365.56 128.966 365.361 128.9L363.829 128.234C363.63 128.167 363.297 128.167 363.03 128.234L361.299 128.9C361.1 128.966 360.9 128.833 360.9 128.633L359.435 122.042Z" fill="#80D7FE"/>
<path d="M356.506 121.31C356.506 121.776 356.106 122.109 355.707 122.109H351.646C351.18 122.109 350.847 121.776 350.847 121.31V118.58C350.847 118.114 351.18 117.781 351.646 117.781H355.707C356.173 117.781 356.506 118.114 356.506 118.58V121.31Z" fill="#80D7FE"/>
<path d="M271.358 126.836C271.092 126.836 270.825 126.703 270.626 126.504C270.493 126.304 270.426 126.104 270.426 125.838L270.359 124.573C269.627 124.44 268.895 124.174 268.229 123.774L267.297 124.706C267.097 124.906 266.831 125.039 266.565 125.039C266.298 125.039 266.032 124.972 265.832 124.773L263.835 122.842C263.436 122.443 263.369 121.777 263.769 121.377L264.701 120.445C264.368 119.913 264.035 119.247 263.769 118.382H262.504C261.971 118.382 261.572 117.982 261.505 117.383L261.438 114.587C261.438 113.988 261.771 113.588 262.371 113.588H263.635C263.769 112.856 264.035 112.19 264.434 111.458L263.502 110.526C263.103 110.126 263.103 109.461 263.502 109.061L265.433 107.064C265.633 106.864 265.899 106.731 266.165 106.731C266.432 106.731 266.698 106.798 266.898 106.997L267.896 107.929C268.562 107.53 269.294 107.197 270.027 106.997L269.96 105.732C269.96 105 270.359 104.734 270.825 104.667L273.622 104.601C273.888 104.601 274.154 104.667 274.354 104.867C274.554 105.067 274.687 105.333 274.687 105.599L274.753 106.864C275.552 107.064 276.151 107.33 276.817 107.663L277.683 106.731C278.082 106.332 278.748 106.265 279.147 106.664L281.145 108.595C281.344 108.795 281.477 109.061 281.477 109.327C281.477 109.594 281.411 109.86 281.211 110.06L280.279 111.058C280.679 111.724 281.011 112.39 281.211 113.122H282.476C282.742 113.122 283.009 113.189 283.208 113.322C283.475 113.522 283.608 113.721 283.608 114.054L283.674 116.85C283.674 117.449 283.142 117.915 282.543 117.915H281.211C281.011 118.648 280.745 119.38 280.412 119.979L281.344 120.911C281.544 121.111 281.677 121.377 281.677 121.644C281.677 121.91 281.611 122.176 281.411 122.376L279.48 124.373C279.28 124.573 279.014 124.706 278.748 124.706C278.482 124.706 278.215 124.64 278.016 124.44L277.083 123.574C276.484 123.974 275.885 124.24 275.086 124.506V125.771C275.086 126.038 274.953 126.304 274.82 126.504C274.62 126.703 274.354 126.836 274.088 126.836H271.358ZM268.096 122.709L268.362 122.842C269.228 123.308 269.96 123.574 270.825 123.774L271.158 123.841L271.225 125.771C271.225 125.904 271.225 125.971 271.292 126.038C271.292 126.038 271.292 126.038 271.358 126.038L274.154 125.971C274.221 125.971 274.287 125.904 274.354 125.904C274.421 125.838 274.421 125.771 274.421 125.705L274.354 123.774L274.687 123.707C275.619 123.508 276.285 123.108 277.017 122.642L277.683 122.176L277.616 122.775L278.615 123.774C278.681 123.841 278.748 123.841 278.814 123.841C278.881 123.841 278.948 123.841 279.014 123.774L280.945 121.777C281.011 121.71 281.011 121.644 281.011 121.577C281.011 121.511 281.011 121.444 280.945 121.377L279.547 120.046L279.68 119.78C280.079 119.114 280.412 118.248 280.612 117.316L280.679 116.983L282.609 116.917C282.742 116.917 282.942 116.784 282.942 116.651L282.875 113.854C282.875 113.854 282.875 113.788 282.809 113.788C282.742 113.721 282.609 113.721 282.543 113.721L280.612 113.788L280.545 113.455C280.346 112.59 280.013 111.857 279.48 111.058L279.414 110.925L279.48 110.592L280.679 109.327C280.745 109.261 280.745 109.194 280.745 109.128C280.745 109.061 280.745 108.995 280.679 108.928L278.681 106.997C278.548 106.931 278.415 106.931 278.348 106.997L277.017 108.395L276.751 108.262C275.952 107.796 275.286 107.53 274.354 107.33L274.021 107.264L273.954 105.333C273.954 105.266 273.954 105.266 273.888 105.2C273.821 105.133 273.755 105.133 273.688 105.133L270.892 105.2C270.825 105.2 270.825 105.2 270.825 105.2C270.825 105.2 270.759 105.266 270.825 105.399L270.892 107.33L270.559 107.397C269.694 107.596 268.895 107.929 268.163 108.462L268.029 108.528H267.696L266.432 107.33C266.365 107.264 266.298 107.264 266.232 107.264C266.165 107.264 266.099 107.264 266.032 107.33L264.101 109.327C264.035 109.394 264.035 109.461 264.035 109.527C264.035 109.594 264.035 109.66 264.101 109.727L265.5 111.125L265.366 111.391C264.9 112.257 264.634 112.989 264.434 113.854L264.368 114.187L262.437 114.254C262.304 114.254 262.304 114.254 262.304 114.454L262.371 117.25C262.371 117.449 262.504 117.449 262.504 117.449L264.434 117.383L264.501 117.716C264.701 118.581 265.033 119.247 265.566 120.112L265.699 120.246L265.633 120.512L264.434 121.777C264.368 121.91 264.368 122.043 264.434 122.11L266.432 124.04C266.498 124.107 266.565 124.107 266.631 124.107C266.698 124.107 266.764 124.107 266.831 124.04L268.096 122.709ZM272.49 120.112C271.957 120.112 271.425 120.046 270.959 119.846C270.892 119.846 270.892 119.78 270.825 119.78C270.759 119.78 270.759 119.713 270.692 119.713C270.559 119.646 270.426 119.58 270.293 119.513C270.226 119.447 270.16 119.447 270.093 119.38C270.027 119.314 269.96 119.314 269.893 119.247L269.827 119.18C269.694 119.047 269.494 118.914 269.361 118.781C269.228 118.648 269.095 118.515 268.961 118.315C268.895 118.248 268.895 118.182 268.828 118.115C268.695 117.916 268.562 117.716 268.495 117.449C268.229 116.917 268.096 116.318 268.096 115.719C268.096 114.454 268.562 113.255 269.427 112.39C269.494 112.323 269.561 112.257 269.694 112.19L269.76 112.124C269.827 112.057 269.893 112.057 269.96 111.99C270.16 111.857 270.293 111.724 270.493 111.657C270.559 111.657 270.626 111.591 270.692 111.591C271.225 111.325 271.824 111.191 272.423 111.191C273.089 111.191 273.821 111.325 274.421 111.591C274.487 111.591 274.554 111.657 274.62 111.657C274.687 111.724 274.82 111.791 274.887 111.791C274.953 111.857 275.02 111.857 275.086 111.924L275.153 111.99C275.219 112.057 275.286 112.057 275.353 112.124C275.419 112.19 275.486 112.257 275.619 112.323C275.685 112.39 275.752 112.39 275.752 112.456C275.885 112.59 276.018 112.723 276.085 112.856C276.151 112.922 276.151 112.989 276.218 113.056C276.285 113.122 276.285 113.189 276.351 113.255C276.418 113.322 276.484 113.455 276.484 113.522C276.817 114.121 276.95 114.786 276.95 115.452C276.95 115.852 276.95 116.185 276.817 116.584C276.817 116.651 276.751 116.717 276.751 116.784C276.751 116.917 276.684 116.983 276.617 117.117C276.617 117.183 276.551 117.25 276.551 117.316C276.551 117.383 276.484 117.383 276.484 117.449C276.418 117.516 276.418 117.649 276.351 117.716C276.285 117.782 276.285 117.849 276.218 117.915C276.218 117.982 276.151 117.982 276.151 118.049C276.151 118.115 276.085 118.115 276.085 118.182L276.018 118.248C275.952 118.315 275.952 118.382 275.885 118.448L275.819 118.515C275.752 118.581 275.752 118.648 275.685 118.648L275.619 118.714C275.552 118.781 275.419 118.914 275.286 118.981L275.219 119.047C275.153 119.114 275.086 119.114 275.02 119.18C274.953 119.247 274.887 119.247 274.82 119.314L274.753 119.38C274.687 119.447 274.62 119.447 274.554 119.513C273.954 119.846 273.289 120.046 272.556 120.046C272.556 120.112 272.49 120.112 272.49 120.112ZM272.49 112.057H272.423C271.957 112.057 271.491 112.19 271.025 112.39C270.959 112.39 270.892 112.456 270.892 112.456C270.759 112.523 270.559 112.656 270.426 112.723C270.359 112.789 270.359 112.789 270.293 112.856L270.226 112.922C270.16 112.989 270.093 113.056 270.027 113.122C269.294 113.854 268.895 114.786 268.895 115.852C268.895 116.318 269.028 116.85 269.228 117.25C269.294 117.449 269.427 117.583 269.494 117.782C269.561 117.849 269.561 117.915 269.627 117.915C269.76 118.049 269.827 118.182 269.96 118.315C270.093 118.448 270.226 118.515 270.359 118.648L270.426 118.714C270.493 118.714 270.493 118.781 270.559 118.781C270.626 118.781 270.626 118.848 270.692 118.848C270.825 118.914 270.892 118.981 271.025 118.981C271.092 118.981 271.092 118.981 271.158 119.047C271.225 119.047 271.225 119.047 271.292 119.114C271.758 119.247 272.157 119.38 272.623 119.314C273.222 119.314 273.755 119.18 274.287 118.848C274.354 118.848 274.421 118.781 274.421 118.781C274.421 118.781 274.487 118.781 274.487 118.714C274.554 118.714 274.554 118.648 274.62 118.648C274.687 118.581 274.687 118.581 274.753 118.515L274.82 118.448C274.887 118.382 275.02 118.315 275.086 118.182L275.153 118.115C275.219 118.049 275.219 118.049 275.286 117.982L275.353 117.915C275.419 117.849 275.419 117.849 275.486 117.782L275.552 117.716C275.552 117.649 275.619 117.649 275.619 117.583C275.619 117.516 275.685 117.516 275.685 117.449C275.685 117.383 275.752 117.316 275.752 117.316C275.819 117.25 275.819 117.183 275.885 117.117C275.885 117.05 275.885 117.05 275.952 116.983C275.952 116.917 276.018 116.85 276.018 116.85C276.018 116.784 276.085 116.651 276.085 116.584C276.085 116.517 276.085 116.451 276.151 116.384C276.218 116.118 276.218 115.785 276.218 115.452C276.218 114.92 276.085 114.387 275.819 113.921C275.752 113.854 275.752 113.788 275.685 113.721C275.685 113.655 275.619 113.655 275.619 113.588C275.619 113.522 275.552 113.522 275.486 113.455C275.419 113.322 275.286 113.255 275.219 113.122C275.153 113.056 275.153 113.056 275.086 112.989C275.02 112.922 274.953 112.856 274.887 112.789C274.82 112.723 274.82 112.723 274.753 112.656L274.687 112.59C274.62 112.523 274.62 112.523 274.554 112.523C274.487 112.456 274.421 112.456 274.354 112.39C274.287 112.39 274.221 112.323 274.221 112.323C273.555 112.19 273.022 112.057 272.49 112.057Z" fill="#64B5F6"/>
<path d="M480.535 184.556C480.402 184.556 480.202 184.49 480.135 184.357C480.069 184.223 480.002 184.09 480.002 183.957V183.225C479.536 183.158 479.137 182.958 478.737 182.759L478.205 183.291C478.072 183.424 477.938 183.491 477.805 183.491C477.672 183.491 477.472 183.424 477.406 183.358L476.207 182.226C475.941 182.026 475.941 181.627 476.207 181.361L476.74 180.828C476.54 180.495 476.341 180.162 476.207 179.63H475.475C475.142 179.63 474.943 179.43 474.943 179.031L474.876 177.433C474.876 177.1 475.076 176.9 475.409 176.834H476.141C476.207 176.434 476.407 176.035 476.607 175.635L476.074 175.103C475.808 174.903 475.808 174.503 476.074 174.237L477.206 173.039C477.339 172.906 477.472 172.839 477.606 172.839C477.739 172.839 477.938 172.906 478.005 172.972L478.604 173.505C479.004 173.239 479.403 173.105 479.802 172.972V172.24C479.802 171.841 480.069 171.641 480.268 171.641L481.866 171.574C481.999 171.574 482.199 171.641 482.266 171.707C482.399 171.841 482.465 171.974 482.465 172.107V172.839C482.931 172.906 483.264 173.105 483.664 173.305L484.196 172.773C484.396 172.506 484.796 172.506 485.062 172.773L486.26 173.904C486.393 174.037 486.46 174.171 486.46 174.304C486.46 174.437 486.393 174.637 486.26 174.703L485.728 175.236C485.994 175.635 486.127 176.035 486.26 176.434H486.993C487.126 176.434 487.325 176.501 487.392 176.567C487.525 176.634 487.658 176.834 487.658 176.967L487.725 178.565C487.725 178.897 487.392 179.164 487.059 179.164H486.327C486.194 179.563 486.061 180.029 485.861 180.362L486.393 180.895C486.527 181.028 486.593 181.161 486.593 181.294C486.593 181.427 486.527 181.627 486.46 181.694L485.328 182.892C485.195 183.025 485.062 183.092 484.929 183.092C484.796 183.092 484.596 183.025 484.529 182.958L483.997 182.426C483.664 182.626 483.264 182.825 482.865 182.958V183.691C482.865 183.824 482.798 184.024 482.665 184.157C482.532 184.29 482.399 184.357 482.266 184.357L480.535 184.556ZM478.671 182.16L478.804 182.226C479.27 182.492 479.736 182.692 480.268 182.759H480.468V183.891C480.468 183.957 480.468 184.024 480.535 184.024L482.133 183.957C482.199 183.957 482.199 183.957 482.266 183.891C482.266 183.824 482.332 183.824 482.332 183.757V182.626L482.532 182.559C483.065 182.426 483.464 182.226 483.864 181.96L484.263 181.694V182.026L484.862 182.559C484.862 182.559 484.929 182.626 484.995 182.626C485.062 182.626 485.062 182.626 485.062 182.559L486.194 181.361C486.194 181.361 486.26 181.294 486.26 181.228C486.26 181.161 486.26 181.161 486.194 181.094L485.395 180.295L485.461 180.162C485.661 179.763 485.861 179.297 485.994 178.764L486.06 178.565H487.192C487.259 178.565 487.392 178.498 487.392 178.431L487.325 176.834C487.325 176.834 487.325 176.834 487.259 176.767C487.192 176.767 487.126 176.7 487.126 176.7H485.994L485.927 176.501C485.794 175.968 485.594 175.569 485.328 175.103L485.262 175.036V174.836L485.927 174.104C485.927 174.104 485.994 174.037 485.994 173.971C485.994 173.904 485.994 173.904 485.927 173.838L484.729 172.706C484.662 172.639 484.596 172.639 484.529 172.706L483.797 173.505L483.664 173.438C483.198 173.172 482.865 172.972 482.266 172.906H482.066V171.774C482.066 171.774 482.066 171.707 481.999 171.707C481.933 171.707 481.933 171.641 481.866 171.641L480.268 171.707C480.268 171.707 480.268 171.774 480.268 171.841V172.972L480.069 173.039C479.536 173.172 479.137 173.372 478.671 173.638L478.604 173.705H478.404L477.672 173.039C477.672 173.039 477.606 172.972 477.539 172.972C477.472 172.972 477.472 172.972 477.406 173.039L476.274 174.237C476.274 174.237 476.207 174.304 476.207 174.37C476.207 174.437 476.207 174.437 476.274 174.503L477.073 175.302L477.006 175.436C476.74 175.968 476.54 176.368 476.474 176.834V177.033H475.342C475.275 177.033 475.275 177.033 475.275 177.166L475.342 178.764C475.342 178.897 475.409 178.897 475.409 178.897H476.54L476.607 179.097C476.74 179.563 476.873 179.963 477.206 180.495L477.273 180.562L477.206 180.695L476.54 181.427C476.474 181.494 476.474 181.56 476.54 181.627L477.739 182.759C477.739 182.759 477.805 182.825 477.872 182.825C477.938 182.825 477.938 182.825 478.005 182.759L478.671 182.16ZM481.201 180.695C480.868 180.695 480.601 180.628 480.335 180.562H480.268H480.202C480.135 180.562 480.069 180.495 480.002 180.429C479.936 180.429 479.936 180.362 479.869 180.362C479.802 180.362 479.802 180.295 479.736 180.295C479.736 180.295 479.736 180.295 479.669 180.229C479.603 180.162 479.47 180.096 479.403 180.029C479.336 179.963 479.27 179.829 479.137 179.763C479.137 179.696 479.07 179.696 479.07 179.63C479.004 179.497 478.937 179.363 478.87 179.23C478.737 178.897 478.671 178.565 478.671 178.232C478.671 177.499 478.937 176.834 479.47 176.301C479.536 176.234 479.536 176.234 479.603 176.168C479.603 176.168 479.603 176.168 479.669 176.101L479.736 176.035C479.869 175.968 479.936 175.902 480.069 175.835C480.135 175.835 480.135 175.768 480.202 175.768C480.535 175.635 480.868 175.569 481.201 175.569C481.6 175.569 481.999 175.635 482.399 175.835C482.465 175.835 482.465 175.902 482.532 175.902C482.599 175.902 482.665 175.968 482.665 175.968C482.732 175.968 482.732 176.035 482.798 176.035C482.798 176.035 482.865 176.035 482.865 176.101L482.931 176.168C482.998 176.234 482.998 176.234 483.065 176.301L483.131 176.368C483.198 176.434 483.264 176.501 483.331 176.634C483.331 176.634 483.398 176.7 483.398 176.767C483.398 176.834 483.464 176.834 483.464 176.9C483.464 176.967 483.531 177.033 483.531 177.033C483.73 177.366 483.797 177.766 483.797 178.165C483.797 178.365 483.797 178.565 483.73 178.831C483.73 178.897 483.73 178.897 483.73 178.964C483.73 179.031 483.664 179.097 483.664 179.164C483.664 179.23 483.664 179.23 483.597 179.297V179.363C483.597 179.43 483.531 179.497 483.531 179.497C483.531 179.563 483.464 179.563 483.464 179.63L483.398 179.696C483.398 179.696 483.398 179.763 483.331 179.763C483.331 179.763 483.331 179.829 483.264 179.829L483.198 179.896C483.198 179.896 483.198 179.896 483.131 179.963L483.065 180.029C483.065 180.029 483.065 180.029 482.998 180.096C482.932 180.162 482.865 180.229 482.798 180.229C482.798 180.229 482.798 180.229 482.732 180.295L482.665 180.362C482.599 180.362 482.599 180.429 482.532 180.429C482.532 180.429 482.532 180.429 482.465 180.429C482.399 180.429 482.399 180.495 482.332 180.495C481.999 180.695 481.6 180.828 481.201 180.828C481.267 180.695 481.201 180.695 481.201 180.695ZM481.201 176.035C481.201 176.035 481.134 176.035 481.201 176.035C480.868 176.035 480.601 176.101 480.335 176.234C480.335 176.234 480.268 176.234 480.268 176.301C480.202 176.368 480.069 176.368 480.002 176.434L479.936 176.501C479.936 176.501 479.936 176.501 479.869 176.501C479.802 176.501 479.802 176.567 479.736 176.634C479.336 177.033 479.07 177.633 479.07 178.232C479.07 178.498 479.137 178.764 479.27 179.031C479.336 179.164 479.403 179.23 479.47 179.363L479.536 179.43C479.603 179.497 479.669 179.563 479.736 179.63C479.802 179.696 479.869 179.763 479.936 179.829C479.936 179.829 479.936 179.829 480.002 179.829L480.069 179.896L480.135 179.963C480.202 180.029 480.269 180.029 480.335 180.029H480.402H480.468C480.735 180.096 481.001 180.162 481.267 180.162C481.6 180.162 481.933 180.096 482.199 179.896L482.266 179.829C482.266 179.829 482.266 179.829 482.332 179.829L482.399 179.763L482.465 179.696C482.465 179.696 482.465 179.696 482.532 179.696C482.599 179.63 482.665 179.63 482.665 179.563C482.665 179.563 482.665 179.563 482.732 179.497L482.798 179.43C482.798 179.43 482.798 179.43 482.798 179.363L482.865 179.297C482.865 179.297 482.865 179.297 482.865 179.23C482.865 179.23 482.865 179.164 482.931 179.164C482.931 179.164 482.932 179.097 482.998 179.097L483.065 179.031C483.065 178.964 483.131 178.964 483.131 178.897V178.831C483.131 178.831 483.131 178.764 483.198 178.764C483.198 178.698 483.264 178.698 483.264 178.631V178.565C483.331 178.365 483.331 178.232 483.331 178.032C483.331 177.699 483.264 177.433 483.131 177.1C483.131 177.033 483.065 177.033 483.065 176.967L482.998 176.9L482.931 176.834C482.865 176.767 482.798 176.7 482.798 176.634L482.732 176.567C482.665 176.501 482.665 176.501 482.599 176.434L482.532 176.368C482.532 176.368 482.532 176.368 482.465 176.368L482.399 176.301C482.332 176.301 482.332 176.234 482.266 176.234C482.266 176.234 482.199 176.234 482.199 176.168C481.8 176.101 481.533 176.035 481.201 176.035Z" fill="#64B5F6"/>
<path d="M168.501 205.061C168.501 207.525 166.903 208.856 165.239 208.856C163.441 208.856 162.043 207.525 162.043 205.261C162.043 203.131 163.308 201.533 165.372 201.533C167.302 201.533 168.501 202.998 168.501 205.061ZM164.04 205.128C164.04 206.393 164.44 207.258 165.239 207.258C166.037 207.258 166.37 206.459 166.37 205.128C166.37 203.93 166.037 202.998 165.172 202.998C164.44 203.064 164.04 203.996 164.04 205.128ZM165.372 213.716L172.162 201.466H173.627L166.836 213.716H165.372ZM176.956 209.921C176.956 212.385 175.424 213.716 173.694 213.716C171.896 213.716 170.498 212.385 170.498 210.121C170.498 207.991 171.763 206.393 173.827 206.393C175.824 206.459 176.956 207.924 176.956 209.921ZM172.562 210.054C172.562 211.319 172.961 212.185 173.76 212.185C174.559 212.185 174.892 211.386 174.892 210.054C174.892 208.856 174.559 207.924 173.76 207.924C172.895 207.924 172.562 208.856 172.562 210.054Z" fill="#64B5F6"/>
<path d="M332.674 196.939C332.674 199.402 331.142 200.734 329.411 200.734C327.614 200.734 326.216 199.402 326.216 197.139C326.216 195.008 327.481 193.411 329.545 193.411C331.542 193.477 332.674 194.942 332.674 196.939ZM328.28 197.072C328.28 198.337 328.679 199.203 329.478 199.203C330.277 199.203 330.61 198.404 330.61 197.072C330.61 195.874 330.277 194.942 329.411 194.942C328.679 194.942 328.28 195.94 328.28 197.072ZM329.611 205.66L336.402 193.411H337.866L331.076 205.66H329.611ZM341.195 201.866C341.195 204.329 339.664 205.66 337.933 205.66C336.135 205.66 334.737 204.329 334.737 202.065C334.737 199.935 336.002 198.337 338.066 198.337C340.063 198.337 341.195 199.868 341.195 201.866ZM336.801 201.999C336.801 203.264 337.201 204.129 337.999 204.129C338.798 204.129 339.131 203.33 339.131 201.999C339.131 200.8 338.798 199.868 337.999 199.868C337.134 199.868 336.801 200.8 336.801 201.999Z" fill="white"/>
<path d="M88.2107 212.186H71.3008V220.774H88.2107V212.186Z" fill="#F6F4F4"/>
<path d="M90.408 209.456C91.1403 209.456 91.6063 210.055 91.4066 210.72L88.1444 222.438C88.0113 223.037 87.4787 223.436 86.8129 223.436H72.4994C71.9002 223.436 71.3676 223.037 71.1679 222.438L67.9058 210.72C67.706 209.988 68.1721 209.456 68.9044 209.456H90.408ZM84.6826 219.508C84.5494 220.241 84.8823 220.84 85.3483 220.84C85.8143 220.84 86.3469 220.241 86.5466 219.508L87.6784 214.449C87.8116 213.716 87.4787 213.117 86.8129 213.117C86.2138 213.117 85.6146 213.716 85.4815 214.449L84.6826 219.508ZM80.8878 219.442C80.8878 220.174 81.2207 220.773 81.7533 220.773C82.2193 220.773 82.6853 220.174 82.7519 219.442L83.2179 214.449C83.2845 213.716 82.8185 213.117 82.2193 213.117C81.6201 213.117 81.0875 213.716 81.021 214.449L80.8878 219.442ZM77.0265 219.442C77.0931 220.174 77.5591 220.773 78.0251 220.773C78.4911 220.773 78.8906 220.174 78.8906 219.442L78.7574 214.449C78.7574 213.716 78.2248 213.117 77.6257 213.117C77.0265 213.117 76.5605 213.716 76.627 214.449L77.0265 219.442ZM73.1652 219.508C73.2983 220.241 73.8309 220.84 74.3635 220.84C74.8295 220.84 75.1624 220.241 75.0958 219.508L74.3635 214.449C74.2304 213.716 73.6312 213.117 73.032 213.117C72.4328 213.117 72.0334 213.716 72.1665 214.449L73.1652 219.508Z" fill="#64B5F6"/>
<path d="M70.9016 210.454C70.7685 210.321 70.7685 210.055 70.9016 209.855L79.29 201.001C79.4232 200.868 79.6895 200.868 79.8226 201.001C79.9558 201.134 79.9558 201.4 79.8226 201.6L71.4342 210.454C71.3011 210.587 71.0348 210.587 70.9016 210.454Z" fill="#64B5F6"/>
<path d="M88.9432 210.388C89.0763 210.255 89.1429 209.988 89.0097 209.789L82.0194 198.604C81.8863 198.404 81.6865 198.404 81.4868 198.538C81.3537 198.671 81.2871 198.937 81.4202 199.137L88.4106 210.321C88.5437 210.454 88.7434 210.521 88.9432 210.388Z" fill="#64B5F6"/>
<path d="M310.704 196.606C310.704 198.004 309.705 199.136 308.44 199.136H253.25C251.985 199.136 250.986 198.004 250.986 196.606V152.268C250.986 150.87 251.985 149.738 253.25 149.738H308.44C309.705 149.738 310.704 150.87 310.704 152.268V196.606Z" fill="#E3F2FE"/>
<path d="M308.44 149.738H253.25C251.985 149.738 250.986 150.87 250.986 152.268V161.988H310.77V152.268C310.704 150.87 309.705 149.738 308.44 149.738Z" fill="#19207C"/>
<path d="M301.25 151.934C301.25 152.6 300.717 153.199 300.118 153.199C299.452 153.199 298.986 152.667 298.986 151.934C298.986 151.269 299.519 150.669 300.118 150.669C300.717 150.736 301.25 151.269 301.25 151.934Z" fill="#F6F4F4"/>
<path d="M305.045 151.934C305.045 152.6 304.512 153.199 303.913 153.199C303.314 153.199 302.781 152.667 302.781 151.934C302.781 151.269 303.314 150.669 303.913 150.669C304.512 150.736 305.045 151.269 305.045 151.934Z" fill="#F6F4F4"/>
<path d="M308.973 151.934C308.973 152.6 308.44 153.199 307.841 153.199C307.242 153.199 306.709 152.667 306.709 151.934C306.709 151.269 307.242 150.669 307.841 150.669C308.44 150.736 308.973 151.269 308.973 151.934Z" fill="#F6F4F4"/>
<path d="M295.791 153.931C295.791 154.996 294.992 155.862 293.993 155.862H259.042C258.043 155.862 257.244 154.996 257.244 153.931C257.244 152.866 258.043 152 259.042 152H293.993C294.992 151.934 295.791 152.866 295.791 153.931Z" fill="white"/>
<path d="M289.533 164.25H253.849V183.957H289.533V164.25Z" fill="white"/>
<path d="M307.774 187.552H253.849V191.147H307.774V187.552Z" fill="#80D7FE"/>
<path d="M307.774 192.811H253.849V196.406H307.774V192.811Z" fill="#80D7FE"/>
<path opacity="0.06" d="M308.44 149.737H280.878V199.069H308.44C309.705 199.069 310.703 197.937 310.703 196.539V152.201C310.703 150.869 309.705 149.737 308.44 149.737Z" fill="#0061FA"/>
<path d="M225.953 261.583L226.752 262.316C226.752 262.316 227.285 261.717 227.817 261.184C228.084 260.918 228.35 260.585 228.55 260.385C228.749 260.119 228.882 259.986 228.882 259.986L228.017 259.32C228.017 259.32 227.884 259.453 227.751 259.653C227.551 259.852 227.285 260.185 227.085 260.452C226.552 260.984 225.953 261.583 225.953 261.583Z" fill="white"/>
<path d="M222.625 264.712L223.291 265.511C223.291 265.511 223.424 265.378 223.69 265.178C223.89 264.979 224.223 264.712 224.489 264.446C225.088 263.914 225.621 263.381 225.621 263.381L224.889 262.582C224.889 262.582 224.356 263.115 223.757 263.647C223.49 263.914 223.158 264.18 222.958 264.38C222.825 264.579 222.625 264.712 222.625 264.712Z" fill="white"/>
<path d="M218.963 267.442L219.562 268.374C219.562 268.374 219.762 268.241 219.962 268.108C220.228 267.908 220.561 267.708 220.827 267.509C221.16 267.309 221.493 267.043 221.692 266.843C221.959 266.643 222.092 266.51 222.092 266.51L221.426 265.645C221.426 265.645 221.293 265.778 221.027 265.911C220.827 266.111 220.494 266.31 220.161 266.51C219.828 266.71 219.562 266.976 219.296 267.109C219.163 267.375 218.963 267.442 218.963 267.442Z" fill="white"/>
<path d="M214.969 269.506L215.302 270.505C215.302 270.505 215.368 270.505 215.435 270.438C215.501 270.371 215.635 270.371 215.768 270.305C215.901 270.238 216.101 270.172 216.234 270.105C216.433 270.039 216.567 269.905 216.766 269.839C216.966 269.772 217.099 269.639 217.299 269.573C217.499 269.506 217.632 269.373 217.765 269.306C217.898 269.24 218.031 269.173 218.098 269.107C218.164 269.04 218.231 269.04 218.231 269.04L217.698 268.108C217.698 268.108 217.632 268.108 217.565 268.174C217.499 268.241 217.365 268.241 217.232 268.308C217.099 268.374 216.966 268.441 216.833 268.507C216.7 268.574 216.5 268.641 216.367 268.774C216.167 268.84 216.034 268.907 215.901 269.04C215.768 269.107 215.568 269.173 215.435 269.24C215.302 269.306 215.168 269.373 215.102 269.373C215.035 269.506 214.969 269.506 214.969 269.506Z" fill="white"/>
<path d="M210.708 270.637V271.769C210.708 271.769 210.908 271.769 211.241 271.703C211.573 271.703 211.906 271.569 212.306 271.503C212.705 271.436 213.105 271.303 213.371 271.237C213.504 271.17 213.637 271.17 213.704 271.103C213.77 271.103 213.837 271.037 213.837 271.037L213.637 269.972C213.637 269.972 213.571 269.972 213.504 270.038C213.438 270.038 213.304 270.105 213.171 270.105C212.905 270.171 212.506 270.305 212.173 270.371C211.773 270.438 211.44 270.504 211.174 270.504C210.841 270.571 210.708 270.637 210.708 270.637Z" fill="white"/>
<path d="M206.248 270.171L205.915 271.237C205.915 271.237 206.115 271.303 206.381 271.37C206.647 271.436 207.047 271.503 207.446 271.569C207.646 271.569 207.846 271.636 208.045 271.636C208.245 271.636 208.378 271.703 208.578 271.703C208.911 271.703 209.111 271.703 209.111 271.703L209.244 270.637C209.244 270.637 209.044 270.637 208.778 270.637C208.645 270.637 208.445 270.637 208.312 270.571C208.112 270.571 207.979 270.504 207.779 270.504C207.38 270.438 207.047 270.371 206.781 270.305C206.448 270.238 206.248 270.171 206.248 270.171Z" fill="white"/>
<path d="M202.453 267.975L201.787 268.84C201.787 268.84 201.92 268.973 202.187 269.173C202.253 269.24 202.32 269.306 202.386 269.306C202.453 269.373 202.519 269.439 202.586 269.439C202.719 269.572 202.919 269.706 203.052 269.772C203.252 269.905 203.385 269.972 203.585 270.105C203.651 270.172 203.718 270.172 203.784 270.238C203.851 270.305 203.917 270.305 203.984 270.371C204.25 270.504 204.45 270.571 204.45 270.571L204.916 269.572C204.916 269.572 204.716 269.506 204.517 269.373C204.45 269.306 204.384 269.306 204.317 269.24C204.25 269.173 204.184 269.173 204.117 269.106C203.984 269.04 203.784 268.907 203.651 268.84C203.518 268.707 203.385 268.64 203.185 268.507C203.119 268.441 203.052 268.374 202.985 268.374C202.919 268.307 202.852 268.241 202.786 268.241C202.586 268.108 202.453 267.975 202.453 267.975Z" fill="white"/>
<path d="M199.59 264.513L198.725 265.178C198.725 265.178 198.858 265.378 198.991 265.578C199.191 265.844 199.39 266.177 199.657 266.51C199.923 266.843 200.189 267.176 200.322 267.375C200.389 267.509 200.522 267.575 200.589 267.642C200.655 267.708 200.655 267.775 200.655 267.775L201.388 266.976C201.388 266.976 201.388 266.909 201.321 266.909C201.254 266.843 201.188 266.776 201.121 266.643C200.922 266.443 200.722 266.11 200.456 265.844C200.256 265.578 199.99 265.245 199.856 264.979C199.657 264.646 199.59 264.513 199.59 264.513Z" fill="white"/>
<path d="M197.194 260.585L196.262 261.184C196.262 261.184 196.328 261.317 196.528 261.584C196.661 261.85 196.861 262.183 197.061 262.516C197.46 263.181 197.86 263.847 197.86 263.847L198.792 263.315L197.194 260.585Z" fill="white"/>
<path d="M194.331 256.723L193.665 257.589C193.665 257.589 193.798 257.722 193.998 257.921C194.064 258.055 194.198 258.121 194.331 258.254C194.464 258.388 194.531 258.521 194.664 258.72C194.863 258.987 195.13 259.32 195.263 259.586C195.396 259.852 195.529 259.985 195.529 259.985L196.395 259.32C196.395 259.32 196.261 259.12 196.128 258.92C195.929 258.654 195.729 258.321 195.463 257.988C195.329 257.855 195.196 257.655 195.063 257.522C194.93 257.389 194.797 257.256 194.73 257.123C194.464 256.856 194.331 256.723 194.331 256.723Z" fill="white"/>
<path d="M190.337 254.127L189.938 255.126C189.938 255.126 190.137 255.193 190.404 255.259C190.537 255.326 190.67 255.392 190.87 255.459C191.003 255.526 191.202 255.592 191.336 255.725C191.535 255.792 191.668 255.925 191.802 255.992C191.935 256.058 192.068 256.191 192.201 256.258C192.401 256.458 192.6 256.524 192.6 256.524L193.2 255.592C193.2 255.592 193.066 255.459 192.8 255.259C192.667 255.193 192.534 255.059 192.334 254.993C192.201 254.926 192.001 254.793 191.802 254.727C191.602 254.66 191.469 254.527 191.269 254.46C191.069 254.394 190.936 254.327 190.803 254.261C190.537 254.194 190.337 254.127 190.337 254.127Z" fill="white"/>
<path d="M185.543 253.728L185.477 254.793C185.676 254.793 185.943 254.793 186.142 254.859C186.941 254.859 187.674 254.859 188.472 254.926L188.805 253.861C187.94 253.794 187.141 253.794 186.275 253.794C186.009 253.728 185.743 253.728 185.543 253.728Z" fill="white"/>
<path d="M181.016 253.128L180.816 254.194C180.816 254.194 181.016 254.26 181.282 254.26C181.549 254.327 181.948 254.393 182.348 254.46C182.547 254.46 182.747 254.526 182.947 254.526C183.147 254.526 183.28 254.593 183.479 254.593C183.746 254.593 183.945 254.66 183.945 254.66L184.079 253.594C184.079 253.594 183.879 253.594 183.613 253.528C183.479 253.528 183.28 253.528 183.147 253.461C182.947 253.461 182.747 253.395 182.614 253.395C182.214 253.328 181.882 253.262 181.549 253.195C181.149 253.195 181.016 253.128 181.016 253.128Z" fill="white"/>
<path d="M176.755 251.73L176.223 252.662C176.223 252.662 176.289 252.662 176.356 252.729C176.422 252.795 176.556 252.795 176.689 252.862C176.822 252.929 176.955 252.995 177.155 253.062C177.354 253.128 177.488 253.195 177.687 253.261C178.087 253.395 178.42 253.528 178.752 253.594C179.019 253.661 179.219 253.727 179.219 253.727L179.485 252.662C179.485 252.662 179.285 252.596 179.019 252.529C178.752 252.462 178.42 252.329 178.02 252.196C177.82 252.13 177.687 252.063 177.488 251.996C177.354 251.93 177.155 251.863 177.022 251.797C176.888 251.73 176.822 251.664 176.689 251.664C176.822 251.73 176.755 251.73 176.755 251.73Z" fill="white"/>
<path d="M133.615 230.559C133.615 230.559 139.274 252.329 162.708 253.394L166.037 246.67L169.366 239.946C154.386 221.905 133.615 230.559 133.615 230.559Z" fill="#64B5F6"/>
<path d="M166.369 246.138L166.303 246.271L162.774 253.394C162.774 253.394 165.97 252.729 167.168 251.464L169.032 247.669L169.099 247.536L170.763 244.207C170.963 242.609 169.432 239.946 169.432 239.946L166.369 246.138Z" fill="#0051C4"/>
<path d="M170.599 244.534L167.14 251.513L169.168 252.518L172.627 245.539L170.599 244.534Z" fill="#64B5F6"/>
<path d="M172.238 246.276L169.489 251.823L170.444 252.296L173.193 246.749L172.238 246.276Z" fill="#80D7FE"/>
<path d="M151.59 249.067L157.914 260.984L162.375 251.131L151.59 249.067Z" fill="#19207C"/>
<path d="M158.314 233.888L171.563 231.758L166.437 241.211L158.314 233.888Z" fill="#19207C"/>
<path d="M140.872 228.763C136.544 229.362 133.682 230.56 133.682 230.56C133.682 230.56 134.481 233.556 136.611 237.351L140.872 228.763Z" fill="#80D7FE"/>
<path d="M179.885 253.461L177.022 249.133L174.159 244.806L171.829 249.466L169.499 254.127L174.692 253.794L179.885 253.461Z" fill="#FF7143"/>
<path d="M177.421 252.396L175.424 249.267L173.493 246.138L171.762 249.6L170.098 253.061L173.759 252.729L177.421 252.396Z" fill="#FF7143"/>
<path d="M174.425 250.998L173.692 249.133L172.894 247.336L171.762 249.666L170.563 251.996L172.494 251.464L174.425 250.998Z" fill="white"/>
<path opacity="0.2" d="M140.872 228.762C137.343 229.228 134.813 230.093 133.948 230.426C133.815 230.493 133.748 230.493 133.682 230.493C133.682 230.493 133.682 230.559 133.748 230.626L179.685 253.394H179.951L177.088 249.067L174.226 244.74L173.56 246.071L173.294 246.604L172.361 246.138L172.694 245.405L170.697 244.407L170.83 244.074C171.03 242.476 169.499 239.813 169.499 239.813C169.033 239.281 168.567 238.748 168.101 238.215L171.629 231.691L162.176 233.222C154.453 228.296 146.397 228.03 140.872 228.762Z" fill="black"/>
<path fill-rule="evenodd" clip-rule="evenodd" d="M420.818 127.568H457.101C458.499 127.568 459.564 128.767 459.564 130.231V177.632C459.564 179.097 458.432 180.295 457.101 180.295H420.818C419.486 180.295 418.354 179.097 418.354 177.632V130.231C418.354 128.767 419.486 127.568 420.818 127.568Z" fill="#19207C"/>
<path d="M457.633 129.898H420.352V177.965H457.633V129.898Z" fill="white"/>
<path fill-rule="evenodd" clip-rule="evenodd" d="M431.27 122.242H446.715V129.898H445.849V123.241H432.068V129.898H431.27V122.242Z" fill="#19207C"/>
<path fill-rule="evenodd" clip-rule="evenodd" d="M430.072 126.836H447.98C448.38 126.836 448.646 127.169 448.646 127.568V130.964C448.646 131.363 448.313 131.696 447.98 131.696H430.072C429.672 131.696 429.406 131.363 429.406 130.964V127.568C429.339 127.169 429.672 126.836 430.072 126.836Z" fill="#64B5F6"/>
<path opacity="0.2" fill-rule="evenodd" clip-rule="evenodd" d="M438.593 126.836H447.98C448.379 126.836 448.646 127.169 448.646 127.568V130.964C448.646 131.363 448.313 131.696 447.98 131.696H438.593V126.836Z" fill="#231F20"/>
<path opacity="0.1" fill-rule="evenodd" clip-rule="evenodd" d="M438.593 127.568H457.167C458.565 127.568 459.63 128.767 459.63 130.231V177.632C459.63 179.097 458.499 180.295 457.167 180.295H438.593V127.568Z" fill="#231F20"/>
<path d="M452.174 138.886H425.012V139.751H452.174V138.886Z" fill="#80D7FE"/>
<path d="M452.174 140.949H425.012V141.815H452.174V140.949Z" fill="#336699"/>
<path d="M452.174 142.946H425.012V143.812H452.174V142.946Z" fill="#80D7FE"/>
<path d="M452.174 145.01H425.012V145.876H452.174V145.01Z" fill="#80D7FE"/>
<path d="M452.174 147.074H425.012V147.94H452.174V147.074Z" fill="#336699"/>
<path d="M452.174 149.071H425.012V149.937H452.174V149.071Z" fill="#80D7FE"/>
<path d="M452.174 151.135H425.012V152.001H452.174V151.135Z" fill="#80D7FE"/>
<path d="M451.575 174.17H424.413V174.903H451.575V174.17Z" fill="#80D7FE"/>
<path fill-rule="evenodd" clip-rule="evenodd" d="M426.81 166.78C427.21 166.78 427.543 167.047 427.543 167.446V174.037H426.145V167.446C426.145 167.047 426.477 166.78 426.81 166.78Z" fill="#80D7FE"/>
<path fill-rule="evenodd" clip-rule="evenodd" d="M429.606 165.981C430.005 165.981 430.338 166.314 430.338 166.714V174.037H428.94V166.714C428.874 166.314 429.206 165.981 429.606 165.981Z" fill="#0056A3"/>
<path fill-rule="evenodd" clip-rule="evenodd" d="M432.336 166.78C432.735 166.78 433.068 167.047 433.068 167.446V174.037H431.67V167.446C431.67 167.047 432.003 166.78 432.336 166.78Z" fill="#80D7FE"/>
<path fill-rule="evenodd" clip-rule="evenodd" d="M435.331 163.053C435.73 163.053 436.063 163.519 436.063 163.985V174.038H434.665V163.985C434.665 163.452 434.931 163.053 435.331 163.053Z" fill="#0056A3"/>
<path fill-rule="evenodd" clip-rule="evenodd" d="M438.26 167.113C438.66 167.113 438.993 167.38 438.993 167.712V174.037H437.594V167.712C437.528 167.38 437.861 167.113 438.26 167.113Z" fill="#80D7FE"/>
<path fill-rule="evenodd" clip-rule="evenodd" d="M441.19 169.91C441.589 169.91 441.922 170.043 441.922 170.243V174.037H440.524V170.243C440.458 170.043 440.79 169.91 441.19 169.91Z" fill="#0056A3"/>
<path fill-rule="evenodd" clip-rule="evenodd" d="M444.252 163.053C444.652 163.053 444.985 163.519 444.985 164.051V174.038H443.587V164.051C443.52 163.519 443.853 163.053 444.252 163.053Z" fill="#0056A3"/>
<path fill-rule="evenodd" clip-rule="evenodd" d="M446.849 163.785C447.248 163.785 447.581 164.184 447.581 164.717V174.037H446.116V164.717C446.116 164.184 446.449 163.785 446.849 163.785Z" fill="#33CC99"/>
<path fill-rule="evenodd" clip-rule="evenodd" d="M449.246 161.255C449.645 161.255 449.978 161.787 449.978 162.387V174.037H448.58V162.387C448.513 161.787 448.846 161.255 449.246 161.255Z" fill="#80D7FE"/>
<path d="M455.769 163.585H453.239V165.848H455.769V163.585Z" fill="#80D7FE"/>
<path d="M455.769 167.313H453.239V169.577H455.769V167.313Z" fill="#33CC99"/>
<path d="M455.769 171.175H453.239V173.438H455.769V171.175Z" fill="#0056A3"/>
<path d="M74.6967 169.243C73.2986 170.841 70.9019 171.041 69.3041 169.643C67.7063 168.245 67.5066 165.848 68.9047 164.25L82.4193 148.472C83.8174 146.874 86.214 146.675 87.8118 148.073C89.4096 149.471 89.6093 151.867 88.2113 153.465L74.6967 169.243Z" fill="#64B5F6"/>
<path d="M75.2288 167.712C74.0971 169.044 72.0333 169.243 70.7018 168.045C69.3703 166.913 69.1706 164.849 70.3689 163.518L81.8197 150.136C82.9515 148.805 85.0153 148.605 86.3468 149.803C87.6783 150.935 87.878 152.999 86.6797 154.331L75.2288 167.712Z" fill="#80D7FE"/>
<path d="M111.978 140.882C107.052 146.608 98.4638 147.274 92.7384 142.347C87.0129 137.421 86.3472 128.832 91.2737 123.107C96.2002 117.382 104.788 116.716 110.514 121.642C116.173 126.569 116.838 135.157 111.978 140.882Z" fill="#E3F2FE"/>
<path opacity="0.1" d="M89.1436 151.001C89.1436 149.936 88.6776 148.871 87.8121 148.072C87.0132 147.406 86.0812 147.14 85.1491 147.14C85.0826 147.939 85.6151 149.004 86.6138 149.87C87.4127 150.669 88.3447 151.001 89.1436 151.001Z" fill="black"/>
<path d="M92.0732 120.378V144.078L97.8652 145.676V117.715L92.0732 120.378Z" fill="white"/>
<path d="M114.841 143.346C121.099 136.023 120.234 124.971 112.91 118.713C105.587 112.455 94.6024 113.321 88.2778 120.644C82.4858 127.435 82.7521 137.354 88.6773 143.812L85.748 147.274C85.748 147.274 85.8811 150.536 89.0101 150.403L92.1391 146.741C99.3958 151.335 109.116 150.07 114.841 143.346ZM92.7383 142.347C87.0129 137.421 86.3472 128.833 91.2737 123.107C96.2002 117.382 104.788 116.716 110.514 121.643C116.239 126.569 116.905 135.157 111.978 140.883C107.052 146.608 98.4637 147.274 92.7383 142.347Z" fill="#19207C"/>
</g>
<path d="M405.839 282.22C405.839 282.22 424.679 338.608 419.952 384.345C418.155 401.721 408.302 479.214 408.169 480.679C407.969 482.143 427.742 481.145 425.878 489C425.212 491.93 393.656 490.066 393.656 490.066C393.656 490.066 394.987 478.482 394.721 468.162C394.255 452.384 392.124 434.276 392.191 423.092C392.324 404.584 402.443 387.94 400.446 381.416C398.449 374.892 373.35 311.18 373.084 286.747L405.839 282.22Z" fill="#FFB5A4"/>
<path d="M374.149 282.819C374.149 282.819 365.295 305.322 365.095 328.623C364.895 351.924 372.351 387.142 372.351 387.142C372.351 387.142 353.844 394.199 342.393 434.077C335.469 458.31 331.275 466.299 331.275 466.299C331.275 466.299 325.15 469.161 327.613 474.288C330.077 479.414 345.056 490.399 347.12 490.865C350.981 491.664 352.046 488.934 351.181 485.938C349.783 481.345 340.662 470.892 340.662 470.892C340.662 470.892 374.282 419.763 384.135 402.92C393.988 386.076 400.513 342.537 403.708 317.771C406.904 293.005 405.905 281.088 405.905 281.088L374.149 282.819Z" fill="#FFB5A4"/>
<path d="M392.076 471C392 481.377 392 491.293 392 491.293C392 491.293 428.097 493.522 428.858 490.063C430.99 480.916 408.373 482.069 408.601 480.455C408.678 480.147 410.201 476.611 410.962 471H392.076Z" fill="#4C04C8"/>
<path d="M334.664 454C331.427 462.959 330.692 466.4 330.692 466.4C330.692 466.4 323.923 469.482 326.645 475.001C329.367 480.52 345.92 492.347 348.201 492.848C352.468 493.709 353.645 490.77 352.688 487.544C351.144 482.599 341.065 471.346 341.065 471.346C341.065 471.346 344.67 467.618 348.569 461.813L334.664 454Z" fill="#4C04C8"/>
<path d="M408.502 283.418L372.485 284.55C356.707 321.632 343.392 376.157 343.392 376.157C343.392 376.157 368.49 385.677 396.651 383.28C424.746 380.817 422.948 380.817 422.948 380.817C422.948 380.817 427.009 323.297 408.502 283.418Z" fill="#121E7B"/>
<path d="M406.637 238.015L441.988 231.89C441.988 231.89 456.301 227.496 459.63 227.496C462.959 227.496 456.967 232.356 456.967 232.356L469.949 231.491C469.949 231.491 472.479 240.545 460.03 242.875C450.842 244.606 447.647 241.144 447.647 241.144C447.647 241.144 426.609 250.93 419.286 252.395C411.963 253.86 411.963 253.86 411.963 253.86L406.637 238.015Z" fill="#FFB5A4"/>
<path d="M413.428 254.525L412.563 236.35C412.563 236.35 398.382 236.816 390.593 228.827C382.804 220.839 380.807 224.833 381.273 235.485C381.739 246.137 397.45 258.786 413.428 254.525Z" fill="#F2F2F2"/>
<path fill-rule="evenodd" clip-rule="evenodd" d="M512.425 257.121C512.425 259.252 510.694 260.983 508.563 260.983H430.937C428.807 260.983 427.076 259.252 427.076 257.121V209.121C427.076 206.991 428.807 205.26 430.937 205.26H508.497C510.627 205.26 512.358 206.991 512.358 209.121V257.121H512.425Z" fill="#121E7B"/>
<path d="M508.896 208.855H430.87V257.055H508.896V208.855Z" fill="white"/>
<path fill-rule="evenodd" clip-rule="evenodd" d="M410.365 260.716C410.299 261.049 410.299 261.382 410.299 261.782C410.299 264.844 412.163 267.307 414.426 267.307H525.34C527.603 267.307 529.467 264.844 529.467 261.782C529.467 261.449 529.467 261.049 529.401 260.716H410.365Z" fill="#64B5F6"/>
<path d="M410.632 263.979C411.298 265.909 412.762 267.307 414.427 267.307H525.34C527.004 267.307 528.469 265.976 529.135 263.979H410.632Z" fill="#121E7B"/>
<path d="M463.758 212.85H436.13V214.181H463.758V212.85Z" fill="#F8BD36"/>
<path d="M463.758 214.713H436.13V216.045H463.758V214.713Z" fill="#F8BD36"/>
<path d="M463.758 216.711H436.13V218.042H463.758V216.711Z" fill="#F8BD36"/>
<path d="M463.758 218.775H436.13V220.106H463.758V218.775Z" fill="#F8BD36"/>
<path d="M464.824 243.673L464.624 242.741L477.007 240.145L477.273 241.077L464.824 243.673Z" fill="#F8BD36"/>
<path d="M468.752 230.425L469.418 229.826L478.405 239.213L477.74 239.812L468.752 230.425Z" fill="#F8BD36"/>
<path d="M467.82 231.224L468.685 231.69L462.694 242.874L461.828 242.408L467.82 231.224Z" fill="#F8BD36"/>
<path d="M464.558 241.476C465.689 243.007 465.423 245.138 463.892 246.203C462.427 247.268 460.297 246.935 459.165 245.404C458.033 243.873 458.3 241.743 459.831 240.677C461.295 239.612 463.426 239.945 464.558 241.476Z" fill="#293593"/>
<path d="M471.282 228.694C472.214 229.959 471.947 231.756 470.749 232.622C469.484 233.554 467.753 233.221 466.821 231.956C465.889 230.691 466.155 228.894 467.354 228.028C468.619 227.096 470.35 227.429 471.282 228.694Z" fill="#FF7143"/>
<path d="M483.065 237.482C484.463 239.412 484.13 242.075 482.266 243.473C480.402 244.871 477.739 244.405 476.275 242.475C474.877 240.544 475.209 237.881 477.074 236.483C478.938 235.152 481.601 235.551 483.065 237.482Z" fill="#14AF95"/>
<path d="M492.053 238.413L492.252 238.147L495.847 240.544L495.714 240.81L492.053 238.413Z" fill="#F8BD36"/>
<path d="M496.18 239.812L495.847 239.878L495.182 235.617L495.448 235.551L496.18 239.812Z" fill="#F8BD36"/>
<path d="M494.888 235.036L491.63 237.782L491.844 238.037L495.102 235.291L494.888 235.036Z" fill="#F8BD36"/>
<path d="M495.448 239.878C495.981 239.545 496.646 239.744 497.046 240.277C497.379 240.81 497.245 241.542 496.713 241.875C496.18 242.208 495.515 242.008 495.115 241.475C494.782 240.876 494.915 240.21 495.448 239.878Z" fill="#293593"/>
<path d="M491.253 237.148C491.719 236.882 492.252 237.015 492.585 237.481C492.851 237.947 492.718 238.546 492.319 238.812C491.853 239.079 491.32 238.945 490.987 238.479C490.721 238.013 490.854 237.414 491.253 237.148Z" fill="#FF7143"/>
<path d="M494.383 233.487C495.049 233.087 495.914 233.287 496.38 233.953C496.78 234.618 496.646 235.55 495.981 235.95C495.315 236.349 494.449 236.15 493.983 235.484C493.517 234.752 493.717 233.886 494.383 233.487Z" fill="#14AF95"/>
<path d="M485.528 224.099L484.929 224.166L483.73 216.51L484.263 216.443L485.528 224.099Z" fill="#F8BD36"/>
<path d="M477.739 220.97L477.406 220.504L483.198 215.645L483.531 216.111L477.739 220.97Z" fill="#F8BD36"/>
<path d="M478.205 221.57L478.471 221.104L484.996 225.365L484.663 225.831L478.205 221.57Z" fill="#F8BD36"/>
<path d="M484.197 224.166C485.129 223.567 486.394 223.899 486.994 224.832C487.593 225.764 487.326 227.028 486.394 227.628C485.462 228.227 484.197 227.894 483.598 226.962C482.999 226.03 483.265 224.765 484.197 224.166Z" fill="#293593"/>
<path d="M476.807 219.306C477.606 218.84 478.605 219.04 479.137 219.839C479.67 220.638 479.404 221.703 478.671 222.169C477.872 222.635 476.874 222.435 476.341 221.636C475.809 220.837 476.008 219.772 476.807 219.306Z" fill="#FF7143"/>
<path d="M482.333 212.715C483.531 211.983 485.129 212.382 485.861 213.581C486.66 214.779 486.327 216.377 485.129 217.109C483.931 217.841 482.333 217.442 481.6 216.244C480.802 215.045 481.134 213.514 482.333 212.715Z" fill="#14AF95"/>
<path d="M387.463 170.508C387.463 170.508 394.787 191.345 386.864 198.802C384.135 201.398 378.01 198.203 378.01 198.203L379.807 207.789L365.694 202.33L365.627 190.946C365.694 190.879 365.228 168.444 387.463 170.508Z" fill="#FFB5A4"/>
<path d="M386.532 192.811L383.137 192.211" stroke="#F2F2F2" stroke-width="2" stroke-miterlimit="10" stroke-linecap="round" stroke-linejoin="round"/>
<path d="M389.661 165.449C386.065 155.529 368.423 151.335 360.035 162.453C357.305 166.048 359.036 174.569 345.056 169.843C339.064 167.845 329.078 169.776 326.415 179.096C324.817 184.689 314.032 183.091 313.433 193.277C312.7 205.393 324.95 214.847 337.266 211.452C356.44 206.126 350.648 190.348 364.296 192.944C365.361 194.076 366.426 194.808 367.358 194.675C370.687 194.142 367.624 184.422 373.217 182.891C378.742 181.36 394.654 179.23 389.661 165.449Z" fill="#1A237E"/>
<path d="M380.607 204.861L365.095 202.198C365.095 202.198 357.106 205.66 356.64 222.17C356.174 239.48 360.634 251.463 366.826 265.177C373.816 280.623 364.895 287.946 364.895 287.946L412.496 282.487C412.496 282.487 402.31 265.177 403.175 244.805C403.309 242.209 403.309 228.095 402.31 225.765C397.317 214.181 389.395 213.649 380.607 204.861Z" fill="url(#paint1_linear)"/>
<path d="M406.37 259.852C406.37 259.852 420.684 259.852 429.139 262.781C437.594 265.71 458.165 265.577 458.165 265.577C458.165 265.577 462.959 261.183 471.014 261.183C479.07 261.183 480.534 261.915 476.873 263.047C473.211 264.112 472.079 265.244 475.741 265.577C479.403 265.91 487.458 263.779 484.196 268.906C480.867 274.032 473.211 278.825 465.489 277.361C457.766 275.896 455.569 275.164 455.569 275.164C455.569 275.164 435.663 278.226 424.678 278.226C413.694 278.226 403.974 273.499 403.974 273.499L406.37 259.852Z" fill="#FFB5A4"/>
<path d="M414.759 259.851L406.304 258.053C406.304 258.053 387.93 219.107 373.35 218.641C361.699 218.242 360.967 227.962 373.483 247.468C385.932 266.908 408.102 276.761 408.102 276.761L414.759 259.851Z" fill="#F2F2F2"/>
<g filter="url(#filter1_d)">
<path d="M514.711 464.049H490.611C486.483 464.049 483.154 467.378 483.154 471.506C483.154 475.633 486.483 478.962 490.611 478.962H514.711C518.838 478.962 522.167 475.633 522.167 471.506C522.167 467.378 518.772 464.049 514.711 464.049Z" fill="#1A237E"/>
</g>
<g filter="url(#filter2_d)">
<path d="M502.195 89.1679H534.683C541.075 89.1679 546.267 83.9751 546.267 77.584C546.267 71.1928 541.075 66 534.683 66H502.195C495.804 66 490.611 71.1928 490.611 77.584C490.544 83.9751 495.737 89.1679 502.195 89.1679Z" fill="#1A237E"/>
</g>
<defs>
<filter id="filter0_d" x="0" y="57.7319" width="500.725" height="233.025" filterUnits="userSpaceOnUse" color-interpolation-filters="sRGB">
<feFlood flood-opacity="0" result="BackgroundImageFix"/>
<feColorMatrix in="SourceAlpha" type="matrix" values="0 0 0 0 0 0 0 0 0 0 0 0 0 0 0 0 0 0 127 0"/>
<feOffset dx="12" dy="9"/>
<feGaussianBlur stdDeviation="0.5"/>
<feColorMatrix type="matrix" values="0 0 0 0 0 0 0 0 0 0 0 0 0 0 0 0 0 0 0.07 0"/>
<feBlend mode="normal" in2="BackgroundImageFix" result="effect1_dropShadow"/>
<feBlend mode="normal" in="SourceGraphic" in2="effect1_dropShadow" result="shape"/>
</filter>
<filter id="filter1_d" x="483.154" y="464.049" width="52.0127" height="24.9127" filterUnits="userSpaceOnUse" color-interpolation-filters="sRGB">
<feFlood flood-opacity="0" result="BackgroundImageFix"/>
<feColorMatrix in="SourceAlpha" type="matrix" values="0 0 0 0 0 0 0 0 0 0 0 0 0 0 0 0 0 0 127 0"/>
<feOffset dx="12" dy="9"/>
<feGaussianBlur stdDeviation="0.5"/>
<feColorMatrix type="matrix" values="0 0 0 0 0 0 0 0 0 0 0 0 0 0 0 0 0 0 0.07 0"/>
<feBlend mode="normal" in2="BackgroundImageFix" result="effect1_dropShadow"/>
<feBlend mode="normal" in="SourceGraphic" in2="effect1_dropShadow" result="shape"/>
</filter>
<filter id="filter2_d" x="490.61" y="66" width="68.657" height="33.1679" filterUnits="userSpaceOnUse" color-interpolation-filters="sRGB">
<feFlood flood-opacity="0" result="BackgroundImageFix"/>
<feColorMatrix in="SourceAlpha" type="matrix" values="0 0 0 0 0 0 0 0 0 0 0 0 0 0 0 0 0 0 127 0"/>
<feOffset dx="12" dy="9"/>
<feGaussianBlur stdDeviation="0.5"/>
<feColorMatrix type="matrix" values="0 0 0 0 0 0 0 0 0 0 0 0 0 0 0 0 0 0 0.07 0"/>
<feBlend mode="normal" in2="BackgroundImageFix" result="effect1_dropShadow"/>
<feBlend mode="normal" in="SourceGraphic" in2="effect1_dropShadow" result="shape"/>
</filter>
<linearGradient id="paint0_linear" x1="17.1548" y1="122.5" x2="509.155" y2="255.5" gradientUnits="userSpaceOnUse">
<stop stop-color="#121E7B"/>
<stop offset="1" stop-color="#3301A0"/>
</linearGradient>
<linearGradient id="paint1_linear" x1="407.17" y1="283.607" x2="366.226" y2="202.386" gradientUnits="userSpaceOnUse">
<stop stop-color="#3D01A1"/>
<stop offset="1" stop-color="#5F01A0"/>
</linearGradient>
</defs>
</svg>
