<svg width="38" height="38" viewBox="0 0 75 75" fill="none" xmlns="http://www.w3.org/2000/svg">
<circle cx="37.499" cy="37.5" r="33.5" fill="white"/>
<path d="M37.4999 0C16.7908 0 0 16.7908 0 37.5C0 58.2089 16.7908 75 37.4999 75C58.2091 75 74.9995 58.2087 74.9995 37.5C74.9997 16.7908 58.2091 0 37.4999 0ZM57.3024 54.7167L54.2998 57.7198C53.7638 58.2551 52.1941 58.5891 52.1437 58.5891C42.645 58.672 33.4992 54.9409 26.7793 48.2205C20.0411 41.4784 16.3057 32.2999 16.406 22.7692C16.406 22.7648 16.7498 21.2401 17.2854 20.7097L20.2878 17.7068C21.3865 16.603 23.497 16.1042 24.9755 16.5988L25.6071 16.8095C27.0812 17.3037 28.6289 18.9336 29.0362 20.4353L30.5465 25.9785C30.9538 27.4845 30.4045 29.627 29.3061 30.7257L27.3013 32.7308C29.2696 40.0177 34.9871 45.7362 42.2751 47.7093L44.2791 45.7037C45.3829 44.5999 47.5246 44.0511 49.0274 44.4577L54.5698 45.9735C56.0718 46.3862 57.7015 47.9242 58.1955 49.3978L58.4062 50.0385C58.8958 51.5128 58.4009 53.6229 57.3024 54.7167Z" fill="url(#paint0_linear)"/>
<defs>
<linearGradient id="paint0_linear" x1="37.4998" y1="0" x2="37.4998" y2="75" gradientUnits="userSpaceOnUse">
<stop stop-color="#00B6DC"/>
<stop offset="1" stop-color="#583186"/>
</linearGradient>
</defs>
</svg>
