<svg width="503" height="522" viewBox="0 0 503 522" fill="none" xmlns="http://www.w3.org/2000/svg">
<g filter="url(#filter0_d)">
<path d="M245 512C380.31 512 490 402.31 490 267C490 131.69 380.31 22 245 22C109.69 22 0 131.69 0 267C0 402.31 109.69 512 245 512Z" fill="#424194"/>
<path d="M205.796 378.925C218.446 378.925 230.1 385.287 236.971 395.945C237.14 396.208 237.424 396.377 237.736 396.4C237.761 396.402 237.787 396.403 237.812 396.403C238.098 396.403 238.371 396.281 238.561 396.065C248.861 384.414 263.669 377.732 279.188 377.732C284.476 377.732 289.584 378.506 294.419 379.925L276.573 334.18H213.427L195.386 380.424C198.691 379.454 202.182 378.925 205.796 378.925Z" fill="#D9EAFC"/>
<path d="M221.659 334.179H213.427L195.386 380.423C198.194 379.6 201.142 379.117 204.18 378.983L221.659 334.179Z" fill="#AEC1ED"/>
<path d="M186.586 426.192C186.626 426.456 186.769 426.693 186.984 426.851C187.156 426.978 187.364 427.045 187.575 427.045C187.627 427.045 187.68 427.041 187.732 427.033C191.302 426.465 194.887 426.177 198.387 426.177C215.486 426.177 231.797 432.602 244.318 444.268C244.51 444.447 244.755 444.536 245 444.536C245.245 444.536 245.49 444.447 245.682 444.268C258.202 432.602 274.514 426.177 291.613 426.177C295.112 426.177 298.698 426.465 302.268 427.033C302.321 427.041 302.373 427.045 302.425 427.045C302.636 427.045 302.844 426.978 303.016 426.851C303.231 426.693 303.374 426.456 303.414 426.192C305.262 413.754 309.943 401.974 316.966 391.693C307.088 382.421 293.807 376.731 279.188 376.731C262.711 376.731 247.929 383.957 237.812 395.402C231.036 384.891 219.234 377.924 205.797 377.924C192.908 377.924 181.524 384.335 174.635 394.136C180.765 403.825 184.883 414.727 186.586 426.192Z" fill="#AEC1ED"/>
<path d="M187.576 426.045C181.558 385.535 146.641 354.454 104.457 354.454C75.1724 354.454 49.3965 369.438 34.3525 392.151C57.3865 430.838 90.7774 462.626 130.696 483.722C134.965 454.156 158.144 430.721 187.576 426.045Z" fill="#445EA0"/>
<path d="M112.849 364.787C134.281 364.787 153.927 372.389 169.274 385.024C153.861 366.359 130.555 354.454 104.457 354.454C75.1724 354.454 49.3965 369.438 34.3525 392.151C36.3395 395.488 38.4094 398.771 40.5484 402.003C56.6674 379.477 83.0364 364.787 112.849 364.787Z" fill="#293D7C"/>
<path d="M385.543 354.454C343.359 354.454 308.442 385.536 302.424 426.045C331.856 430.721 355.035 454.156 359.304 483.722C399.222 462.626 432.614 430.837 455.648 392.151C440.604 369.438 414.828 354.454 385.543 354.454Z" fill="#445EA0"/>
<path d="M390.627 354.61C388.945 354.51 387.251 354.454 385.543 354.454C343.359 354.454 308.442 385.536 302.424 426.045C305.56 426.543 308.62 427.267 311.598 428.176C319.96 389.897 351.404 360.256 390.627 354.61Z" fill="#293D7C"/>
<path d="M291.612 425.177C273.596 425.177 257.217 432.153 245 443.536C232.783 432.152 216.404 425.177 198.388 425.177C163.953 425.177 135.468 450.623 130.693 483.735C164.821 501.772 203.713 512 245 512C286.287 512 325.179 501.772 359.307 483.735C354.532 450.623 326.047 425.177 291.612 425.177Z" fill="#293D7C"/>
<path d="M212.686 433.681C222.121 433.681 231.125 435.516 239.366 438.843C227.943 430.274 213.766 425.177 198.387 425.177C163.952 425.177 135.467 450.623 130.692 483.735C134.715 485.861 138.806 487.875 142.957 489.779C149.964 457.704 178.508 433.681 212.686 433.681Z" fill="#1A2B63"/>
<path d="M267.528 334.179H252.409L254.338 349.44C254.857 353.55 258.615 356.457 262.719 355.94C266.828 355.42 269.739 351.668 269.219 347.559L267.528 334.179Z" fill="#AEC1ED"/>
<path d="M222.472 334.179L218.506 365.559C217.987 369.668 220.897 373.421 225.007 373.94C225.326 373.98 225.643 374 225.957 374C229.68 373.999 232.91 371.229 233.389 367.439L237.593 334.178H222.472V334.179Z" fill="#AEC1ED"/>
<path d="M168.108 195.717C168.108 187.562 168.414 179.429 168.986 171.355C144.926 184.904 128.35 215.088 128.35 250.033C128.35 268.489 132.939 286.09 141.62 300.933C142.435 302.327 143.91 303.124 145.442 303.124C146.002 303.124 146.569 303.018 147.114 302.795C158.523 298.131 170.715 295.735 183.358 295.635C173.375 264.907 168.108 230.591 168.108 195.717Z" fill="#FE3745"/>
<path d="M139.689 250.033C139.689 221.17 151.004 195.566 168.497 179.89C168.631 177.039 168.786 174.193 168.987 171.355C144.927 184.904 128.351 215.088 128.351 250.033C128.351 268.489 132.94 286.09 141.621 300.933C142.436 302.327 143.911 303.124 145.443 303.124C146.003 303.124 146.57 303.018 147.115 302.795C148.995 302.026 150.905 301.342 152.826 300.697C144.233 285.903 139.689 268.392 139.689 250.033Z" fill="#B7092B"/>
<path d="M321.013 171.355C321.585 179.43 321.891 187.563 321.891 195.717C321.891 230.59 316.624 264.906 306.64 295.635C319.284 295.735 331.475 298.131 342.884 302.795C343.429 303.018 343.997 303.124 344.556 303.124C346.089 303.124 347.563 302.326 348.378 300.933C357.06 286.09 361.648 268.489 361.648 250.033C361.649 215.088 345.073 184.904 321.013 171.355Z" fill="#FE3745"/>
<path d="M206.708 307.125V330.179C206.708 332.929 208.958 335.179 211.708 335.179H278.291C281.041 335.179 283.291 332.929 283.291 330.179V307.125H206.708Z" fill="#FE3745"/>
<path d="M223.715 330.179V307.125H206.708V330.179C206.708 332.929 208.958 335.179 211.708 335.179H228.715C225.965 335.179 223.715 332.929 223.715 330.179Z" fill="#B7092B"/>
<path d="M305.854 90.3181H184.145C172.991 122.471 167.108 158.661 167.108 195.717C167.108 234.239 173.497 272.104 185.583 305.217C186.221 306.963 187.881 308.125 189.74 308.125H300.259C302.118 308.125 303.779 306.963 304.416 305.217C316.502 272.104 322.891 234.239 322.891 195.717C322.892 158.661 317.009 122.472 305.854 90.3181Z" fill="#EEF6FF"/>
<path d="M199.756 305.217C187.669 272.104 181.281 234.239 181.281 195.717C181.281 158.661 187.164 122.471 198.318 90.3181H184.146C172.992 122.471 167.109 158.661 167.109 195.717C167.109 234.239 173.498 272.104 185.584 305.217C186.222 306.963 187.882 308.125 189.741 308.125H203.913C202.054 308.125 200.394 306.963 199.756 305.217Z" fill="#D9EAFC"/>
<path d="M216.179 90.3181V106.912C216.179 109.662 218.429 111.912 221.179 111.912H268.821C271.571 111.912 273.821 109.662 273.821 106.912V90.3181H216.179Z" fill="#EA2A3D"/>
<path d="M227.517 106.912V90.3181H216.179V106.912C216.179 109.662 218.429 111.912 221.179 111.912H232.517C229.767 111.912 227.517 109.662 227.517 106.912Z" fill="#B7092B"/>
<path d="M245 0C244.013 0 243.027 0.329 242.215 0.986C219.877 19.075 201.061 46.515 187.804 80.34C186.394 83.939 185.069 87.609 183.798 91.318H306.201C304.93 87.609 303.605 83.939 302.195 80.34C288.938 46.515 270.123 19.075 247.784 0.986C246.973 0.329 245.987 0 245 0Z" fill="#FE3745"/>
<path d="M252.086 4.628C250.667 3.377 249.234 2.16 247.785 0.986C246.973 0.329 245.987 0 245 0C244.013 0 243.027 0.329 242.215 0.986C219.877 19.075 201.061 46.515 187.804 80.34C186.394 83.939 185.069 87.609 183.798 91.318H197.97C199.241 87.609 200.566 83.939 201.976 80.34C214.374 48.709 231.632 22.667 252.086 4.628Z" fill="#B7092B"/>
<path d="M245 231.95C273.178 231.95 296.02 209.107 296.02 180.93C296.02 152.752 273.178 129.91 245 129.91C216.822 129.91 193.98 152.752 193.98 180.93C193.98 209.107 216.822 231.95 245 231.95Z" fill="#445EA0"/>
<path d="M245 213.661C263.077 213.661 277.731 199.007 277.731 180.93C277.731 162.853 263.077 148.199 245 148.199C226.923 148.199 212.269 162.853 212.269 180.93C212.269 199.007 226.923 213.661 245 213.661Z" fill="#69CDFF"/>
<path d="M224.268 180.932C224.268 196.959 235.789 210.287 251 213.106C249.054 213.466 247.051 213.664 245 213.664C226.922 213.664 212.269 199.009 212.269 180.932C212.269 162.855 226.923 148.201 245 148.201C247.05 148.201 249.054 148.399 251 148.759C235.789 151.578 224.268 164.905 224.268 180.932Z" fill="#52BBEF"/>
<path d="M99.1359 178.737C97.9889 178.737 96.9549 178.046 96.5159 176.986C90.9329 163.507 86.8169 159.392 73.3379 153.809C72.2779 153.37 71.5879 152.336 71.5879 151.189C71.5879 150.042 72.2789 149.008 73.3379 148.569C86.8179 142.984 90.9329 138.868 96.5159 125.39C96.9549 124.33 97.9889 123.639 99.1359 123.639C100.283 123.639 101.317 124.33 101.756 125.39C107.34 138.868 111.456 142.984 124.935 148.569C125.995 149.008 126.686 150.042 126.686 151.189C126.686 152.336 125.995 153.371 124.935 153.809C111.456 159.391 107.34 163.507 101.756 176.986C101.317 178.046 100.283 178.737 99.1359 178.737Z" fill="#FFD00D"/>
<path d="M102.185 171.317C96.6019 157.838 92.4859 153.723 79.0069 148.14C78.3409 147.865 77.8219 147.353 77.5269 146.727C76.2329 147.333 74.8529 147.941 73.3379 148.569C72.2779 149.008 71.5879 150.042 71.5879 151.189C71.5879 152.336 72.2789 153.371 73.3379 153.809C86.8169 159.392 90.9329 163.507 96.5159 176.986C96.9549 178.046 97.9889 178.737 99.1359 178.737C100.283 178.737 101.317 178.046 101.756 176.986C102.383 175.471 102.992 174.091 103.597 172.798C102.972 172.503 102.461 171.983 102.185 171.317Z" fill="#FFAF10"/>
<path d="M400.469 201.404C399.461 201.404 398.552 200.797 398.166 199.865C393.259 188.017 389.641 184.4 377.793 179.493C376.862 179.108 376.254 178.198 376.254 177.19C376.254 176.181 376.861 175.273 377.793 174.887C389.642 169.978 393.259 166.36 398.166 154.513C398.552 153.581 399.461 152.974 400.469 152.974C401.477 152.974 402.386 153.581 402.772 154.513C407.68 166.361 411.298 169.978 423.147 174.887C424.078 175.273 424.685 176.181 424.685 177.19C424.685 178.198 424.078 179.107 423.146 179.493C411.298 184.4 407.68 188.017 402.772 199.865C402.387 200.796 401.478 201.404 400.469 201.404Z" fill="white"/>
<path d="M403.149 194.882C398.241 183.034 394.624 179.417 382.775 174.509C382.19 174.267 381.733 173.818 381.474 173.267C380.337 173.799 379.123 174.334 377.792 174.886C376.861 175.272 376.253 176.18 376.253 177.189C376.253 178.197 376.86 179.106 377.792 179.492C389.641 184.399 393.258 188.016 398.165 199.864C398.551 200.796 399.46 201.403 400.468 201.403C401.476 201.403 402.385 200.796 402.771 199.864C403.322 198.533 403.857 197.319 404.39 196.182C403.841 195.924 403.392 195.467 403.149 194.882Z" fill="#D9EAFC"/>
<path d="M374.469 96.0709C373.294 96.0709 372.235 95.3629 371.785 94.2779C366.067 80.4719 361.852 76.2569 348.046 70.5399C346.961 70.0909 346.254 69.0309 346.254 67.8569C346.254 66.6809 346.962 65.6229 348.046 65.1729C361.853 59.4529 366.068 55.2379 371.785 41.4339C372.235 40.3479 373.294 39.6399 374.469 39.6399C375.644 39.6399 376.703 40.3479 377.153 41.4339C382.872 55.2389 387.087 59.4539 400.893 65.1729C401.978 65.6229 402.685 66.6809 402.685 67.8569C402.685 69.0309 401.977 70.0909 400.892 70.5399C387.086 76.2569 382.872 80.4729 377.152 94.2779C376.703 95.3629 375.644 96.0709 374.469 96.0709Z" fill="#FF9518"/>
<path d="M377.592 88.4721C371.873 74.6671 367.658 70.4521 353.852 64.7341C353.17 64.4521 352.639 63.9281 352.336 63.2871C351.012 63.9081 349.597 64.5311 348.045 65.1731C346.96 65.6231 346.253 66.6811 346.253 67.8571C346.253 69.0311 346.961 70.0911 348.045 70.5401C361.851 76.2581 366.067 80.4731 371.784 94.2781C372.234 95.3631 373.293 96.0711 374.468 96.0711C375.643 96.0711 376.702 95.3631 377.152 94.2781C377.795 92.7261 378.418 91.3121 379.038 89.9881C378.397 89.6861 377.874 89.1541 377.592 88.4721Z" fill="#EF8318"/>
</g>
<defs>
<filter id="filter0_d" x="0" y="0" width="503" height="522" filterUnits="userSpaceOnUse" color-interpolation-filters="sRGB">
<feFlood flood-opacity="0" result="BackgroundImageFix"/>
<feColorMatrix in="SourceAlpha" type="matrix" values="0 0 0 0 0 0 0 0 0 0 0 0 0 0 0 0 0 0 127 0"/>
<feOffset dx="12" dy="9"/>
<feGaussianBlur stdDeviation="0.5"/>
<feColorMatrix type="matrix" values="0 0 0 0 0 0 0 0 0 0 0 0 0 0 0 0 0 0 0.07 0"/>
<feBlend mode="normal" in2="BackgroundImageFix" result="effect1_dropShadow"/>
<feBlend mode="normal" in="SourceGraphic" in2="effect1_dropShadow" result="shape"/>
</filter>
</defs>
</svg>
