<svg id="Слой_1" data-name="Слой 1" xmlns="http://www.w3.org/2000/svg" xmlns:xlink="http://www.w3.org/1999/xlink" viewBox="0 0 127.54 41.88"><defs><style>.cls-1{fill:#fff;}.cls-2{fill:url(#Безымянный_градиент_38);}.cls-3{fill:url(#Безымянный_градиент_38-2);}.cls-4{fill:url(#Безымянный_градиент_38-3);}.cls-5{fill:url(#Безымянный_градиент_38-4);}</style><linearGradient id="Безымянный_градиент_38" x1="38.94" y1="9.29" x2="16.59" y2="47.76" gradientUnits="userSpaceOnUse"><stop offset="0" stop-color="#53b6ce"/><stop offset="1" stop-color="#373c63"/></linearGradient><linearGradient id="Безымянный_градиент_38-2" x1="35.47" y1="7.27" x2="13.12" y2="45.75" xlink:href="#Безымянный_градиент_38"/><linearGradient id="Безымянный_градиент_38-3" x1="41.79" y1="10.94" x2="19.44" y2="49.41" xlink:href="#Безымянный_градиент_38"/><linearGradient id="Безымянный_градиент_38-4" x1="33.92" y1="6.38" x2="11.57" y2="44.85" xlink:href="#Безымянный_градиент_38"/></defs><title>SC</title><path class="cls-1" d="M69.65,9.75a6.89,6.89,0,0,0-4.22-1.21c-2.08,0-2.58.54-2.58,1.13s.56.77,1.39.87l3.2.37c2.27.27,3.68,1.23,3.68,3.2,0,2.39-2.33,3.46-5.52,3.46a8.53,8.53,0,0,1-5.51-1.71L61.22,14a7.66,7.66,0,0,0,4.64,1.48c1.69,0,2.93-.42,2.93-1.33,0-.58-.31-.87-1.21-1L64,12.78c-2.17-.25-3.5-1.1-3.5-3.08,0-2.25,2.23-3.29,4.95-3.29A8.44,8.44,0,0,1,70.81,8Z"/><path class="cls-1" d="M78.65,17.57a5.65,5.65,0,0,1-6-5.58,6,6,0,0,1,11.93,0A5.65,5.65,0,0,1,78.65,17.57Zm0-2.06A3.37,3.37,0,0,0,82.21,12a3.56,3.56,0,0,0-7.12,0A3.37,3.37,0,0,0,78.65,15.51Z"/><path class="cls-1" d="M95.67,10.33a4,4,0,0,0-3.56-1.79A3.26,3.26,0,0,0,88.58,12a3.31,3.31,0,0,0,3.52,3.45,4,4,0,0,0,3.56-1.79l1.87,1.08a5.81,5.81,0,0,1-5.39,2.85c-3.41,0-5.95-2.14-5.95-5.58S88.8,6.4,92.15,6.4a5.81,5.81,0,0,1,5.39,2.85Z"/><path class="cls-1" d="M101.64,6.65V17.3H99.23V6.65Z"/><path class="cls-1" d="M111.73,6.65l4.52,10.65h-2.54L113,15.68h-6.56l-.69,1.62h-2.58l4.64-10.65Zm-4.39,6.93h4.73l-1.92-4.79h-.83Z"/><path class="cls-1" d="M120.2,6.65v8.47h7.33V17.3H117.8V6.65Z"/><path class="cls-1" d="M69.6,27.51A4,4,0,0,0,66,25.72a3.26,3.26,0,0,0-3.52,3.45A3.31,3.31,0,0,0,66,32.61a4,4,0,0,0,3.56-1.79l1.87,1.08a5.81,5.81,0,0,1-5.39,2.85c-3.41,0-5.95-2.14-5.95-5.58s2.6-5.58,5.95-5.58a5.81,5.81,0,0,1,5.39,2.85Z"/><path class="cls-1" d="M76.26,23.83V34.48H73.85V23.83Z"/><path class="cls-1" d="M85.16,23.83A4.12,4.12,0,0,1,89.54,28a3.87,3.87,0,0,1-2.06,3.54l1.64,2.93H86.5l-1.25-2.37h-4v2.37H78.88V23.83Zm-3.87,6.08h3.77A1.85,1.85,0,0,0,87.14,28a1.91,1.91,0,0,0-2.08-2H81.29Z"/><path class="cls-1" d="M101.08,27.51a4,4,0,0,0-3.56-1.79A3.26,3.26,0,0,0,94,29.17a3.31,3.31,0,0,0,3.52,3.45,4,4,0,0,0,3.56-1.79l1.87,1.08a5.81,5.81,0,0,1-5.39,2.85c-3.41,0-5.95-2.14-5.95-5.58s2.6-5.58,5.95-5.58a5.81,5.81,0,0,1,5.39,2.85Z"/><path class="cls-1" d="M107.74,23.83V32.3h7.33v2.17h-9.74V23.83Z"/><path class="cls-1" d="M126.92,23.83V26h-7.26v2h6.53v2.18h-6.53v2.12h7.53v2.21h-9.93V23.83Z"/><path class="cls-2" d="M21,11.08A4.7,4.7,0,0,0,22,13.49a7.3,7.3,0,0,0,1.31,1.23c1.84-.13,3.81-.2,5.9-.2,7.65,0,15.4,1,20.24,2.67a1.91,1.91,0,1,0,1.24-3.62c-5.28-1.8-13.31-2.88-21.47-2.88C26.4,10.7,23.63,10.83,21,11.08Z"/><path class="cls-3" d="M50.94,25.09A1.9,1.9,0,0,0,49.48,25c-4.83,1.65-12.59,2.67-20.24,2.67-16.45,0-25.42-4.34-25.42-6.57,0-1.51,4.09-4,11.8-5.41A11.36,11.36,0,0,1,14.54,12a48.36,48.36,0,0,0-5.19,1.27C1.62,15.67,0,18.85,0,21.09s1.62,5.43,9.35,7.83a69.85,69.85,0,0,0,19.89,2.57c8.16,0,16.19-1.08,21.47-2.88a1.91,1.91,0,0,0,.23-3.53Z"/><path class="cls-4" d="M37.51,32.4a6,6,0,0,1-2.34,3.79c-1.74,1.31-4.21,2-7.36,2a19,19,0,0,1-9.41-2.39l-.46-.28-.52-.29L17,35a2.4,2.4,0,0,0-.67-.27,1.87,1.87,0,0,0-1.3.17,1.78,1.78,0,0,0-.57.56,1.82,1.82,0,0,0-.24,1.46c.21.8.93,1.52,2.27,2.25a22.65,22.65,0,0,0,11.22,2.71c4.38,0,7.81-1,10.19-3A10.15,10.15,0,0,0,41.51,32C40.21,32.13,38.87,32.28,37.51,32.4Z"/><path class="cls-5" d="M15.74,11.83a10.13,10.13,0,0,0,1,3.27,9.13,9.13,0,0,0,.74,1.24A10.59,10.59,0,0,0,21.9,20c1.63.7,3.42,1.41,5.34,2.13l5.29,2a8.78,8.78,0,0,1,3.19,2.05c1.61-.12,3.19-.29,4.69-.49a8.75,8.75,0,0,0-.7-1.12A10.82,10.82,0,0,0,35.26,21c-1.62-.7-3.42-1.41-5.34-2.13l-5.29-2A8.55,8.55,0,0,1,21,14.31a6.27,6.27,0,0,1-1.41-4.17,5.69,5.69,0,0,1,2.08-4.59c1.43-1.21,3.61-1.83,6.47-1.83a16.42,16.42,0,0,1,8,2.08l.82.44.66.29A1.68,1.68,0,0,0,39.76,6l.05-.08c.45-.75.54-1.93-1.61-3.27A18.64,18.64,0,0,0,28.13,0c-4,0-7.12,1-9.25,2.83a9.49,9.49,0,0,0-3.25,7.42,12.66,12.66,0,0,0,.1,1.56Z"/></svg>