<svg width="399" height="396" viewBox="0 0 399 396" fill="none" xmlns="http://www.w3.org/2000/svg">
<g filter="url(#filter0_d)">
<path d="M201.293 386C303.304 386 386 303.304 386 201.293C386 99.2821 303.304 16.5859 201.293 16.5859C99.2821 16.5859 16.5859 99.2821 16.5859 201.293C16.5859 303.304 99.2821 386 201.293 386Z" fill="#424194"/>
<path d="M182.188 182.186C196.46 167.916 215.432 160.057 235.612 160.057C249.361 160.057 262.546 163.708 274.068 170.545V40.5322H0V279.453C0 283.599 3.39258 286.992 7.53906 286.992H180.233C152.752 257.403 153.401 210.975 182.188 182.186Z" fill="#EEF6FF"/>
<path d="M17.0986 279.453V40.5322H0V279.453C0 283.599 3.39258 286.992 7.53906 286.992H24.6377C20.4912 286.992 17.0986 283.599 17.0986 279.453Z" fill="#C3DDF4"/>
<path d="M269.759 0H4.30933C1.93905 0 0 1.93905 0 4.30933V42.6696H274.068V4.30933C274.068 1.93905 272.129 0 269.759 0Z" fill="#293D7C"/>
<path d="M21.4079 0H4.30933C1.93905 0 0 1.93905 0 4.30933V42.6696H17.0986V4.30933C17.0986 1.93905 19.0376 0 21.4079 0Z" fill="#1A2B63"/>
<path d="M119.312 134.659C119.312 136.732 117.616 138.428 115.543 138.428H31.5254C29.4521 138.428 27.7559 136.732 27.7559 134.659V74.4075C27.7559 72.3342 29.4521 70.6379 31.5254 70.6379H115.542C117.615 70.6379 119.312 72.3342 119.312 74.4075V134.659H119.312Z" fill="#69CDFF"/>
<path d="M44.8545 134.659V74.4075C44.8545 72.3342 46.5507 70.6379 48.624 70.6379H31.5254C29.4521 70.6379 27.7559 72.3342 27.7559 74.4075V134.659C27.7559 136.732 29.4521 138.428 31.5254 138.428H48.624C46.5507 138.428 44.8545 136.732 44.8545 134.659Z" fill="#52BBEF"/>
<path d="M163.71 212.442H31.5254C29.4521 212.442 27.7559 214.138 27.7559 216.211V252.255C27.7559 254.328 29.4521 256.024 31.5254 256.024H162.891C158.914 241.769 159.184 226.567 163.71 212.442Z" fill="#FF9518"/>
<path d="M44.8545 252.255V216.211C44.8545 214.138 46.5507 212.442 48.624 212.442H31.5254C29.4521 212.442 27.7559 214.138 27.7559 216.211V252.255C27.7559 254.328 29.4521 256.024 31.5254 256.024H48.624C46.5507 256.024 44.8545 254.328 44.8545 252.255Z" fill="#EF8318"/>
<path d="M163.71 212.442H136.344V256.024H162.89C158.913 241.769 159.184 226.567 163.71 212.442Z" fill="#FFD00D"/>
<path d="M241.819 76.2925H149.398C146.276 76.2925 143.744 73.7609 143.744 70.6382C143.744 67.5155 146.276 64.9839 149.398 64.9839H241.819C244.942 64.9839 247.473 67.5155 247.473 70.6382C247.473 73.7609 244.942 76.2925 241.819 76.2925Z" fill="#91E0E8"/>
<path d="M241.819 98.8892H149.398C146.276 98.8892 143.744 96.3575 143.744 93.2349C143.744 90.1122 146.276 87.5806 149.398 87.5806H241.819C244.942 87.5806 247.473 90.1122 247.473 93.2349C247.473 96.3575 244.942 98.8892 241.819 98.8892Z" fill="#91E0E8"/>
<path d="M241.819 121.486H149.398C146.276 121.486 143.744 118.954 143.744 115.832C143.744 112.709 146.276 110.177 149.398 110.177H241.819C244.942 110.177 247.473 112.709 247.473 115.832C247.473 118.954 244.942 121.486 241.819 121.486Z" fill="#91E0E8"/>
<path d="M241.819 144.083H149.398C146.276 144.083 143.744 141.551 143.744 138.429C143.744 135.306 146.276 132.774 149.398 132.774H241.819C244.942 132.774 247.473 135.306 247.473 138.429C247.473 141.551 244.942 144.083 241.819 144.083Z" fill="#91E0E8"/>
<path d="M225.765 160.694H27.7568C24.6334 160.694 22.1025 163.225 22.1025 166.348C22.1025 169.471 24.6334 172.002 27.7568 172.002H194.803C204.142 165.986 214.67 162.129 225.765 160.694Z" fill="#91E0E8"/>
<path d="M180.721 183.698H27.7568C24.6334 183.698 22.1025 186.23 22.1025 189.353C22.1025 192.475 24.6334 195.007 27.7568 195.007H171.895C174.429 191.03 177.37 187.24 180.721 183.698Z" fill="#91E0E8"/>
<path d="M26.3076 26.0928C24.8156 26.0928 23.3598 25.4896 22.3044 24.441C21.2557 23.3855 20.6533 21.9305 20.6533 20.4385C20.6533 18.9525 21.2564 17.4982 22.3044 16.4428C23.3591 15.3873 24.8149 14.7842 26.3076 14.7842C27.7936 14.7842 29.2554 15.3865 30.3033 16.4428C31.3588 17.4982 31.9619 18.9533 31.9619 20.4385C31.9619 21.9305 31.3588 23.3862 30.3033 24.441C29.2554 25.4896 27.7928 26.0928 26.3076 26.0928Z" fill="#E26693"/>
<path d="M44.8496 26.0928C43.3637 26.0928 41.9018 25.4896 40.8532 24.4334C39.7984 23.3855 39.1953 21.9305 39.1953 20.4385C39.1953 18.9525 39.7984 17.4982 40.8532 16.4428C41.9086 15.3873 43.3637 14.7842 44.8496 14.7842C46.3416 14.7842 47.7966 15.3865 48.8529 16.4428C49.9008 17.4982 50.5039 18.9533 50.5039 20.4385C50.5039 21.9237 49.9 23.3862 48.8529 24.4334C47.7966 25.4896 46.3423 26.0928 44.8496 26.0928Z" fill="#FFAF10"/>
<path d="M63.3994 26.0928C61.9067 26.0928 60.4516 25.4896 59.4037 24.441C58.3482 23.3855 57.7451 21.9305 57.7451 20.4385C57.7451 18.9525 58.3482 17.4982 59.4037 16.4428C60.4516 15.3873 61.9067 14.7842 63.3994 14.7842C64.8846 14.7842 66.3472 15.3865 67.3951 16.4428C68.4506 17.4982 69.0537 18.9533 69.0537 20.4385C69.0537 21.9305 68.4506 23.3862 67.3951 24.441C66.3396 25.4896 64.8839 26.0928 63.3994 26.0928Z" fill="#37C47A"/>
<path d="M308.927 293.426L293.43 308.923L323.916 339.409C329.382 334.553 334.556 329.377 339.413 323.911L308.927 293.426Z" fill="#445EA0"/>
<path d="M315.078 284.08L302.236 271.238C298.82 277.636 294.421 283.644 289.033 289.031C283.706 294.358 277.723 298.791 271.267 302.255L284.085 315.073C285.551 316.54 287.95 316.54 289.416 315.073L315.078 289.411C316.544 287.946 316.544 285.547 315.078 284.08Z" fill="#293D7C"/>
<path d="M292.881 306.277L281.919 295.315C278.548 297.94 274.986 300.258 271.266 302.254L284.085 315.072C285.55 316.539 287.949 316.539 289.416 315.072L298.211 306.276C296.745 307.744 294.347 307.744 292.881 306.277Z" fill="#1A2B63"/>
<path d="M290.1 181.119C320.193 211.212 320.193 260.003 290.099 290.097C260.008 320.188 211.217 320.188 181.122 290.096C151.029 260.003 151.03 211.212 181.122 181.12C211.217 151.026 260.008 151.026 290.1 181.119Z" fill="#445EA0"/>
<path d="M273.816 273.812C252.718 294.911 218.508 294.911 197.406 273.81C176.308 252.713 176.307 218.502 197.406 197.403C218.505 176.304 252.717 176.305 273.816 197.403C294.916 218.503 294.916 252.712 273.816 273.812Z" fill="#69CDFF"/>
<path d="M273.816 273.812C275.738 271.89 277.48 269.858 279.051 267.739C257.9 283.424 227.894 281.681 208.715 262.502C189.537 243.326 187.796 213.319 203.48 192.168C201.36 193.74 199.328 195.482 197.406 197.403C176.307 218.502 176.308 252.712 197.406 273.81C218.508 294.912 252.718 294.912 273.816 273.812Z" fill="#52BBEF"/>
<path d="M269.759 0H87.3867V42.6696H274.068V4.30933C274.068 1.93905 272.129 0 269.759 0Z" fill="#445EA0"/>
<path d="M244.892 208.478C249.888 208.478 253.938 204.427 253.938 199.431C253.938 194.434 249.888 190.384 244.892 190.384C239.895 190.384 235.845 194.434 235.845 199.431C235.845 204.427 239.895 208.478 244.892 208.478Z" fill="#D9EAFC"/>
<path d="M263.897 215.24C267.437 215.24 270.306 212.371 270.306 208.832C270.306 205.293 267.437 202.424 263.897 202.424C260.358 202.424 257.489 205.293 257.489 208.832C257.489 212.371 260.358 215.24 263.897 215.24Z" fill="#D9EAFC"/>
</g>
<defs>
<filter id="filter0_d" x="0" y="0" width="399" height="396" filterUnits="userSpaceOnUse" color-interpolation-filters="sRGB">
<feFlood flood-opacity="0" result="BackgroundImageFix"/>
<feColorMatrix in="SourceAlpha" type="matrix" values="0 0 0 0 0 0 0 0 0 0 0 0 0 0 0 0 0 0 127 0"/>
<feOffset dx="12" dy="9"/>
<feGaussianBlur stdDeviation="0.5"/>
<feColorMatrix type="matrix" values="0 0 0 0 0 0 0 0 0 0 0 0 0 0 0 0 0 0 0.07 0"/>
<feBlend mode="normal" in2="BackgroundImageFix" result="effect1_dropShadow"/>
<feBlend mode="normal" in="SourceGraphic" in2="effect1_dropShadow" result="shape"/>
</filter>
</defs>
</svg>
