<svg width="503" height="522" viewBox="0 0 503 522" fill="none" xmlns="http://www.w3.org/2000/svg">
<g filter="url(#filter0_d)">
<path d="M245 512C380.31 512 490 402.31 490 267C490 131.69 380.31 22 245 22C109.69 22 0 131.69 0 267C0 402.31 109.69 512 245 512Z" fill="#424194"/>
<path d="M276.934 402.567C276.934 400.361 278.728 398.567 280.934 398.567H285.302C285.706 398.567 286.072 398.324 286.226 397.95C286.381 397.576 286.295 397.146 286.009 396.86L238.497 349.348C235.865 346.716 234.415 343.2 234.415 339.449C234.415 335.698 235.865 332.182 238.497 329.55L240.482 327.565C243.114 324.933 246.63 323.483 250.381 323.483C254.133 323.483 257.648 324.933 260.28 327.565L272.734 340.019C272.925 340.21 273.181 340.312 273.441 340.312C273.57 340.312 273.7 340.288 273.824 340.236C274.198 340.082 274.441 339.716 274.441 339.312V237.743C274.441 230.023 280.721 223.743 288.441 223.743H288.857C293.077 223.743 296.857 225.628 299.426 228.59V10C299.426 4.5 294.926 0 289.426 0H77.7012C72.2012 0 67.7012 4.5 67.7012 10V399.454C67.7012 404.954 72.2012 409.454 77.7012 409.454H276.933V402.567H276.934Z" fill="#EEEDF3"/>
<path d="M234.415 339.449C234.415 335.698 235.865 332.182 238.497 329.55L240.482 327.565C243.114 324.933 246.63 323.483 250.381 323.483C254.133 323.483 257.648 324.933 260.28 327.565L272.734 340.019C272.925 340.21 273.181 340.312 273.441 340.312C273.57 340.312 273.7 340.288 273.824 340.236C274.198 340.082 274.441 339.716 274.441 339.312V237.743C274.441 231.081 279.123 225.501 285.366 224.095V43.151C285.366 40.249 282.991 37.874 280.089 37.874H87.0392C84.1372 37.874 81.7632 40.249 81.7632 43.151V340.056C81.7632 342.958 84.1372 345.331 87.0392 345.331H235.711C234.872 343.514 234.415 341.521 234.415 339.449Z" fill="#C3DDF4"/>
<path d="M101.605 340.057V43.151C101.605 40.249 103.979 37.874 106.881 37.874H87.0392C84.1372 37.874 81.7632 40.249 81.7632 43.151V340.056C81.7632 342.958 84.1372 345.331 87.0392 345.331H106.881C103.979 345.332 101.605 342.959 101.605 340.057Z" fill="#AEC1ED"/>
<path d="M183.56 392.581C193.811 392.581 202.121 384.271 202.121 374.02C202.121 363.769 193.811 355.459 183.56 355.459C173.309 355.459 164.999 363.769 164.999 374.02C164.999 384.271 173.309 392.581 183.56 392.581Z" fill="#1A2B63"/>
<path d="M223.873 26.3418H166.505C162.363 26.3418 159.005 22.9848 159.005 18.8418C159.005 14.6988 162.363 11.3418 166.505 11.3418H223.873C228.015 11.3418 231.373 14.6988 231.373 18.8418C231.373 22.9848 228.015 26.3418 223.873 26.3418Z" fill="#1A2B63"/>
<path d="M143.25 27.2778C147.909 27.2778 151.686 23.5008 151.686 18.8418C151.686 14.1827 147.909 10.4058 143.25 10.4058C138.591 10.4058 134.814 14.1827 134.814 18.8418C134.814 23.5008 138.591 27.2778 143.25 27.2778Z" fill="#1A2B63"/>
<path d="M280.089 37.874H87.0392C84.1372 37.874 81.7632 40.249 81.7632 43.151V66.571H285.367V43.151C285.366 40.249 282.991 37.874 280.089 37.874Z" fill="#FF9518"/>
<path d="M106.881 37.874H87.0392C84.1372 37.874 81.7632 40.249 81.7632 43.151V66.571H101.605V43.151C101.605 40.249 103.979 37.874 106.881 37.874Z" fill="#EF8318"/>
<path d="M269.765 223.186C269.765 228.686 265.265 233.186 259.765 233.186H107.365C101.865 233.186 97.3652 228.686 97.3652 223.186V174.592C97.3652 169.092 101.865 164.592 107.365 164.592H259.765C265.265 164.592 269.765 169.092 269.765 174.592V223.186Z" fill="#445EA0"/>
<path d="M234.415 339.449C234.415 335.698 235.865 332.182 238.497 329.55L240.482 327.565C243.114 324.933 246.63 323.483 250.381 323.483C254.133 323.483 257.648 324.933 260.28 327.565L272.734 340.019C272.925 340.21 273.181 340.312 273.441 340.312C273.57 340.312 273.7 340.288 273.824 340.236C274.198 340.082 274.441 339.716 274.441 339.312V248.601H81.7632V340.057C81.7632 342.959 84.1372 345.332 87.0392 345.332H235.711C234.872 343.514 234.415 341.521 234.415 339.449Z" fill="#EEF6FF"/>
<path d="M101.605 340.057V248.601H81.7632V340.057C81.7632 342.959 84.1372 345.332 87.0392 345.332H106.881C103.979 345.332 101.605 342.959 101.605 340.057Z" fill="#D9EAFC"/>
<path d="M199.444 276.808H119.68C115.538 276.808 112.18 273.451 112.18 269.308C112.18 265.165 115.538 261.808 119.68 261.808H199.445C203.587 261.808 206.945 265.165 206.945 269.308C206.944 273.45 203.586 276.808 199.444 276.808Z" fill="#5DC1D8"/>
<path d="M199.444 301.673H119.68C115.538 301.673 112.18 298.315 112.18 294.173C112.18 290.03 115.538 286.673 119.68 286.673H199.445C203.587 286.673 206.945 290.03 206.945 294.173C206.944 298.315 203.586 301.673 199.444 301.673Z" fill="#5DC1D8"/>
<path d="M159.721 326.537H119.68C115.538 326.537 112.18 323.18 112.18 319.037C112.18 314.894 115.538 311.537 119.68 311.537H159.721C163.863 311.537 167.221 314.894 167.221 319.037C167.221 323.18 163.863 326.537 159.721 326.537Z" fill="#5DC1D8"/>
<path d="M237.856 319.558C236.324 319.558 234.778 319.089 233.445 318.119C230.097 315.68 229.361 310.988 231.8 307.64L241.615 294.172L231.802 280.705C229.363 277.357 230.099 272.666 233.447 270.226C236.796 267.787 241.486 268.524 243.926 271.871L256.957 289.755C258.875 292.388 258.875 295.957 256.957 298.589L243.924 316.474C242.456 318.488 240.172 319.557 237.856 319.558Z" fill="#FF9518"/>
<path d="M286.073 439.522V508.554C322.712 502.368 356.586 488.058 385.776 467.528V439.522H286.073Z" fill="#EF8318"/>
<path d="M286.073 439.522V508.554C292.785 507.421 299.401 506.009 305.916 504.342V439.522H286.073Z" fill="#DB722C"/>
<path d="M387.507 398.567V294.637C387.507 286.387 380.757 279.637 372.507 279.637H372.091C365.971 279.637 360.684 283.356 358.358 288.641C356.032 283.356 350.745 279.637 344.625 279.637H344.208C338.088 279.637 332.801 283.356 330.475 288.641C328.149 283.356 322.862 279.637 316.742 279.637H316.326C311.144 279.637 306.556 282.302 303.859 286.327V237.743C303.859 229.493 297.109 222.743 288.859 222.743H288.443C280.193 222.743 273.443 229.493 273.443 237.743V339.311L260.989 326.857C255.156 321.024 245.61 321.024 239.776 326.857L237.792 328.842C231.958 334.675 231.958 344.222 237.792 350.055L286.304 398.567H387.507Z" fill="#FFE2B8"/>
<path d="M306.145 398.567L257.633 350.055C251.799 344.222 251.799 334.675 257.633 328.842L259.617 326.857C259.837 326.637 260.072 326.442 260.302 326.238C254.429 321.048 245.387 321.244 239.774 326.857L237.79 328.842C231.956 334.675 231.956 344.222 237.79 350.055L286.302 398.567H306.145Z" fill="#FFC987"/>
<path d="M395.916 435.522C395.916 438.272 393.666 440.522 390.916 440.522H280.934C278.184 440.522 275.934 438.272 275.934 435.522V402.568C275.934 399.818 278.184 397.568 280.934 397.568H390.916C393.666 397.568 395.916 399.818 395.916 402.568V435.522Z" fill="#FF9518"/>
<path d="M295.776 435.522V402.568C295.776 399.818 298.026 397.568 300.776 397.568H280.933C278.183 397.568 275.933 399.818 275.933 402.568V435.522C275.933 438.272 278.183 440.522 280.933 440.522H300.776C298.026 440.522 295.776 438.272 295.776 435.522Z" fill="#EF8318"/>
<path d="M373.95 428.344C379.083 428.344 383.244 424.183 383.244 419.05C383.244 413.917 379.083 409.756 373.95 409.756C368.817 409.756 364.656 413.917 364.656 419.05C364.656 424.183 368.817 428.344 373.95 428.344Z" fill="#DB722C"/>
<path d="M467.706 240.043C467.706 242.793 465.456 245.043 462.706 245.043H318.92C316.17 245.043 313.92 242.793 313.92 240.043V136.306C313.92 133.556 316.17 131.306 318.92 131.306H462.706C465.456 131.306 467.706 133.556 467.706 136.306V240.043Z" fill="#FE3745"/>
<path d="M365.698 165.29C365.698 159.79 369.595 157.54 374.358 160.29L413.993 183.173C418.756 185.923 418.756 190.423 413.993 193.173L374.358 216.057C369.595 218.807 365.698 216.557 365.698 211.057V165.29Z" fill="white"/>
<path d="M455.672 78.1989C443.268 78.1989 433.176 68.1069 433.176 55.7029C433.176 53.6439 433.459 51.6509 433.98 49.7559H318.92C316.17 49.7559 313.92 52.0059 313.92 54.7559V114.071C313.92 116.821 316.17 119.071 318.92 119.071H462.706C465.456 119.071 467.706 116.821 467.706 114.071V74.6949C464.223 76.9099 460.097 78.1989 455.672 78.1989Z" fill="#FFAF10"/>
<path d="M333.763 240.043V136.306C333.763 133.556 336.013 131.306 338.763 131.306H318.92C316.17 131.306 313.92 133.556 313.92 136.306V240.043C313.92 242.793 316.17 245.043 318.92 245.043H338.763C336.013 245.043 333.763 242.793 333.763 240.043Z" fill="#B7092B"/>
<path d="M333.763 114.071V54.7559C333.763 52.0059 336.013 49.7559 338.763 49.7559H318.92C316.17 49.7559 313.92 52.0059 313.92 54.7559V114.071C313.92 116.821 316.17 119.071 318.92 119.071H338.763C336.013 119.071 333.763 116.821 333.763 114.071Z" fill="#EF9614"/>
<path d="M455.67 79.199C468.646 79.199 479.166 68.6795 479.166 55.703C479.166 42.7265 468.646 32.207 455.67 32.207C442.693 32.207 432.174 42.7265 432.174 55.703C432.174 68.6795 442.693 79.199 455.67 79.199Z" fill="#B7092B"/>
<path d="M456.385 68.5341C453.623 68.5341 451.385 66.2961 451.385 63.5341V52.6601C449.325 52.0421 447.824 50.1311 447.824 47.8701C447.824 45.1081 450.062 42.8701 452.824 42.8701H456.385C459.147 42.8701 461.385 45.1081 461.385 47.8701V63.5341C461.385 66.2961 459.147 68.5341 456.385 68.5341Z" fill="#EEF6FF"/>
<path d="M409.718 80.2231H338.122C333.979 80.2231 330.622 76.8651 330.622 72.7231C330.622 68.5801 333.979 65.2231 338.122 65.2231H409.718C413.861 65.2231 417.218 68.5801 417.218 72.7231C417.218 76.8651 413.86 80.2231 409.718 80.2231Z" fill="#DB722C"/>
<path d="M431.363 103.414H338.122C333.979 103.414 330.622 100.057 330.622 95.9141C330.622 91.7711 333.979 88.4141 338.122 88.4141H431.363C435.506 88.4141 438.863 91.7711 438.863 95.9141C438.863 100.057 435.506 103.414 431.363 103.414Z" fill="#DB722C"/>
<path d="M183.56 153.33C204.177 153.33 220.89 136.617 220.89 116C220.89 95.3831 204.177 78.6699 183.56 78.6699C162.943 78.6699 146.23 95.3831 146.23 116C146.23 136.617 162.943 153.33 183.56 153.33Z" fill="#EF8318"/>
<path d="M183.56 146C200.129 146 213.56 132.569 213.56 116C213.56 99.4315 200.129 86 183.56 86C166.992 86 153.56 99.4315 153.56 116C153.56 132.569 166.992 146 183.56 146Z" fill="#FF9518"/>
<path d="M195.318 124.521H188.655V122.917C194.335 120.838 198.397 115.399 198.397 109C198.397 100.809 191.755 94.167 183.564 94.167C175.372 94.167 168.731 100.809 168.731 109C168.731 115.4 172.793 120.838 178.473 122.917V124.521H171.81C169.149 124.521 166.973 126.699 166.973 129.36V140.993C171.726 144.154 177.428 146 183.564 146C189.7 146 195.403 144.154 200.155 140.993V129.358C200.156 126.698 197.979 124.521 195.318 124.521Z" fill="white"/>
<path d="M150 213.389C150 216.139 147.75 218.389 145 218.389H116C113.25 218.389 111 216.139 111 213.389V184.389C111 181.639 113.25 179.389 116 179.389H145C147.75 179.389 150 181.639 150 184.389V213.389Z" fill="#FF9518"/>
<path d="M123.509 213.389V184.389C123.509 181.639 125.759 179.389 128.509 179.389H116C113.25 179.389 111 181.639 111 184.389V213.389C111 216.139 113.25 218.389 116 218.389H128.509C125.759 218.389 123.509 216.139 123.509 213.389Z" fill="#EF8318"/>
<path d="M216.666 198.889C216.666 196.066 217.629 193.47 219.231 191.389H165.666C161.524 191.389 158.166 194.746 158.166 198.889C158.166 203.032 161.524 206.389 165.666 206.389H219.231C217.63 204.308 216.666 201.712 216.666 198.889Z" fill="#1A2B63"/>
<path d="M251 191.389H238.768C240.37 193.47 241.333 196.066 241.333 198.889C241.333 201.712 240.37 204.308 238.768 206.389H251C255.143 206.389 258.5 203.032 258.5 198.889C258.5 194.746 255.143 191.389 251 191.389Z" fill="#1A2B63"/>
<path d="M229 212.223C236.364 212.223 242.333 206.254 242.333 198.89C242.333 191.527 236.364 185.557 229 185.557C221.636 185.557 215.667 191.527 215.667 198.89C215.667 206.254 221.636 212.223 229 212.223Z" fill="#FF9518"/>
</g>
<defs>
<filter id="filter0_d" x="0" y="0" width="503" height="522" filterUnits="userSpaceOnUse" color-interpolation-filters="sRGB">
<feFlood flood-opacity="0" result="BackgroundImageFix"/>
<feColorMatrix in="SourceAlpha" type="matrix" values="0 0 0 0 0 0 0 0 0 0 0 0 0 0 0 0 0 0 127 0"/>
<feOffset dx="12" dy="9"/>
<feGaussianBlur stdDeviation="0.5"/>
<feColorMatrix type="matrix" values="0 0 0 0 0 0 0 0 0 0 0 0 0 0 0 0 0 0 0.07 0"/>
<feBlend mode="normal" in2="BackgroundImageFix" result="effect1_dropShadow"/>
<feBlend mode="normal" in="SourceGraphic" in2="effect1_dropShadow" result="shape"/>
</filter>
</defs>
</svg>
